EBGaramondAllSC.sfdir

StartChar: quotedbl
Encoding: 34 34 68
Width: 309
VWidth: 0
Flags: W
HStem: 444 232<80.1508 89.4949 211.151 220.495>
VStem: 62 74<529.368 656.895> 193 74<529.368 656.895>
LayerCount: 2
Fore
SplineSet
65 467 m 0
 67 520 67 557 62 619 c 0
 61 633 72 648 81 655 c 0
 97 667 108 676 124 676 c 0
 139 676 139 645 136 624 c 0
 126 555 107 505 91 469 c 0
 86 457 77 444 72 444 c 0
 67 444 65 458 65 467 c 0
196 467 m 0
 198 520 198 557 193 619 c 0
 192 633 203 648 212 655 c 0
 228 667 239 676 255 676 c 0
 270 676 270 645 267 624 c 0
 257 555 238 505 222 469 c 0
 217 457 208 444 203 444 c 0
 198 444 196 458 196 467 c 0
EndSplineSet
Validated: 33
EndChar

StartChar: ampersand
Encoding: 38 38 1007
Width: 788
VWidth: 0
Flags: W
HStem: -15 65<164.273 295.249> -15 49<548.541 658.225> 384 20G<533.5 557> 390 23<683.256 737.277> 571 28<233.892 314.781>
VStem: 37 80<96.0776 213.942> 147 60<443.174 549.65> 347 60<420.308 548.455>
LayerCount: 2
Fore
SplineSet
724 390 m 0x1f
 687 385 646 365 616 333 c 0
 574 288 499 208 472 179 c 2
 459 165 l 1
 476 141 l 2
 518 80 546 34 621 34 c 0
 649 34 661 52 688 60 c 0
 694 62 699 63 703 59 c 0
 708 54 714 44 708 40 c 0
 664 12 641 -15 586 -15 c 0x5f
 511 -15 483 21 432 101 c 2
 419 122 l 1
 413 116 l 2
 349 47 304 -16 210 -15 c 0
 125 -14 38 34 37 119 c 0
 35 228 108 297 205 342 c 2
 225 351 l 1
 210 367 l 2
 191 389 147 430 147 489 c 0
 147 558 213 597 280 599 c 0
 344 601 407 560 407 496 c 0
 407 433 371 384 310 361 c 2
 296 356 l 1
 305 346 l 2
 354 290 395 259 435 201 c 2
 447 183 l 1
 463 200 l 2
 511 251 558 308 569 343 c 0
 575 362 561 380 541 387 c 0
 535 389 529 404 538 404 c 0xaf
 576 404 597 400 635 400 c 0
 670 400 718 413 733 413 c 0
 753 413 739 392 724 390 c 0x1f
240 334 m 1
 219 326 l 2
 126 290 117 216 117 157 c 0
 117 96 171 50 232 50 c 0x8f
 304 50 349 79 398 131 c 2
 407 140 l 1
 395 159 l 2
 362 210 309 259 252 321 c 2
 240 334 l 1
279 376 m 1
 292 382 l 2
 338 403 347 451 347 493 c 0
 347 529 319 571 277 571 c 0
 242 571 207 548 207 513 c 0
 207 460 252 408 264 393 c 2
 279 376 l 1
EndSplineSet
Validated: 33
EndChar

StartChar: hyphen
Encoding: 45 45 94
Width: 274
VWidth: 0
Flags: W
HStem: 170 85
VStem: 29 216
LayerCount: 2
Fore
SplineSet
39 170 m 0
 30 169 29 171 29 176 c 24
 31 198 35 229 45 230 c 0
 109 239 173 248 237 255 c 0
 241 255 245 253 245 249 c 0
 243 224 240 197 224 195 c 0
 164 186 103 177 39 170 c 0
EndSplineSet
Validated: 1
EndChar

StartChar: zero
Encoding: 48 48 83
Width: 507
VWidth: 0
Flags: W
HStem: -15 41<189.1 322.003> 372 41<190.132 321.15>
VStem: 40 78<110.108 295.744> 389 78<109.707 293.68>
LayerCount: 2
Fore
SplineSet
259 372 m 0
 177.3828125 372 118 301 118 204 c 0
 118 119 165.393554688 26 247 26 c 0
 329 26 389 78 389 203 c 0
 389 286 343 372 259 372 c 0
253 413 m 24
 369.931640625 412.7265625 467 319.932617188 467 203 c 24
 467 83.861328125 372.137695312 -15.279296875 253 -15 c 24
 133.85546875 -14.720703125 40 84.85546875 40 204 c 24
 40 320.380859375 136.619140625 413.2734375 253 413 c 24
EndSplineSet
Validated: 33
Substitution2: "'tnum' Tabular Numbers lookup 7 subtable" zero.taboldstyle
Substitution2: "'lnum' Lining Figures lookup 5 subtable" zero.lnum
EndChar

StartChar: two
Encoding: 50 50 77
Width: 430
VWidth: 0
Flags: W
HStem: 0 65<131.73 363.557> 345 68<102.764 207.381>
VStem: 226 68<218.815 324.745>
LayerCount: 2
Fore
SplineSet
45 297 m 0
 41 293 38 288 33 290 c 24
 27 292 25 298 25 304 c 0
 25 313 72 413 190 413 c 0
 254 413 294 353 294 290 c 0
 294 258 277 220 253 191 c 0
 223 155 142 80 132 73 c 0
 126 69 135 65 141 65 c 0
 167 66 255 65 304 65 c 0
 342 65 378 90 397 128 c 0
 400 133 408 139 416 138 c 24
 421 138 421 131 419 126 c 0
 403 81 393 52 386 12 c 0
 383 -5 376 -4 371 -4 c 0
 307 0 262 -0 192 0 c 24
 128 0 93 0 29 -3 c 0
 23 -3 21 9 29 17 c 0
 46 34 74 61 90 74 c 0
 112 92 224 185 226 264 c 0
 227 312 200 345 161 345 c 0
 116 345 79 335 45 297 c 0
EndSplineSet
Validated: 33
Substitution2: "'tnum' Tabular Numbers lookup 7 subtable" two.taboldstyle
Substitution2: "'lnum' Lining Figures lookup 5 subtable" two.lnum
EndChar

StartChar: seven
Encoding: 55 55 80
Width: 460
VWidth: 0
Flags: W
HStem: 281 21G<24.5 33.5> 326 76<55.9462 340.746>
VStem: 28 27<288.119 315.084>
LayerCount: 2
Fore
SplineSet
344 313 m 0
 346 318 349 322 334 323 c 0
 295 324 160 326 128 326 c 0
 107 326 75 329 55 303 c 0
 50 297 38 281 29 281 c 0
 20 281 26 302 28 311 c 0
 35 340 40 370 40 395 c 0
 40 405 47 406 50 406 c 0
 53 406 88 403 113 402 c 0
 206 399 398 401 426 407 c 0
 430 407 434 396 433 392 c 0
 424 374 407 344 395 323 c 0
 326 203 215 8 115 -166 c 8
 109 -177 100 -193 96 -193 c 0
 81 -193 68 -182 68 -167 c 0
 68 -163 80 -142 89 -126 c 16
 179 30 275 194 344 313 c 0
EndSplineSet
Validated: 33
Substitution2: "'tnum' Tabular Numbers lookup 7 subtable" seven.taboldstyle
Substitution2: "'lnum' Lining Figures lookup 5 subtable" seven.lnum
EndChar

StartChar: backslash
Encoding: 92 92 97
Width: 399
VWidth: 0
Flags: W
LayerCount: 2
Fore
SplineSet
378 -47 m 26
 381 -55 371 -62 362 -62 c 24
 347 -62 332 -61 326 -47 c 26
 29 648 l 26
 26 656 34 665 42 665 c 24
 59 665 74 663 81 648 c 26
 378 -47 l 26
EndSplineSet
Validated: 1
EndChar

StartChar: grave
Encoding: 96 96 87
Width: 279
VWidth: 0
Flags: W
HStem: 449 215
VStem: 40 178
LayerCount: 2
Fore
SplineSet
178 471 m 4
 98 582 40 617 40 636 c 4
 40 650 56.8232 663.798 74 664 c 28
 96.5039 664.265 113.915 654.947 125 637 c 4
 146 603 218 477 218 462 c 4
 218 453 214.22 449 205 449 c 4
 196 449 183.391 463.521 178 471 c 4
EndSplineSet
Validated: 33
EndChar

StartChar: b
Encoding: 98 98 9
Width: 441
VWidth: 0
Flags: W
HStem: -3 33<167.336 261.439> -2 24<11.0317 56.2483> 226 30<156.281 251.954> 421 32<157.017 260.919>
VStem: 80 75<44.3801 224.002 255.954 398.616> 289 74<280.709 401.848> 300 83<61.4542 200.229>
LayerCount: 2
Fore
SplineSet
155 281 m 0x3c
 156 258 164 257 176 256 c 0
 188 255 226 255 260 275 c 0
 270 281 289 300 289 340 c 0
 289 379 279 421 201 421 c 0
 163 421 155 411 154 390 c 0
 153 340 153 336 155 281 c 0x3c
200 -3 m 0xba
 186 -3 138 3 108 3 c 0
 79 3 34 -2 15 -2 c 0
 9 -2 9 21 15 22 c 0
 39 24 46.0908 24.8027 60 37 c 24
 73.6406 48.9619 80 61 80 79 c 0
 80 176 80 247 80 352 c 0
 80 371 78 391 71 399 c 0
 57 414 55 418 28 425 c 0
 22 427 17.2422 450 27 450 c 16
 56 450 78.2305 448 111 448 c 16
 138 448 160 453 201 453 c 0
 301 453 363 424 363 349 c 0x7c
 363 318 351 289 341 279 c 0
 326 265 307 258 284 249 c 0
 281 248 280 243 284 242 c 0
 326 229 383 212 383 132 c 0
 383 56 338 28 313 14 c 0
 286 -3 245 -3 200 -3 c 0xba
300 129 m 0xba
 300 182 285 198 266 209 c 0
 254 216 229 226 194 226 c 0
 182 226 169 223 163 218 c 0
 156 214 155 210 155 201 c 0
 153 160 154 116 155 80 c 0
 156 67 159 52 167 44 c 0
 174 36 192 30 210 30 c 0
 263 30 300 69 300 129 c 0xba
EndSplineSet
Validated: 33
EndChar

StartChar: c
Encoding: 99 99 14
Width: 429
VWidth: 0
Flags: W
HStem: -14 35<199.694 328.613> 427 31<184.191 329.172>
VStem: 12 83<132.261 317.163>
LayerCount: 2
Fore
SplineSet
263 458 m 20
 285 458 322 454 335 450 c 4
 346 446 380 441 392 437 c 4
 397 436 399 426 401 416 c 4
 403 395 405 377 406 340 c 4
 406 334 399 323 393 324 c 4
 385 325 373 330 371 346 c 5
 368 374 354 393 346 401 c 4
 332 415 289 427 247 427 c 4
 146 427 95 329 95 239 c 0
 95 133 154.21 24.9551 261 21 c 16
 288 20 319 31 345 47 c 0
 371 62 379 86 383 99 c 0
 385 107 408 112 413 112 c 0
 422 112 421 102 420 94 c 0
 417 77 397 31 387 15 c 0
 380 2 297.817 -14 239 -14 c 16
 117 -14 12 94.2939 12 222 c 16
 12 357 128.636 458 263 458 c 20
EndSplineSet
Validated: 33
EndChar

StartChar: g
Encoding: 103 103 25
Width: 507
VWidth: 0
Flags: W
HStem: -12 36<204.672 351.615> 178 34<300.377 373.835 453.411 491.445> 422 32<207.383 359.691>
VStem: 20 84<132.931 310.158> 381 75<45.6252 162.706> 381 62<52.1408 156.612>
LayerCount: 2
Fore
SplineSet
272 24 m 0xf8
 307 24 348 39 360 46 c 0
 377 57 381 78 381 102 c 0xf8
 381 123 385 149 379 157 c 0
 366 172 326 178 312 178 c 0
 305 178 300 194 298 204 c 0
 298 207 298 212 301 212 c 8
 341.577148438 212 367 209 405 209 c 8
 435.4296875 209 458 211 483 211 c 8
 487.21875 211 492 209 492 205 c 8
 492 194.122070312 490 180 485 178 c 0
 465 172 448 163 446 145 c 0
 443 117 442.66203793 101.712889754 443 74 c 24xf4
 443.055664062 69.435546875 444.677865978 66.9297652683 447 63 c 24
 449.8203125 58.2275390625 456 55 456 52 c 0
 456 48 451.629795712 42.0362943167 446 39 c 24
 416.33984375 23.00390625 399.352608016 13.4284743361 367 4 c 24
 330.559570312 -6.6201171875 297 -12 271 -12 c 8
 137.168945312 -12 20 88.1689453125 20 222 c 16
 20 357 151.166992188 454 290 454 c 0
 341 454 373.299804688 450 404 440 c 0
 416.786132812 435.834960938 426 432 429 420 c 4
 436.100585938 391.599609375 442 360 442 342 c 0
 442 335 437 328 431 328 c 8
 417.151367188 328 404 339 401 347 c 0
 396 361 389 379 378 393 c 0
 369 403 341 423 275 422 c 8
 177.046875 420.515625 104 342 104 238 c 0
 104 130 167 24 272 24 c 0xf8
EndSplineSet
Validated: 33
EndChar

StartChar: h
Encoding: 104 104 4
Width: 605
VWidth: 0
Flags: W
HStem: -3 24<15.3203 59.3583 195.049 238.734 349.32 393.358 528.475 573.09> 216 37<164 423> 429 23<24.6897 54.4601 197.74 228.915 359.133 388.46 532.577 563.27>
VStem: 89 75<45.4878 216.466 252.794 409.42> 423 75<45.484 216.346 252.595 409.42>
LayerCount: 2
Fore
SplineSet
164 259 m 0
 164 254 169.453 253.107 174 253 c 24
 269.134 250.753 322.889 249.944 418 253 c 24
 421.678 253.118 423 255 423 261 c 0
 423 305 423 321 423 377 c 0
 423 390 416.504 396.763 407 405 c 24
 392.229 417.802 380 422 363 429 c 0
 357 432 357 452 363 452 c 0
 406 452 421.552 450 459 450 c 24
 498.008 450 517 452 559 452 c 0
 567 452 565 432 559 429 c 0
 542 422 527 417 512 404 c 0
 505 398 498 389 498 377 c 0
 498 261 498 170 498 82 c 0
 498 67 500.515 55.3024 512 45 c 24
 529.155 29.6104 544 25 566 21 c 0
 577 18 577 -3 566 -3 c 0
 526 -3 500.775 2 459 2 c 24
 418.782 2 394 -3 356 -3 c 0
 348 -3 344 18 356 21 c 0
 377 25 392.959 29.4847 410 45 c 24
 421.31 55.2969 423 67 423 82 c 0
 423 134 423 169 423 211 c 0
 423 216 421.497 215.951 419 216 c 24
 320.738 217.919 265.243 218.697 167 216 c 24
 164.031 215.919 164 214 164 209 c 0
 164 167 164 133 164 82 c 0
 164 67 166.592 55.3866 178 45 c 24
 194.778 29.7246 210 25 231 21 c 0
 243 18 243 -3 231 -3 c 0
 191 -3 168.828 2 129 2 c 24
 87.2246 2 60 -3 22 -3 c 0
 14 -3 10 18 22 21 c 0
 43 25 58.9586 29.4847 76 45 c 24
 87.3096 55.2969 89 67 89 82 c 0
 89 204 89 252 89 377 c 4
 89 390 82.5042 396.763 73 405 c 28
 58.2285 417.802 46 422 29 429 c 4
 22 432 23 452 29 452 c 4
 72 452 89.9922 450 129 450 c 28
 166.059 450 183 452 224 452 c 4
 233 452 231 432 224 429 c 4
 207 422 192 417 178 404 c 4
 170 398 164 389 164 377 c 4
 164 320 164 303 164 259 c 0
EndSplineSet
Validated: 33
EndChar

StartChar: i
Encoding: 105 105 5
Width: 320
VWidth: 0
Flags: W
HStem: -3 24<54.3203 98.3583 234.049 277.734> 429 23<63.6897 93.4601 236.74 267.915>
VStem: 128 75<45.4878 409.42>
LayerCount: 2
Fore
SplineSet
203 377 m 0
 203 260 203 197 203 82 c 0
 203 67 205.592 55.3866 217 45 c 24
 233.778 29.7246 249 25 270 21 c 0
 282 18 282 -3 270 -3 c 0
 230 -3 207.828 2 168 2 c 24
 126.225 2 99 -3 61 -3 c 0
 53 -3 49 18 61 21 c 0
 82 25 97.9586 29.4847 115 45 c 24
 126.31 55.2969 128 67 128 82 c 0
 128 202 128 247 128 377 c 0
 128 390 121.504 396.763 112 405 c 24
 97.2285 417.802 85 422 68 429 c 0
 61 432 62 452 68 452 c 0
 111 452 128.992 450 168 450 c 24
 205.059 450 222 452 263 452 c 0
 272 452 270 432 263 429 c 0
 246 422 231 417 217 404 c 0
 209 398 203 389 203 377 c 0
EndSplineSet
Validated: 1
Substitution2: "loclTRK subtable" i.TRK
EndChar

StartChar: k
Encoding: 107 107 62
Width: 524
VWidth: 0
Flags: W
HStem: -4 24<30.6966 66.8555 198.959 232.437 293.469 335.03 457.662 502.938> 225 20<173.025 189.046> 418 32<296.566 324.6> 425 25<38.9238 69.6776 192.592 229.989 415.309 468.063>
VStem: 98 75<47.4944 224.993 245.004 407.713>
LayerCount: 2
Fore
SplineSet
417 66 m 0xd8
 446 33 460 29 499 18 c 0
 505 16 509 -7 499 -7 c 0
 479 -7 454 -0 421 -0 c 8
 373.005 0 313 -4 298 -4 c 0
 290 -4 290 19 296 20 c 0
 313 25 337 27 337 36 c 0
 337 43 336 47 326 57 c 0
 290 96 244.587 152.983 191 213 c 24
 186.011 218.588 179 225 176 225 c 0
 172 225 173 215 173 210 c 0
 173 166 174 139 176 83 c 8
 176.557 67.4004 180 49 185 44 c 0
 198 31 206 25 226 20 c 0
 237 18 237 -4 226 -4 c 0
 189 -4 173.576 0 140 0 c 24
 99.4102 0 71 -4 36 -4 c 0
 28 -4 24 18 36 20 c 0
 55 25 70.4554 31.2047 86 47 c 24
 96.3809 57.5479 98 68 98 83 c 0
 98 202 98 255 98 375 c 4
 98 387 91.9853 393.977 83 402 c 28
 69.3242 414.211 59 421 42 425 c 4
 36 427 36 450 42 450 c 4
 82 450 101.762 447 140 447 c 28
 173.561 447 188 450 226 450 c 4
 234 450 233 426 226 425 c 4xd8
 209 423 201 420 187 408 c 4
 180 402 176.493 388.558 176 375 c 20
 174 320 173 296 173 253 c 0
 173 250 173 245 176 245 c 0
 181 245 186 247 191 252 c 0
 220 278 323 384 323 384 c 4
 333 395 323 413 300 418 c 4
 292 420 294 450 302 450 c 4xe8
 333 447 352 448 377 448 c 4
 388 448 427 450 465 454 c 4
 472 454 469 426 465 425 c 4
 422 420 408 412 377 384 c 4
 329 342 299.695 314.826 255 266 c 24
 251.743 262.441 254 259 258 254 c 0
 325 178 352 140 417 66 c 0xd8
EndSplineSet
Validated: 33
EndChar

StartChar: l
Encoding: 108 108 2
Width: 444
VWidth: 0
Flags: W
HStem: -1 22<19.3836 56.1625> 2 30<175.271 350.335> 428 24<31.3807 69.0295 192.197 246.501>
VStem: 89 75<40.2419 405.613>
LayerCount: 2
Fore
SplineSet
242 429 m 0xb0
 214 421 190 421 177 406 c 0
 169 398 164 373 164 353 c 0
 164 258 164 171 164 86 c 0
 164 58 172 32 218 32 c 0
 221 32 307 32 314 32 c 0
 318 32 342 38 354 50 c 24
 375 71 383 89 395 114 c 0
 398 119 412 122 423 121 c 24
 428 121 433 117 432 112 c 0
 422 76 413 39 410 10 c 0
 410 4 402 -2 395 -2 c 8
 291 -2 199 2 129 2 c 0x70
 94 2 23 -1 23 -1 c 0
 18 -1 17 20 23 21 c 0
 46 27 55 28 69 42 c 24
 82 55 89 66 89 84 c 0
 89 188 89 248 89 354 c 0
 89 374 87 398 80 406 c 0
 66 421 63 420 36 428 c 0
 30 429 27 452 36 452 c 16
 65 452 82 450 112 450 c 24
 163 450 224 454 242 453 c 0
 252 453 248 430 242 429 c 0xb0
EndSplineSet
Validated: 33
Substitution2: "loclCAT subtable" l.CAT
EndChar

StartChar: m
Encoding: 109 109 7
Width: 720
VWidth: 0
Flags: W
HStem: -3 25<50.4305 95.0426 181.751 217.873 482.645 513.031 649.934 686.673> 431 24<68.6118 111.979 618.831 663.924>
LayerCount: 2
Fore
SplineSet
365 -1 m 0
 354 -26 337 -18 328 1 c 0
 279 104 244.342 201.23 188 328 c 20
 184 337 180 338 179 328 c 12
 169.296 230.961 161 173 156 79 c 0
 156 61 164.019 52.1915 176 40 c 24
 187.37 28.4307 191 26 213 21 c 0
 219 20 225 -3 213 -3 c 0
 186 -3 166.07 1 136 1 c 24
 104.371 1 79 -3 55 -3 c 0
 47 -3 48 20 55 21 c 0
 77 26 84.3001 26.1685 99 37 c 24
 108.127 43.7246 111 54 112 63 c 0
 129 188 143 309 143 367 c 4
 143 385 144 391 132 405 c 4
 118 421 91 427 74 431 c 4
 66 433 65 457 73 455 c 4
 147 443 224 457 227 450 c 4
 278 322 311 237 365 106 c 0
 370 93 375 91 381 104 c 0
 438 220 456 273 503 389 c 4
 513 412 525 447 530 447 c 4
 537 447 571 447 576 447 c 12
 611.275 447 634 452 666 456 c 4
 673 457 666 436 660 434 c 4
 637 427 636 432 618 420 c 4
 607 412 606.924 401.196 607 388 c 28
 607.709 265.048 609.641 195.518 620 73 c 24
 621.06 60.4678 626.287 52.9899 636 45 c 24
 651.49 32.2578 661 26 682 22 c 0
 688 20 692 -3 682 -3 c 0
 661 -3 634 1 600 1 c 8
 556.682 1 505 -3 489 -3 c 0
 480 -3 480 20 486 22 c 0
 511 29 509.972 31.5215 521 43 c 24
 529.945 52.3105 534.723 60.0918 535 73 c 24
 537.09 170.527 531 229 527 323 c 4
 526 339 523 336 517 323 c 4
 517 323 374 19 365 -1 c 0
EndSplineSet
Validated: 33
EndChar

StartChar: p
Encoding: 112 112 8
Width: 468
VWidth: 0
Flags: W
HStem: -3 28<47.0864 89.2581 215.97 257.384> 184 16<221.885 287.262> 424 29<193.049 306.797>
VStem: 114 75<42.0916 400.614> 356 82<245.048 387.146>
LayerCount: 2
Fore
SplineSet
189 395 m 4
 189 293 189 184 189 81 c 0
 189 53 209 36 253 25 c 0
 260 23 260 -3 253 -3 c 0
 239 -3 192.681 3 154 3 c 24
 113.373 3 69 -3 50 -3 c 0
 44 -3 44 20 50 21 c 0
 70 24 81.0635 30.0635 95 44 c 24
 107.462 56.4619 114 68 114 85 c 0
 114 185 114 247 114 350 c 4
 114 370 113 393 105 401 c 4
 92 415 89 416 63 424 c 4
 57 426 51.8525 450 62 450 c 20
 91 450 107.739 448 137 448 c 20
 163 448 214 453 233 453 c 4
 332 453 438 417 438 325 c 4
 438 268 419 238 389 215 c 4
 350 185 267 178 234 184 c 4
 213 188 223 201 232 200 c 4
 260 196 287 204 304 217 c 4
 336 241 356 261 356 332 c 4
 356 409 285 424 233 424 c 4
 207 424 189 416 189 395 c 4
EndSplineSet
Validated: 33
EndChar

StartChar: r
Encoding: 114 114 12
Width: 547
VWidth: 0
Flags: W
HStem: -14 35<429.98 499.568> -4 25<14.438 48.7442 199.518 228.809> 424 29<25.5276 65.644 166.038 261.371>
VStem: 82 75<44.9388 203.042 233.012 401.614> 294 84<269.317 397.487>
LayerCount: 2
Fore
SplineSet
157 258 m 4x38
 158 231 169 233 190 233 c 4
 231 233 245 241 263 253 c 4
 286 267 294 293 294 334 c 0
 294 373 282 424 204 424 c 0
 166 424 161 407 160 386 c 0
 158 336 156 313 157 258 c 4x38
157 189 m 4
 158 149 159 118 160 81 c 0
 161 53 181 36 225 25 c 0
 231 23 232 -4 225 -4 c 0
 211 -4 166.513 2 129 2 c 24
 85.2578 2 36 -4 17 -4 c 0
 11 -4 11 19 17 21 c 0
 37 26 47.9559 30.172 62 44 c 24
 74.6777 56.4824 82 68 82 85 c 0
 82 189 82 248 82 352 c 0
 82 371 80 394 73 402 c 0
 59 417 57 418 30 425 c 0
 24 427 19.2422 450 29 450 c 16
 58 450 84.4902 447 120 447 c 16
 146 447 164 453 204 453 c 0
 305 453 378 410 378 335 c 0
 378 304 354 261 343 251 c 4
 329 237 312 226 303 222 c 4
 300 221 300 220 303 216 c 4
 346 151 364 102 427 41 c 0
 455 13 469 22 502 21 c 0x78
 509 21 506 5 500 1 c 0
 491 -5 468 -14 451 -14 c 0xb8
 411 -14 365 -6 340 24 c 0
 307 65 299 84 252 161 c 4
 244 173 236.112 181.027 222 188 c 28
 202.067 197.85 180 202 167 203 c 4
 160 204 157 198 157 189 c 4
EndSplineSet
Validated: 33
EndChar

StartChar: s
Encoding: 115 115 17
Width: 373
VWidth: 0
Flags: W
HStem: -11 35<115.496 225.454> 423 35<143.458 252.654>
VStem: 53 74<318.853 396.396> 247 84<53.416 148.023> 288 32<337.527 385.485>
LayerCount: 2
Fore
SplineSet
169 24 m 0xf0
 231 24 247 57 247 99 c 0xf0
 247 144 207 165 148 203 c 0
 96 236 53 285 53 340 c 4
 53 382 102 458 205 458 c 4
 253 458 281 443 296 441 c 12
 303.674 439.977 308 432 309 426 c 4
 314 402 320 376 320 352 c 4
 320 346 316 335 312 335 c 4
 308 335 290 342 288 352 c 4xe8
 270 415 221 423 196 423 c 4
 149 423 127 402 127 364 c 4
 127 320 184 289 221 265 c 4
 260 240 331 190 331 120 c 0
 331 65 285 -11 172 -11 c 0
 118 -11 89 2 64 7 c 0
 53 9 55 12 53 15 c 0
 45 31 31 85 30 110 c 0
 30 116 42 121 50 121 c 0
 58 121 90 24 169 24 c 0xf0
EndSplineSet
Validated: 1
EndChar

StartChar: t
Encoding: 116 116 1
Width: 489
VWidth: 0
Flags: W
HStem: -3 25<121.73 164.086 296.914 339.703> 406 41<72.246 180.16 268.66 420.189>
VStem: 23 34<358.276 395.937> 193 75<46.4591 403.896> 424 28<347.656 398.928>
LayerCount: 2
Fore
SplineSet
377 406 m 4
 342 406 291 405 279 404 c 4
 270 403 268 387 268 374 c 4
 268 265 268 188 268 81 c 0
 268 66 270.218 55.787 281 46 c 24
 297.539 30.9883 312 26 333 22 c 0
 344 19 343 -3 333 -3 c 0
 294 -3 269.041 4 228 4 c 24
 188.904 4 165 -3 128 -3 c 0
 120 -3 117 19 128 22 c 0
 149 26 163.461 30.9879 180 46 c 24
 190.782 55.7871 193 66 193 81 c 0
 193 200 193 256 193 374 c 4
 193 386 192 402 181 404 c 4
 163 407 150 406 107 406 c 4
 86 406 67 395 57 378 c 4
 53 370 35 350 25 350 c 4
 14 350 19 367 23 376 c 4
 36 402 36 438 40 467 c 4
 42 482 50 482 53 482 c 4
 57 482 68 468 72 461 c 4
 77 451 98 447 116 447 c 4
 221 447 283 447 387 447 c 4
 408 447 427 447 438 460 c 4
 446 468 458 472 462 472 c 4
 465 472 472 466 469 460 c 4
 459 441 455 396 452 366 c 12
 451.128 357.279 448 346 440 347 c 4
 432 348 426 364 424 370 c 4
 420 387 421 406 377 406 c 4
EndSplineSet
Validated: 33
EndChar

StartChar: u
Encoding: 117 117 15
Width: 563
VWidth: 0
Flags: W
HStem: -13 35<238.389 374.945> 425 25<35.0211 68.4721 167.691 200.01 380.363 415.874 499.32 542.199>
VStem: 80 75<101.856 419.064> 431 44<89.461 410.762>
LayerCount: 2
Fore
SplineSet
80 204 m 16
 80 245 80 343 80 372 c 0
 80 415 64 418 41 425 c 0
 33 427 29.2188 450 39 450 c 16
 71 450 92.0605 448 126 448 c 24
 152.921 448 156 450 195 450 c 0
 203 450 203 428 195 426 c 0
 166 422 156 404 155 365 c 0
 153 305 155 220 155 185 c 8
 155 98.0791 215 22 307 22 c 0
 391 22 431 70 431 193 c 0
 431 223 431 323 431 350 c 4
 432 411 419 417 386 425 c 4
 377 428 376.853 451 387 451 c 20
 420 451 430.92 451 459 451 c 20
 490 451 508 452 540 452 c 12
 548.58 452 545 431 540 430 c 12
 509.433 423.887 484 412 482 375 c 4
 480 353 475 279 475 217 c 8
 475 102.855 439 -13 294 -13 c 0
 155 -13 80 85.1396 80 204 c 16
EndSplineSet
Validated: 33
Substitution2: "loclLAT subtable" u.LAT
EndChar

StartChar: v
Encoding: 118 118 22
Width: 537
VWidth: 0
Flags: W
HStem: 432 20<189.955 227.359 349.151 374.832 477.195 515.433>
LayerCount: 2
Fore
SplineSet
267 -15 m 0
 261 -15 244.367 35.3459 231 68 c 24
 186.253 177.315 167 229 118 349 c 0
 111 366 98 393 88 404 c 0
 76 417 58 425 36 431 c 0
 29 434 25.7725 452 34 452 c 16
 65 452 76.6885 450 104 450 c 24
 150.417 450 186 452 223 452 c 0
 230 452 231 434 223 432 c 0
 196 429 182 423 182 404 c 0
 182 385 191 359 196 337 c 0
 213 272 247 202 277 136 c 0
 288 112 287 111 298 136 c 8
 333.558 216.813 348 256 385 345 c 0
 391 359 402.415 378.906 395 399 c 24
 388.141 417.588 376 424 354 429 c 0
 345 431 346.801 450 355 450 c 16
 386 450 404.41 450 436 450 c 16
 466 450 483 452 513 452 c 8
 520.41 452 517 434 513 433 c 8
 494.17 428.292 480.406 428.037 467 414 c 24
 445.416 391.4 438 368 428 344 c 0
 386 246 346 164 298 51 c 0
 293 38 277 -15 267 -15 c 0
EndSplineSet
Validated: 33
EndChar

StartChar: x
Encoding: 120 120 53
Width: 543
VWidth: 0
Flags: W
HStem: -3 25<29.7561 76.4045 163.306 204.768 279.048 328.52 461.198 502.169> 424 25<44.5154 100.871 206.767 243.127 335.674 361.286>
LayerCount: 2
Fore
SplineSet
198 22 m 0
 208 22 208 -3 198 -3 c 0
 157 -3 149.872 2 119 2 c 24
 86.5713 2 77 -3 36 -3 c 0
 27 -3 26 20 36 22 c 0
 87 31 108.796 53.2441 139 91 c 18
 223 196 l 2
 237 213 239.175 222.122 230 235 c 2
 121 388 l 14
 102.361 414.162 96 425 49 428 c 4
 39 429 40 454 49 453 c 4
 75 451 102.546 445.729 137 445 c 28
 176.412 444.166 216 449 238 449 c 4
 248 449 248 425 238 425 c 4
 185 423 202.749 382.242 218 361 c 22
 274 283 l 2
 283.222 270.155 280.558 268.352 291 281 c 2
 362 367 l 14
 377.17 385.375 368 421 340 424 c 4
 330 425 332 449 340 449 c 12
 362.65 449 369 446 398 446 c 12
 434.051 446 455 447 490 455 c 4
 500 457 499 432 490 430 c 4
 453 422 437.303 407.895 415 381 c 22
 313 258 l 2
 303.029 245.977 301 245 310 232 c 2
 413 82 l 10
 435.609 49.0732 463 27 496 22 c 0
 505 21 506 -3 496 -3 c 0
 455 -3 441.135 1 406 1 c 24
 358.784 1 327 -3 285 -3 c 0
 276 -3 276 21 285 22 c 0
 337 25 353.786 51.1455 333 82 c 2
 269 177 l 2
 260 190 254 184 245 171 c 2
 167 70 l 2
 148.766 46.3887 159 22 198 22 c 0
EndSplineSet
Validated: 33
EndChar

StartChar: z
Encoding: 122 122 65
Width: 466
VWidth: 0
Flags: W
HStem: -3 42<162.888 381.386> -2 19<31.8216 38.9008> 418 33<101.291 300.976>
VStem: 44 35<355.125 403.266>
LayerCount: 2
Fore
SplineSet
324 39 m 0xb0
 357 41 390 53 410 99 c 0
 412 104 431.047 111.176 446 113 c 24
 449.985 113.486 452 109 451 104 c 0
 442 63 431 25 423 9 c 0
 420 3 420 -3 413 -3 c 8xb0
 301.459 -3 201 0 127 -2 c 0
 92 -3 68 -2 34 -2 c 8
 26.5898 -2 34 17 34 17 c 1x70
 38 27 56 52 71 74 c 0
 165 203 218.658 273.809 305 407 c 28
 308.3 412.091 311 417 294 418 c 4
 251 419 171 421 130 418 c 4
 107 416 91 407 79 373 c 4
 76 365 56 348 46 348 c 4
 35 348 41 364 44 374 c 4
 49 391 59 433 68 453 c 4
 73 463 80 465 84 465 c 4
 87 465 94 461 101 455 c 4
 107 451 125.893 450.205 142 450 c 28
 248.853 448.644 336 449 416 451 c 4
 421 451 427 442 424 439 c 4
 408 419 398 404 382 382 c 4
 286 254 238.393 188.429 155 59 c 24
 150.589 52.1543 154 40 161 39 c 0
 201 34 259 34 324 39 c 0xb0
EndSplineSet
Validated: 33
EndChar

StartChar: bar
Encoding: 124 124 106
Width: 260
VWidth: 0
Flags: W
HStem: -289 21G<109 116.5>
VStem: 100 60<-285.158 700.038>
LayerCount: 2
Fore
SplineSet
100 676 m 10
 100 697.633789062 140 707 146 707 c 0
 153 707 160 701.451171875 160 694 c 18
 160 -265 l 14
 160 -285.9296875 121 -289 112 -289 c 4
 106 -289 100 -282.19140625 100 -275 c 22
 100 676 l 10
EndSplineSet
Validated: 1
EndChar

StartChar: cent
Encoding: 162 162 1012
Width: 412
VWidth: 0
Flags: W
HStem: -14 59<235.234 317.67> 384 28<184.969 235>
VStem: 35 67<124.871 282.833>
LayerCount: 2
Fore
SplineSet
194 -12 m 1
 109 3 35 89 35 188 c 0
 35 301 119 401 238 412 c 1
 243 462 l 2
 244 473 254 479 265 479 c 0
 273 479 279 470 278 462 c 2
 273 413 l 1
 312 411 353 398 380 365 c 0
 393 349 375 333 360 323 c 0
 349 316 331 320 326 329 c 0
 312 354 296 372 269 379 c 1
 235 46 l 1
 240 45 245 45 250 45 c 0
 292 45 340 50 365 88 c 0
 373 100 392 87 386 77 c 0
 349 15 300 -12 228 -14 c 1
 223 -65 l 2
 222 -74 213 -80 204 -80 c 0
 195 -80 187 -74 188 -65 c 2
 194 -12 l 1
200 53 m 1
 235 384 l 2
 234 384 234 384 233 384 c 0
 153 384 102 297 102 222 c 0
 102 135 142 75 200 53 c 1
EndSplineSet
Validated: 33
EndChar

StartChar: yen
Encoding: 165 165 1013
Width: 619
VWidth: 0
Flags: W
HStem: -5 29<158.692 231.247 387.753 460.308> 197 35<131.286 270 350 486.751> 280 35<131.286 260 355 487.751> 620 33<6.64938 63.7163 202.875 258.781 390.06 442.964 552.286 616.313>
VStem: 270 80<51.375 197 232 280>
LayerCount: 2
Fore
SplineSet
127 522 m 2
 107 552 69 611 38 620 c 0
 16 627 5 633 5 642 c 0
 5 650 17 653 34 653 c 0
 64 653 105 650 151 650 c 24
 182 650 210 652 231 652 c 0
 248 652 260 649 260 641 c 0
 260 632 249 628 227 621 c 0
 211 616 185 600 208 560 c 2
 301 395 l 2
 331 342 332 345 362 395 c 2
 362 395 418 477 445 534 c 0
 461 569 450 612 422 620 c 0
 408 624 389 631 389 640 c 0
 389 648 401 651 418 651 c 0
 448 651 464 650 493 650 c 24
 530 650 566 653 589 653 c 0
 606 653 618 650 618 642 c 0
 618 633 608 627 585 622 c 0
 550 615 506 557 485 526 c 0
 431 444 373 346 373 346 c 2
 365 334 358 323 355 315 c 1
 477 315 l 2
 484 315 493 308 490 301 c 0
 483 288 474 280 459 280 c 2
 350 280 l 1
 350 273 350 265 350 256 c 0
 350 248 350 240 350 232 c 1
 476 232 l 2
 483 232 492 225 489 218 c 0
 482 205 473 197 458 197 c 2
 350 197 l 1
 350 167 350 134 350 108 c 0
 350 63 378 33 428 24 c 0
 451 20 461 15 461 6 c 0
 461 -2 449 -5 432 -5 c 0
 378 -5 361 0 315 0 c 24
 265 0 241 -5 187 -5 c 0
 170 -5 158 -2 158 6 c 0
 158 15 168 20 191 24 c 0
 241 33 269 60 269 108 c 0
 270 197 l 1
 144 197 l 2
 137 197 130 203 130 209 c 0
 130 218 141 232 154 232 c 2
 270 232 l 1
 270 256 l 2
 270 265 269 273 268 280 c 1
 144 280 l 2
 137 280 130 286 130 292 c 0
 130 301 141 315 154 315 c 2
 260 315 l 1
 256 322 254 326 251 330 c 2
 127 522 l 2
EndSplineSet
Validated: 33
EndChar

StartChar: guillemotleft
Encoding: 171 171 117
Width: 676
VWidth: 0
Flags: W
LayerCount: 2
Fore
SplineSet
419 217 m 0
 411 211 411 209 419 203 c 0
 463 169 515 125 571 40 c 0
 578 29 571 17 563 19 c 0
 551 22 541 31 535 37 c 0
 466 104 389 155 330 182 c 0
 317 188 307 213 315 218 c 0
 417 279 472 316 541 382 c 0
 547 388 557 397 569 400 c 0
 577 402 578 387 571 376 c 0
 515 291 463 251 419 217 c 0
207 217 m 0
 199 211 199 209 207 203 c 0
 251 169 303 125 359 40 c 0
 366 29 359 17 351 19 c 0
 339 22 329 31 323 37 c 0
 254 104 177 155 118 182 c 0
 105 188 95 213 103 218 c 0
 205 279 260 316 329 382 c 0
 335 388 345 397 357 400 c 0
 365 402 366 387 359 376 c 0
 303 291 251 251 207 217 c 0
EndSplineSet
Validated: 33
EndChar

StartChar: plusminus
Encoding: 177 177 1019
Width: 590
VWidth: 0
Flags: W
HStem: 38 50<53.2358 534.448> 351 50<53.2358 270 320 534.448>
VStem: 270 50<124.236 351 401.011 605.895>
LayerCount: 2
Fore
SplineSet
64 38 m 14
 56.80859375 38 50 44 50 50 c 4
 50 59 56.4716796875 88 74 88 c 18
 527 88 l 10
 534.451171875 88 542.523817893 81.0106052578 540 74 c 24
 533.724609375 56.5673828125 527.528320312 38 509 38 c 22
 64 38 l 14
320 407 m 2
 320 400 321 401 324 401 c 2
 527 401 l 10
 534.451171875 401 542.523817893 394.010605258 540 387 c 24
 533.724609375 369.567382812 527.528320312 351 509 351 c 18
 324 351 l 2
 321 351 320 350 320 347 c 2
 320 145 l 10
 320 127.471679688 291 121 282 121 c 0
 276 121 270 127.80859375 270 135 c 18
 270 346 l 2
 270 349 269 351 266 351 c 2
 64 351 l 10
 56.80859375 351 50 357 50 363 c 0
 50 372 56.4716796875 401 74 401 c 18
 263 401 l 2
 269 401 270 403 270 409 c 2
 270 580 l 10
 270 598.528320312 300 611 306 611 c 0
 313 611 320 605.451171875 320 598 c 18
 320 407 l 2
EndSplineSet
Validated: 1
EndChar

StartChar: periodcentered
Encoding: 183 183 113
Width: 200
VWidth: 0
Flags: W
HStem: 150 110<56.7433 143.257>
VStem: 45 110<161.743 248.257>
LayerCount: 2
Fore
SplineSet
100 260 m 28
 130.335 260 155 235.335 155 205 c 28
 155 174.665 130.335 150 100 150 c 28
 69.665 150 45 174.665 45 205 c 28
 45 235.335 69.665 260 100 260 c 28
EndSplineSet
Validated: 1
EndChar

StartChar: questiondown
Encoding: 191 191 1020
Width: 355
VWidth: 0
Flags: W
HStem: -181 92<202.941 302.018> 374 120<186.745 279.255>
VStem: 68 55<-18.1186 89.5> 173 120<387.745 480.255> 232 37<222.001 297.929>
LayerCount: 2
Fore
SplineSet
233 374 m 24xf0
 200 374 173 401 173 434 c 24
 173 467 200 494 233 494 c 24
 266 494 293 467 293 434 c 24
 293 401 266 374 233 374 c 24xf0
273 -181 m 0
 240 -181 198 -164 165 -131 c 0
 109 -75 68 14 68 65 c 0
 68 114 92 149 112 160 c 0
 156 184 170 192 202 213 c 0
 230 231 231 244 232 276 c 0
 232 286 237 299 247 299 c 0
 254 299 265 286 269 270 c 0xe8
 275 247 281 233 285 187 c 0
 288 151 249 126 184 93 c 0
 156 79 123 51 123 22 c 0
 123 -44 156 -92 224 -93 c 0
 243 -93 252 -89 271 -89 c 0
 292 -89 313 -118 313 -145 c 0
 313 -164 290 -181 273 -181 c 0
EndSplineSet
Validated: 33
EndChar

StartChar: adieresis
Encoding: 228 228 73
Width: 555
VWidth: 0
Flags: W
HStem: -3 24<32.5977 66.9576 182.452 212.952 498.912 529.715> 139 27<198.819 333.7> 443 20G<310.5 314> 513 100<165.202 243.798 342.202 420.798>
VStem: 154.5 100<523.702 602.298> 331.5 100<523.702 602.298>
LayerCount: 2
Fore
SplineSet
270 337 m 0
 253 295 221 224 199 176 c 0
 195 167 200 166 212 166 c 2
 329 166 l 2
 339 166 340 166 337 176 c 0
 330 203 293 306 282 337 c 0
 276 352 276 352 270 337 c 0
37 -3 m 0
 29 -3 31 19 37 21 c 0
 58 28 74.5888671875 34.3388671875 94 50 c 24
 109.844726562 62.783203125 116.27734375 73.6044921875 125 92 c 24
 173.797851562 194.907226562 193 243 241 360 c 0
 243 366 245.872070312 375.716796875 248 386 c 24
 250.559570312 398.369140625 252 417 253 418 c 0
 262 420 292 442 298 449 c 0
 306 458 309 463 312 463 c 0
 316 463 317 460 319 454 c 0
 367 323 397 232 444 107 c 0
 452 84 461 69 479 50 c 0
 491 37 507 25 524 21 c 0
 531 19 536 -3 524 -3 c 8
 486.508789062 -3 466 2 428 2 c 8
 387.393554688 2 357 -3 324 -3 c 8
 314.631835938 -3 319 20 325 21 c 0
 341 24 355.110351562 31.9873046875 365 48 c 24
 373.413085938 61.6201171875 370 76 367 89 c 0
 362 114 363 105 353 132 c 0
 351 138 348 139 334 139 c 2
 192 139 l 10
 185.381835938 139 184 136 180 127 c 0
 168 96 167.46484375 101.5546875 164 84 c 24
 161.506835938 71.3681640625 161 58 165 51 c 0
 176 34 194 24 207 21 c 0
 216 19 216 -3 207 -3 c 0
 167 -3 146.659179688 2 108 2 c 24
 80.2412109375 2 64 -3 37 -3 c 0
EndSplineSet
Refer: 72 168 S 1 0 0 1 470.5 19 2
Validated: 33
EndChar

StartChar: ae
Encoding: 230 230 1003
Width: 644
VWidth: 0
Flags: W
HStem: -3 26<0.254913 50.4259 139.25 199.09 420.731 577.555> -3 19<256.571 310.055> 188 31<232.985 330 405.033 518.46> 395 38<315.522 330> 408 28<206.602 234.8 413.732 564.628>
VStem: 330 75<30.2624 187.923 222.033 394.785>
LayerCount: 2
Fore
SplineSet
330 176 m 0x64
 330 183 328 188 314 188 c 2
 216 188 l 10
 205.936 188 200 182 195 173 c 0
 177 144 159 115 137 74 c 0
 117 38 150 26 176 20 c 0
 192 16 200 13 200 7 c 0
 200 2 191 -1 179 -1 c 0
 164 -1 125.937 1.41897 92 1 c 24
 62.7109 0.638672 38 -3 17 -3 c 0
 5 -3 -4 -1 -4 4 c 0
 -4 10 5 13 20 18 c 0
 44 25 72 51 92 83 c 0
 166 203 232 306 284 392 c 0
 288 397 281 402 272 403 c 1
 210 413 l 1
 198 417 201.42 435 210 435 c 16
 239 435 291.734 432.862 344 433 c 24xb4
 439.167 433.252 570 437 588 436 c 0
 593 436 599 435 600 430 c 0
 605 405 608 380 609 357 c 0
 609 353 603 351 599 351 c 0
 594 351 586 353 585 358 c 0
 580 373 575 383 569 390 c 0
 556 404 540 408 522 408 c 0
 489 408 451 408 431 408 c 0
 423 408 414 399 413 391 c 0
 412 385 408 361 407 343 c 0
 406 311 405 269 405 237 c 0
 405 230 405 222 412 222 c 0
 441 222 468 222 485 223 c 0
 498 224 508 225 516 232 c 0
 522 237 524 240 528 248 c 0
 529 251 539 259 543 259 c 0
 547 259 553 255 552 249 c 0
 548 215 550 192 552 158 c 0
 552 152 551 147 545 147 c 8
 535.862 147 528 157 527 162 c 0
 520 182 505 187 494 188 c 0
 465 189 448 189 422 189 c 0
 412 189 404 184 405 173 c 0
 405 133 406 113 407 75 c 0
 408 48 420 23 452 23 c 0
 455 23 514 23 524 23 c 0xac
 528 23 569 28 578 35 c 0
 591 44 601 66 607 77 c 0
 610 82 615.721 83.5233 622 83 c 24
 626.68 82.6104 632 80 631 75 c 0
 628 49 625 29 619 8 c 0
 618 3 616 -3 609 -3 c 8
 510.317 -3 427 2 356 1 c 8
 324.764 0.55957 314 -3 276 -3 c 0
 264 -3 256 -1 256 4 c 0
 256 10 263 13 279 16 c 0
 314 22 332 33 331 65 c 0
 330 101 330 148 330 176 c 0x64
319 383 m 0
 295 343 255 277 226 229 c 0
 220 220 223 219 235 219 c 2
 319 219 l 2
 329 219 330 219 330 229 c 0
 330 262 330 345 330 383 c 0
 330 391 330 395 328 395 c 0
 326 395 323 390 319 383 c 0
EndSplineSet
Validated: 33
Ligature2: "LATliga subtable" a e
EndChar

StartChar: ccedilla
Encoding: 231 231 160
Width: 429
VWidth: 0
Flags: W
HStem: -286.6 49<176.47 250.045> -14 9.40039<259.5 290.5> 427 31<184.191 329.172>
VStem: 12 83<132.261 317.163> 269.5 50<-218.312 -135.1>
LayerCount: 2
Fore
SplineSet
186.5 -141.599609375 m 0
 179.934570312 -144.225585938 159.631835938 -131.703125 171.5 -116.599609375 c 2
 259.5 -4.599609375 l 25
 290.5 -4.599609375 l 25
 251.5 -55.599609375 l 2
 244.754882812 -64.4208984375 253.56640625 -73.44140625 258.5 -75.599609375 c 0
 290.5 -89.599609375 319.5 -118.599609375 319.5 -151.599609375 c 0
 319.5 -231.599609375 230.5 -286.599609375 194.5 -286.599609375 c 0
 180.5 -286.599609375 175.61328125 -283.73046875 170.5 -274.599609375 c 24
 163.21875 -261.59765625 163.103515625 -251.109375 166.5 -236.599609375 c 24
 168.0546875 -229.95703125 174.93359375 -224.973632812 181.5 -227.599609375 c 0
 196.5 -233.599609375 208.5 -237.599609375 230.5 -237.599609375 c 0
 256.5 -237.599609375 269.5 -218.599609375 269.5 -192.599609375 c 0
 269.5 -156.599609375 237.5 -141.599609375 202.5 -139.599609375 c 0
 195.5 -139.599609375 191.5 -139.599609375 186.5 -141.599609375 c 0
263 458 m 20
 285 458 322 454 335 450 c 4
 346 446 380 441 392 437 c 4
 397 436 399 426 401 416 c 4
 403 395 405 377 406 340 c 4
 406 334 399 323 393 324 c 4
 385 325 373 330 371 346 c 5
 368 374 354 393 346 401 c 4
 332 415 289 427 247 427 c 4
 146 427 95 329 95 239 c 0
 95 133 154.209960938 24.955078125 261 21 c 16
 288 20 319 31 345 47 c 0
 371 62 379 86 383 99 c 0
 385 107 408 112 413 112 c 0
 422 112 421 102 420 94 c 0
 417 77 397 31 387 15 c 0
 380 2 297.817382812 -14 239 -14 c 16
 117 -14 12 94.2939453125 12 222 c 16
 12 357 128.635742188 458 263 458 c 20
EndSplineSet
Validated: 37
EndChar

StartChar: edieresis
Encoding: 235 235 164
Width: 421
VWidth: 0
Flags: W
HStem: -3 24<11.2984 48.2279> 3 36<164.786 334.559> 410 41<161.645 328.992> 429 21<22.3123 57.3167> 511.171 100<83.5494 162.146 260.549 339.146>
VStem: 72.8477 100<521.873 600.469> 79 75<45.5227 217.677 253 406.614> 249.848 100<521.873 600.469> 347 19<347.096 375.298>
LayerCount: 2
Fore
SplineSet
299.84765625 611.170898438 m 4x09
 324.84765625 611.170898438 349.84765625 586.170898438 349.84765625 561.170898438 c 4
 349.84765625 536.170898438 324.84765625 511.170898438 299.84765625 511.170898438 c 4
 274.84765625 511.170898438 249.84765625 536.170898438 249.84765625 561.170898438 c 4
 249.84765625 586.170898438 274.84765625 611.170898438 299.84765625 611.170898438 c 4x09
122.84765625 611.170898438 m 4
 147.84765625 611.170898438 172.84765625 586.170898438 172.84765625 561.170898438 c 4
 172.84765625 536.170898438 147.84765625 511.170898438 122.84765625 511.170898438 c 4
 97.84765625 511.170898438 72.84765625 536.170898438 72.84765625 561.170898438 c 4x0c
 72.84765625 586.170898438 97.84765625 611.170898438 122.84765625 611.170898438 c 4
257 216 m 0
 229 220 204.14453125 222.149414062 171 217 c 24
 161.735351562 215.560546875 154 212 154 200 c 0
 154 158 155 129 156 90 c 0
 157 62 169 39 199 39 c 0
 202 39 277 39 287 39 c 0
 290 39 326 44 335 51 c 0
 347 61 362 86 367 97 c 0
 370 103 375.549804688 104.268554688 382 104 c 24
 386.692382812 103.8046875 391 101 391 96 c 0
 388 69 380 32 374 10 c 0
 373 4 372 -2 365 -2 c 8
 270.209960938 -2 190 3 122 3 c 0x6a80
 88 3 15 -3 15 -3 c 0
 10 -3 9 20 15 21 c 0
 37 27 45.6494140625 28.9951171875 60 42 c 24
 72.01953125 52.892578125 79 62 79 79 c 0
 79 180 79 252 79 357 c 0
 79 376 78 399 70 407 c 0
 57 422 54 421 27 429 c 0
 21 430 18.8095703125 450 27 450 c 16x9a80
 56 450 76.400390625 447.900390625 108 448 c 24
 199.657226562 448.290039062 325 452 343 451 c 0
 347 451 354 450 355 445 c 0
 360 419 366 377 366 353 c 0
 366 349 359 347 355 347 c 0
 350 347 349 349 347 354 c 0
 342 369 334 385 327 392 c 0
 315 406 302 410 285 410 c 0
 252 410 198 410 179 410 c 0
 171 410 163 401 162 392 c 0
 161 386 157 358 156 339 c 0
 155 306 154 302 154 268 c 0x2a80
 154 261 155 253 161 253 c 0
 190 253 232 253 248 253 c 0
 259 253 270 256 278 263 c 0
 284 269 287 272 290 281 c 0
 292 284 301 294 304 294 c 0
 308 294 314 289 313 283 c 0
 310 248 311 217 313 182 c 0
 314 176 313 170 307 170 c 8
 296.79296875 170 291 185 289 189 c 0
 283 210 268 214 257 216 c 0
EndSplineSet
Validated: 33
EndChar

StartChar: icircumflex
Encoding: 238 238 167
Width: 321
VWidth: 0
Flags: W
HStem: -3 24<54.3203 98.3584 234.049 277.734> 429 23<63.6897 93.4601 236.74 267.915> 504 201
VStem: 60 212 128 75<45.4878 409.42>
LayerCount: 2
Fore
SplineSet
203 377 m 4xe8
 203 260 203 197 203 82 c 4
 203 67 205.591796875 55.38671875 217 45 c 28
 233.778320312 29.724609375 249 25 270 21 c 4
 282 18 282 -3 270 -3 c 4
 230 -3 207.828125 2 168 2 c 28
 126.224609375 2 99 -3 61 -3 c 4
 53 -3 49 18 61 21 c 4
 82 25 97.958984375 29.484375 115 45 c 28
 126.309570312 55.296875 128 67 128 82 c 4
 128 202 128 247 128 377 c 4
 128 390 121.50390625 396.762695312 112 405 c 28
 97.228515625 417.801757812 85 422 68 429 c 4
 61 432 62 452 68 452 c 4
 111 452 128.9921875 450 168 450 c 28
 205.05859375 450 222 452 263 452 c 4
 272 452 270 432 263 429 c 4
 246 422 231 417 217 404 c 4
 209 398 203 389 203 377 c 4xe8
EndSplineSet
Refer: 90 710 S 1 0 0 1 333 57 2
Validated: 1
EndChar

StartChar: idieresis
Encoding: 239 239 168
Width: 321
VWidth: 0
Flags: W
HStem: -3 24<54.3203 98.3584 234.049 277.734> 429 23<63.6897 93.4601 236.74 267.915> 512 100<39.2018 117.798 216.202 294.798>
VStem: 28.5 100<522.702 601.298> 128 75<45.4878 409.42> 205.5 100<522.702 601.298>
LayerCount: 2
Fore
SplineSet
255.5 612 m 4xe4
 280.5 612 305.5 587 305.5 562 c 4
 305.5 537 280.5 512 255.5 512 c 4
 230.5 512 205.5 537 205.5 562 c 4
 205.5 587 230.5 612 255.5 612 c 4xe4
78.5 612 m 4
 103.5 612 128.5 587 128.5 562 c 4
 128.5 537 103.5 512 78.5 512 c 4
 53.5 512 28.5 537 28.5 562 c 4xf4
 28.5 587 53.5 612 78.5 612 c 4
203 377 m 4xec
 203 260 203 197 203 82 c 4
 203 67 205.591796875 55.38671875 217 45 c 28
 233.778320312 29.724609375 249 25 270 21 c 4
 282 18 282 -3 270 -3 c 4
 230 -3 207.828125 2 168 2 c 28
 126.224609375 2 99 -3 61 -3 c 4
 53 -3 49 18 61 21 c 4
 82 25 97.958984375 29.484375 115 45 c 28
 126.309570312 55.296875 128 67 128 82 c 4
 128 202 128 247 128 377 c 4
 128 390 121.50390625 396.762695312 112 405 c 28
 97.228515625 417.801757812 85 422 68 429 c 4
 61 432 62 452 68 452 c 4
 111 452 128.9921875 450 168 450 c 28
 205.05859375 450 222 452 263 452 c 4
 272 452 270 432 263 429 c 4
 246 422 231 417 217 404 c 4
 209 398 203 389 203 377 c 4xec
EndSplineSet
Validated: 1
EndChar

StartChar: uacute
Encoding: 250 250 175
Width: 563
VWidth: 0
Flags: W
HStem: -13 35<238.389 374.945> 425 25<35.0211 68.4721 167.691 200.01 380.363 415.874 499.32 542.199> 489 215
VStem: 80 75<101.856 419.064> 221 178 431 44<89.4612 410.762>
LayerCount: 2
Fore
SplineSet
80 204 m 16
 80 245 80 343 80 372 c 0
 80 415 64 418 41 425 c 0
 33 427 29.21875 450 39 450 c 16
 71 450 92.060546875 448 126 448 c 24
 152.920898438 448 156 450 195 450 c 0
 203 450 203 428 195 426 c 0
 166 422 156 404 155 365 c 0
 153 305 155 220 155 185 c 8
 155 98.0791015625 215 22 307 22 c 0
 391 22 431 70 431 193 c 0
 431 223 431 323 431 350 c 4
 432 411 419 417 386 425 c 4
 377 428 376.852539062 451 387 451 c 20
 420 451 430.919921875 451 459 451 c 20
 490 451 508 452 540 452 c 12
 548.580078125 452 545 431 540 430 c 12
 509.432617188 423.88671875 484 412 482 375 c 4
 480 353 475 279 475 217 c 8
 475 102.85546875 439 -13 294 -13 c 0
 155 -13 80 85.1396484375 80 204 c 16
EndSplineSet
Refer: 622 769 S 1 0 0 1 433 32 2
Validated: 33
EndChar

StartChar: abreve
Encoding: 259 259 182
Width: 555
Flags: W
HStem: -3 24<32.5977 66.9577 182.452 212.952 498.912 529.715> 139 27<198.819 333.7> 443 20G<310.5 314> 480 55<222.618 329.382> 600 20G<179 189 363 373>
VStem: 169 32<566.396 619.922> 351 32<567.031 619.922>
LayerCount: 2
Fore
SplineSet
201 599 m 0
 214 577 216 535 276 535 c 0
 336 535 338 577 351 599 c 0
 356 608 358 620 368 620 c 0
 378 620 383 609 383 596 c 0
 383 532 346 480 276 480 c 0
 206 480 169 521 169 596 c 0
 169 609 174 620 184 620 c 0
 194 620 196 608 201 599 c 0
270 337 m 0
 253 295 221 224 199 176 c 0
 195 167 200 166 212 166 c 2
 329 166 l 2
 339 166 340 166 337 176 c 0
 330 203 293 306 282 337 c 0
 276 352 276 352 270 337 c 0
37 -3 m 0
 29 -3 31 19 37 21 c 0
 58 28 74.5889 34.3389 94 50 c 0
 109.8447 62.7832 116.2773 73.6045 125 92 c 0
 173.7979 194.907 193 243 241 360 c 0
 243 366 245.87207 375.7168 248 386 c 0
 250.55957 398.3691 252 417 253 418 c 0
 262 420 292 442 298 449 c 0
 306 458 309 463 312 463 c 0
 316 463 317 460 319 454 c 2
 444 107 l 2
 452 84 461 69 479 50 c 0
 491 37 507 25 524 21 c 0
 531 19 536 -3 524 -3 c 0
 486.5088 -3 466 2 428 2 c 0
 387.3936 2 357 -3 324 -3 c 0
 314.63184 -3 319 20 325 21 c 0
 341 24 355.1104 31.9873 365 48 c 0
 373.41309 61.6201 370 76 367 89 c 0
 362 114 363 105 353 132 c 0
 351 138 348 139 334 139 c 2
 192 139 l 2
 185.38184 139 184 136 180 127 c 0
 168 96 167.4648 101.5547 164 84 c 0
 161.50684 71.3682 161 58 165 51 c 0
 176 34 194 24 207 21 c 0
 216 19 216 -3 207 -3 c 0
 167 -3 146.6592 2 108 2 c 0
 80.2412 2 64 -3 37 -3 c 0
EndSplineSet
Validated: 33
EndChar

StartChar: ccaron
Encoding: 269 269 192
Width: 429
Flags: W
HStem: -14 35<199.694 328.613> 427 31<184.191 329.172>
VStem: 12 83<132.261 317.163>
LayerCount: 2
Fore
SplineSet
193 701 m 2
 263 605 l 1
 332 701 l 2
 337.38086 708.48633 349 719 361 719 c 0
 369 719 374.9023 709.58301 369 698 c 2
 369 698 316 590.301 291 547 c 0
 280.5 528.8135 270 518 263 518 c 0
 256 518 245.5 528.8135 235 547 c 0
 213.5 584.2393 157 698 157 698 c 2
 151.09766 709.583 157 719 165 719 c 0
 177 719 187.168 708.998 193 701 c 2
263 458 m 0
 285 458 322 454 335 450 c 0
 346 446 380 441 392 437 c 0
 397 436 399 426 401 416 c 1
 403 395 405 377 406 340 c 0
 406 334 399 323 393 324 c 0
 385 325 373 330 371 346 c 0
 368 374 354 393 346 401 c 0
 332 415 289 427 247 427 c 0
 146 427 95 329 95 239 c 0
 95 133 154.21 24.955 261 21 c 0
 288 20 319 31 345 47 c 0
 371 62 379 86 383 99 c 0
 385 107 408 112 413 112 c 0
 422 112 421 102 420 94 c 0
 417 77 397 31 387 15 c 0
 380 2 297.8174 -14 239 -14 c 0
 117 -14 12 94.294 12 222 c 0
 12 357 128.636 458 263 458 c 0
EndSplineSet
Validated: 33
EndChar

StartChar: ecaron
Encoding: 283 283 204
Width: 421
Flags: W
HStem: -3 24<11.2984 48.2279> 3 36<164.786 334.559> 410 41<161.645 328.992> 429 21<22.3123 57.3167> 685 20G<104 114 298 308>
VStem: 79 75<45.5227 217.677 253 406.614> 347 19<347.096 375.298>
LayerCount: 2
Fore
SplineSet
136 687 m 2x0e
 206 591 l 1
 275 687 l 2
 280.38086 694.48633 292 705 304 705 c 0
 312 705 317.9023 695.58301 312 684 c 2
 312 684 259 576.301 234 533 c 0
 223.5 514.8135 213 504 206 504 c 0
 199 504 188.5 514.8135 178 533 c 0
 156.5 570.2393 100 684 100 684 c 2
 94.09766 695.583 100 705 108 705 c 0
 120 705 130.168 694.998 136 687 c 2x0e
257 216 m 0
 229 220 204.1445 222.14941 171 217 c 0
 161.73535 215.56055 154 212 154 200 c 0
 154 158 155 129 156 90 c 0
 157 62 169 39 199 39 c 2
 287 39 l 2
 290 39 326 44 335 51 c 0
 347 61 362 86 367 97 c 0
 370 103 375.5498 104.26855 382 104 c 0
 386.69238 103.804688 391 101 391 96 c 0
 388 69 380 32 374 10 c 0
 373 4 372 -2 365 -2 c 0
 270.21 -2 190 3 122 3 c 0x6e
 88 3 15 -3 15 -3 c 2
 10 -3 9 20 15 21 c 0
 37 27 45.6494 28.99512 60 42 c 0
 72.0195 52.8926 79 62 79 79 c 2
 79 357 l 2
 79 376 78 399 70 407 c 0
 57 422 54 421 27 429 c 0
 21 430 18.80957 450 27 450 c 0x9e
 56 450 76.4004 447.90039 108 448 c 0
 199.6572 448.290039 325 452 343 451 c 0
 347 451 354 450 355 445 c 0
 360 419 366 377 366 353 c 0
 366 349 359 347 355 347 c 0
 350 347 349 349 347 354 c 0
 342 369 334 385 327 392 c 0
 315 406 302 410 285 410 c 2
 179 410 l 2x2e
 171 410 163 401 162 392 c 0
 161 386 157 358 156 339 c 0
 155 306 154 302 154 268 c 0
 154 261 155 253 161 253 c 2
 248 253 l 2
 259 253 270 256 278 263 c 0
 284 269 287 272 290 281 c 0
 292 284 301 294 304 294 c 0
 308 294 314 289 313 283 c 0
 310 248 311 217 313 182 c 0
 314 176 313 170 307 170 c 0
 296.793 170 291 185 289 189 c 0
 283 210 268 214 257 216 c 0
EndSplineSet
Validated: 33
EndChar

StartChar: gbreve
Encoding: 287 287 208
Width: 507
Flags: W
HStem: -12 36<204.672 351.615> 178 34<300.377 373.835 453.411 491.445> 422 32<207.383 359.691> 514 55<236.618 343.382> 634 20G<193 203 377 387>
VStem: 20 84<132.931 310.158> 183 32<600.396 653.922> 365 32<601.031 653.922> 381 75<45.6252 162.706> 381 62<52.1408 156.612>
LayerCount: 2
Fore
SplineSet
215 633 m 0xff
 228 611 230 569 290 569 c 0
 350 569 352 611 365 633 c 0
 370 642 372 654 382 654 c 0
 392 654 397 643 397 630 c 0
 397 566 360 514 290 514 c 0
 220 514 183 555 183 630 c 0
 183 643 188 654 198 654 c 0
 208 654 210 642 215 633 c 0xff
272 24 m 0
 307 24 348 39 360 46 c 0
 377 57 381 78 381 102 c 0xfe80
 381 123 385 149 379 157 c 0
 366 172 326 178 312 178 c 0
 305 178 300 194 298 204 c 0
 298 207 298 212 301 212 c 0
 341.5771 212 367 209 405 209 c 0
 435.4297 209 458 211 483 211 c 0
 487.21875 211 492 209 492 205 c 0
 492 194.1221 490 180 485 178 c 0
 465 172 448 163 446 145 c 0
 443 117 442.66211 101.7129 443 74 c 0xfe40
 443.0556641 69.43555 444.67773 66.92969 447 63 c 0
 449.82031 58.22754 456 55 456 52 c 0xfe80
 456 48 451.62988 42.03613 446 39 c 0
 416.3398 23.0039 399.3525 13.4287 367 4 c 0
 330.5596 -6.6201 297 -12 271 -12 c 0
 137.169 -12 20 88.169 20 222 c 0
 20 357 151.167 454 290 454 c 0
 341 454 373.2998 450 404 440 c 0
 416.7861 435.83496 426 432 429 420 c 0
 436.10059 391.5996 442 360 442 342 c 0
 442 335 437 328 431 328 c 0
 417.1514 328 404 339 401 347 c 0
 396 361 389 379 378 393 c 0
 369 403 341 423 275 422 c 0
 177.0469 420.51562 104 342 104 238 c 0
 104 130 167 24 272 24 c 0
EndSplineSet
Validated: 33
EndChar

StartChar: Hbar
Encoding: 294 294 987
Width: 862
VWidth: 0
Flags: W
HStem: -5 29<48.6924 120.801 261.526 332.308 534.692 605.618 731.921 802.308> 304 46<221 634.999> 456 36<62.0087 141 221 634 715 792.504> 622 31<56.0745 127.701 246.842 320.926 537.074 608.968 730.262 799.926>
VStem: 141 80<53.9455 304.091 349.862 456 492 603.314> 635 80<44.8548 304.091 349.728 456 492 603.445>
LayerCount: 2
Fore
SplineSet
715 100 m 1
 716 51 720 33 770 24 c 0
 793 20 803 15 803 6 c 0
 803 -2 791 -5 774 -5 c 0
 720 -5 711 0 670 0 c 0
 628 0 617 -5 563 -5 c 0
 546 -5 534 -2 534 6 c 0
 534 15 544 20 567 24 c 0
 609 32 635 54 635 97 c 1
 637 173 635 238 635 297 c 0
 635 304 633 303.981 630 304 c 0
 473 305 387 305 226 304 c 0
 221 303.969 221 301 221 293 c 0
 221 235 222 183 222 106 c 0
 222 64 254 32 300 24 c 0
 323 20 333 15 333 6 c 0
 333 -2 321 -5 304 -5 c 0
 250 -5 233 0 187 0 c 0
 144 0 131 -5 77 -5 c 0
 60 -5 48 -2 48 6 c 0
 48 15 58 20 81 24 c 0
 131 33 141 51 141 99 c 2
 141 456 l 1
 76 456 l 2
 67 456 62 468 62 474 c 0
 62 483 74 492 86 492 c 2
 141 492 l 1
 141 551 l 2
 141 597 138 613 88 622 c 0
 65 626 55 633 55 642 c 0
 55 650 67 653 84 653 c 0
 138 653 147 650 187 650 c 0
 228 650 239 653 293 653 c 0
 310 653 322 650 322 642 c 0
 322 633 312 626 289 622 c 0
 239 613 221 590 221 551 c 2
 221 492 l 1
 224 492 l 1
 634 492 l 1
 634 511 634 531 634 552 c 0
 634 588 619 613 569 622 c 0
 546 626 536 633 536 642 c 0
 536 650 548 653 565 653 c 0
 619 653 636 650 681 650 c 0
 717 650 718 653 772 653 c 0
 789 653 801 650 801 642 c 0
 801 633 791 626 768 622 c 0
 718 613 715 590 715 552 c 2
 715 492 l 1
 782 492 l 2
 789 492 798 485 795 478 c 0
 788 465 779 456 764 456 c 2
 715 456 l 1
 715 100 l 1
634 456 m 1
 222 456 l 1
 221 456 l 1
 221 359 l 2
 221 351 229 350 235 350 c 4
 388 347 476 347 628 350 c 4
 632.999 350.099 635 353 635 362 c 0
 635 395 635 423 634 456 c 1
EndSplineSet
Validated: 33
EndChar

StartChar: itilde
Encoding: 297 297 216
Width: 245
Flags: W
HStem: -3 24<54.3203 98.3584 234.049 277.734> 429 23<63.6897 93.4601 236.74 267.915> 515 66<125.585 260.262> 528 67<97.4632 232.915>
VStem: 128 75<45.4878 409.42>
LayerCount: 2
Fore
SplineSet
46 514 m 0xd8
 71.4043 550.2803 113 595 133 595 c 0xd8
 153 595 215 581 240 581 c 0
 255 581 267.0928 582.18652 294 617 c 0
 299.25879 623.80469 315.8486 604.4961 312 599 c 0
 294.5576 574.0898 248 515 228 515 c 0xe8
 208 515 141 528 116 528 c 0
 101 528 81.5059 512.5059 61 492 c 0
 56.0498 487.0498 40.2637 505.8076 46 514 c 0xd8
203 377 m 2
 203 82 l 2
 203 67 205.5918 55.3867 217 45 c 0
 233.7783 29.7246 249 25 270 21 c 0
 282 18 282 -3 270 -3 c 0
 230 -3 207.8281 2 168 2 c 0
 126.2246 2 99 -3 61 -3 c 0
 53 -3 49 18 61 21 c 0
 82 25 97.959 29.48438 115 45 c 0
 126.3096 55.2969 128 67 128 82 c 2
 128 377 l 2
 128 390 121.50391 396.7627 112 405 c 0
 97.2285 417.8018 85 422 68 429 c 0
 61 432 62 452 68 452 c 0
 111 452 128.9922 450 168 450 c 0
 205.0586 450 222 452 263 452 c 0
 272 452 270 432 263 429 c 0
 246 422 231 417 217 404 c 1
 209 398 203 389 203 377 c 2
EndSplineSet
Validated: 1
EndChar

StartChar: imacron
Encoding: 299 299 218
Width: 245
Flags: W
HStem: -3 24<54.3203 98.3584 234.049 277.734> 429 23<63.6897 93.4601 236.74 267.915> 529 50<39.2358 290.448>
VStem: 128 75<45.4878 409.42>
LayerCount: 2
Fore
SplineSet
60 579 m 2
 283 579 l 2
 290.45117 579 298.5234 572.01074 296 565 c 0
 289.72461 547.5674 283.5283 529 265 529 c 2
 50 529 l 2
 42.80859 529 36 535 36 541 c 0
 36 550 42.47168 579 60 579 c 2
203 377 m 2
 203 82 l 2
 203 67 205.5918 55.3867 217 45 c 0
 233.7783 29.7246 249 25 270 21 c 0
 282 18 282 -3 270 -3 c 0
 230 -3 207.8281 2 168 2 c 0
 126.2246 2 99 -3 61 -3 c 0
 53 -3 49 18 61 21 c 0
 82 25 97.959 29.48438 115 45 c 0
 126.3096 55.2969 128 67 128 82 c 2
 128 377 l 2
 128 390 121.50391 396.7627 112 405 c 0
 97.2285 417.8018 85 422 68 429 c 0
 61 432 62 452 68 452 c 0
 111 452 128.9922 450 168 450 c 0
 205.0586 450 222 452 263 452 c 0
 272 452 270 432 263 429 c 0
 246 422 231 417 217 404 c 1
 209 398 203 389 203 377 c 2
EndSplineSet
Validated: 1
EndChar

StartChar: ibreve
Encoding: 301 301 220
Width: 245
Flags: W
HStem: -3 24<54.3203 98.3584 234.049 277.734> 429 23<63.6897 93.4601 236.74 267.915> 480 55<112.618 219.382> 600 20G<69 79 253 263>
VStem: 59 32<566.396 619.922> 128 75<45.4878 409.42> 241 32<567.031 619.922>
LayerCount: 2
Fore
SplineSet
91 599 m 0
 104 577 106 535 166 535 c 0
 226 535 228 577 241 599 c 0
 246 608 248 620 258 620 c 0
 268 620 273 609 273 596 c 0
 273 532 236 480 166 480 c 0
 96 480 59 521 59 596 c 0
 59 609 64 620 74 620 c 0
 84 620 86 608 91 599 c 0
203 377 m 2
 203 82 l 2
 203 67 205.5918 55.3867 217 45 c 0
 233.7783 29.7246 249 25 270 21 c 0
 282 18 282 -3 270 -3 c 0
 230 -3 207.8281 2 168 2 c 0
 126.2246 2 99 -3 61 -3 c 0
 53 -3 49 18 61 21 c 0
 82 25 97.959 29.48438 115 45 c 0
 126.3096 55.2969 128 67 128 82 c 2
 128 377 l 2
 128 390 121.50391 396.7627 112 405 c 0
 97.2285 417.8018 85 422 68 429 c 0
 61 432 62 452 68 452 c 0
 111 452 128.9922 450 168 450 c 0
 205.0586 450 222 452 263 452 c 0
 272 452 270 432 263 429 c 0
 246 422 231 417 217 404 c 1
 209 398 203 389 203 377 c 2
EndSplineSet
Validated: 1
EndChar

StartChar: iogonek
Encoding: 303 303 222
Width: 321
Flags: W
HStem: -287.833 66<145.851 215.939> 2 15.167<54.3203 77.6587 194.5 194.5 254.351 277.734> 429 23<63.6897 93.4601 236.74 267.915>
VStem: 56.5 74<-206.85 -109.317> 128 75<45.4878 409.42>
LayerCount: 2
Fore
SplineSet
194.5 17.167 m 1xf0
 220.5 17.167 l 1
 152.5 -39.833 130.5 -93.833 130.5 -152.833 c 0
 130.5 -196.833 156.5 -221.833 190.5 -221.833 c 0
 218.5176 -221.833 236.5 -208.833 245.5 -201.833 c 0
 249.63086 -198.62011 258.5 -201.833 257.5 -207.833 c 0
 255.52734 -219.6699 248.2002 -231.0166 241.5 -238.833 c 0
 235.5 -245.833 207.5 -287.833 157.5 -287.833 c 0
 99.8311 -287.833 56.5 -253.833 56.5 -179.833 c 0
 56.5 -126.833 107.5 -39.833 194.5 17.167 c 1xf0
203 377 m 2xe8
 203 82 l 2
 203 67 205.5918 55.3867 217 45 c 0
 233.7783 29.7246 249 25 270 21 c 0
 282 18 282 -3 270 -3 c 0
 230 -3 207.8281 2 168 2 c 0
 126.2246 2 99 -3 61 -3 c 0
 53 -3 49 18 61 21 c 0
 82 25 97.959 29.48438 115 45 c 0
 126.3096 55.2969 128 67 128 82 c 2
 128 377 l 2
 128 390 121.50391 396.7627 112 405 c 0
 97.2285 417.8018 85 422 68 429 c 0
 61 432 62 452 68 452 c 0
 111 452 128.9922 450 168 450 c 0
 205.0586 450 222 452 263 452 c 0
 272 452 270 432 263 429 c 0
 246 422 231 417 217 404 c 1
 209 398 203 389 203 377 c 2xe8
EndSplineSet
Validated: 5
EndChar

StartChar: kgreenlandic
Encoding: 312 312 1021
Width: 515
VWidth: 0
Flags: W
HStem: -3 24<22.155 67.2324 166.368 210.719 266.386 298.473 438.569 480.489> 382 24<416.747 459.196>
VStem: 82 68<34.5647 205.132 223.955 362.215>
LayerCount: 2
Fore
SplineSet
150 231 m 0
 150 224 153 223 156 224 c 24
 167 226 174 229 183 236 c 24
 243 280 320 337 332 353 c 0
 339 363 321 370 307 378 c 8
 299 383 299 402 307 402 c 8
 328 402 333 400 361 400 c 8
 397 400 427 403 454 406 c 0
 463 407 462 385 454 382 c 0
 430 374 408 369 390 358 c 0
 377 350 298 292 241 247 c 24
 236 243 230 238 234 233 c 24
 291 166 378 83 391 70 c 0
 413 49 443 24 477 17 c 0
 485 15 486 -8 477 -7 c 0
 440 -3 397 1 346 2 c 24
 317 3 310 -3 271 -3 c 0
 262 -3 262 20 271 21 c 0
 300 25 315 45 302 60 c 0
 297 65 218 152 160 205 c 24
 157 208 150 199 150 199 c 0
 151 162 151 122 152 77 c 0
 152 61 154 46 165 34 c 0
 174 24 199 25 206 21 c 8
 214 16 215 -3 206 -3 c 0
 167 -3 152 2 117 2 c 0
 82 2 66 -3 27 -3 c 0
 18 -3 18 16 27 21 c 0
 34 25 57 22 69 34 c 8
 80 46 82 58 82 74 c 0
 82 134 83 266 81 316 c 0
 80 345 63 363 42 379 c 0
 35 384 36 399 44 400 c 1
 98 402 104 405 143 414 c 1
 153 415 158 410 157 400 c 0
 153 369 151 353 151 323 c 0
 150 272 150 251 150 231 c 0
EndSplineSet
Validated: 33
EndChar

StartChar: lacute
Encoding: 314 314 228
Width: 444
Flags: W
HStem: -1 22<19.3836 56.1625> 2 30<175.271 350.335> 428 24<31.3807 69.0295 192.197 246.501>
VStem: 89 75<40.2419 405.613>
LayerCount: 2
Fore
SplineSet
134 535.16 m 0x30
 128.60938 527.68148 116 513.16 107 513.16 c 0
 97.78027 513.16 94 517.16 94 526.16 c 0
 94 541.16 166 667.16 187 701.16 c 0
 198.085 719.1073 215.4961 728.4256 238 728.16 c 0
 255.1768 727.958828 272 714.16 272 700.16 c 0
 272 681.16 214 646.16 134 535.16 c 0x30
242 429 m 0
 214 421 190 421 177 406 c 0
 169 398 164 373 164 353 c 2
 164 86 l 2
 164 58 172 32 218 32 c 2
 314 32 l 2
 318 32 342 38 354 50 c 0
 375 71 383 89 395 114 c 0
 398 119 412 122 423 121 c 0
 428 121 433 117 432 112 c 0
 422 76 413 39 410 10 c 0
 410 4 402 -2 395 -2 c 0
 291 -2 199 2 129 2 c 0x70
 94 2 23 -1 23 -1 c 2
 18 -1 17 20 23 21 c 0xb0
 46 27 55 28 69 42 c 0
 82 55 89 66 89 84 c 2
 89 354 l 2
 89 374 87 398 80 406 c 0
 66 421 63 420 36 428 c 0
 30 429 27 452 36 452 c 0
 65 452 82 450 112 450 c 0
 163 450 224 454 242 453 c 0
 252 453 248 430 242 429 c 0
EndSplineSet
Validated: 33
EndChar

StartChar: ldot
Encoding: 320 320 234
Width: 480
Flags: W
HStem: -1 22<19.3836 56.1625> 2 30<175.271 350.335> 205 101<281.143 361.857> 428 24<31.3807 69.0295 192.197 246.501>
VStem: 89 75<40.2419 405.613> 272 99<213.635 297.365>
LayerCount: 2
Fore
SplineSet
321.5 306 m 0x3c
 348.8018 306 371 283.3525 371 255.5 c 0
 371 227.6475 348.8018 205 321.5 205 c 0
 294.1982 205 272 227.6475 272 255.5 c 0
 272 283.3525 294.1982 306 321.5 306 c 0x3c
242 429 m 0
 214 421 190 421 177 406 c 0
 169 398 164 373 164 353 c 2
 164 86 l 2
 164 58 172 32 218 32 c 2
 314 32 l 2
 318 32 342 38 354 50 c 0
 375 71 383 89 395 114 c 0
 398 119 412 122 423 121 c 0
 428 121 433 117 432 112 c 0
 422 76 413 39 410 10 c 0
 410 4 402 -2 395 -2 c 0
 291 -2 199 2 129 2 c 0x7c
 94 2 23 -1 23 -1 c 2
 18 -1 17 20 23 21 c 0xbc
 46 27 55 28 69 42 c 0
 82 55 89 66 89 84 c 2
 89 354 l 2
 89 374 87 398 80 406 c 0
 66 421 63 420 36 428 c 0
 30 429 27 452 36 452 c 0
 65 452 82 450 112 450 c 0
 163 450 224 454 242 453 c 0
 252 453 248 430 242 429 c 0
EndSplineSet
Validated: 33
Ligature2: "'liga' Standard Ligatures lookup 9 subtable" l.CAT periodcentered
LCarets2: 1 0 
EndChar

StartChar: omacron
Encoding: 333 333 242
Width: 605
Flags: W
HStem: -15 37<242.335 386.997> 424 32<229.322 364.877> 529 50<175.236 426.448>
VStem: 66 85<119.755 310.96> 468 84<121.475 314.94>
LayerCount: 2
Fore
SplineSet
196 579 m 2
 419 579 l 2
 426.45117 579 434.5234 572.01074 432 565 c 0
 425.72461 547.5674 419.5283 529 401 529 c 2
 186 529 l 2
 178.80859 529 172 535 172 541 c 0
 172 550 178.47168 579 196 579 c 2
297 424 m 0
 185 424 151 327 151 232 c 0
 151 115 207 22 319 22 c 0
 434 22 468 133 468 212 c 0
 468 313 417 424 297 424 c 0
66 217 m 0
 66 340 175 456 303 456 c 0
 436 456 552 357 552 221 c 0
 552 98 467 -15 303 -15 c 0
 170 -15 66 88 66 217 c 0
EndSplineSet
Validated: 1
EndChar

StartChar: obreve
Encoding: 335 335 244
Width: 605
Flags: W
HStem: -15 37<242.335 386.997> 424 32<229.322 364.877> 480 55<248.618 355.382> 600 20G<205 215 389 399>
VStem: 66 85<119.755 310.96> 195 32<566.396 619.922> 377 32<567.031 619.922> 468 84<121.475 314.94>
LayerCount: 2
Fore
SplineSet
227 599 m 0
 240 577 242 535 302 535 c 0
 362 535 364 577 377 599 c 0
 382 608 384 620 394 620 c 0
 404 620 409 609 409 596 c 0
 409 532 372 480 302 480 c 0
 232 480 195 521 195 596 c 0
 195 609 200 620 210 620 c 0
 220 620 222 608 227 599 c 0
297 424 m 0
 185 424 151 327 151 232 c 0
 151 115 207 22 319 22 c 0
 434 22 468 133 468 212 c 0
 468 313 417 424 297 424 c 0
66 217 m 0
 66 340 175 456 303 456 c 0
 436 456 552 357 552 221 c 0
 552 98 467 -15 303 -15 c 0
 170 -15 66 88 66 217 c 0
EndSplineSet
Validated: 1
EndChar

StartChar: rcommaaccent
Encoding: 343 343 250
Width: 547
Flags: W
HStem: -267 21<227.576 255.712> -138 88<221.482 289.02> -14 35<429.98 499.568> -4 25<14.438 48.7443 199.518 228.809> 424 29<25.5276 65.644 166.038 261.371>
VStem: 82 75<44.9388 203.042 233.012 401.614> 291.5 53.5<-214.477 -141.127> 294 84<269.317 397.487>
LayerCount: 2
Fore
SplineSet
260.5 -138 m 0xce
 238 -133 211 -115.5 211 -93.5 c 0
 211 -69.5 228 -50 257 -50 c 0
 305 -50 345 -91 345 -147 c 0
 345 -211 294 -256.5 244 -267 c 0
 220.4922 -271.93652 217.8799 -253.2227 238 -246 c 0
 277 -232 291.5 -194.5 291.5 -166.5 c 0
 291.5 -149.5 279.207 -142.1572 260.5 -138 c 0xce
157 258 m 0
 158 231 169 233 190 233 c 0
 231 233 245 241 263 253 c 0
 286 267 294 293 294 334 c 0xcd
 294 373 282 424 204 424 c 0
 166 424 161 407 160 386 c 0
 158 336 156 313 157 258 c 0
157 189 m 0
 158 149 159 118 160 81 c 0
 161 53 181 36 225 25 c 0
 231 23 232 -4 225 -4 c 0
 211 -4 166.5127 2 129 2 c 0
 85.2578 2 36 -4 17 -4 c 0
 11 -4 11 19 17 21 c 0
 37 26 47.9561 30.17188 62 44 c 0
 74.6777 56.4824 82 68 82 85 c 2
 82 352 l 2
 82 371 80 394 73 402 c 0
 59 417 57 418 30 425 c 0
 24 427 19.2422 450 29 450 c 0
 58 450 84.4902 447 120 447 c 0
 146 447 164 453 204 453 c 0
 305 453 378 410 378 335 c 0
 378 304 354 261 343 251 c 0
 329 237 312 226 303 222 c 0
 300 221 300 220 303 216 c 0
 346 151 364 102 427 41 c 0
 455 13 469 22 502 21 c 0xdd
 509 21 506 5 500 1 c 0
 491 -5 468 -14 451 -14 c 0xed
 411 -14 365 -6 340 24 c 0
 307 65 299 84 252 161 c 0
 244 173 236.1123 181.0273 222 188 c 0
 202.0674 197.84961 180 202 167 203 c 0
 160 204 157 198 157 189 c 0
EndSplineSet
Validated: 33
EndChar

StartChar: scircumflex
Encoding: 349 349 256
Width: 373
Flags: W
HStem: -11 35<115.496 225.454> 423 35<143.458 252.654>
VStem: 53 74<318.853 396.396> 247 84<53.416 148.023> 288 32<337.527 385.485>
LayerCount: 2
Fore
SplineSet
135 536 m 2xe0
 129.16797 528.00195 119 518 107 518 c 0
 99 518 93.0977 527.41699 99 539 c 2
 99 539 155.5 652.761 177 690 c 0
 187.5 708.1865 198 719 205 719 c 0
 212 719 222.5 708.1865 233 690 c 0
 258 646.6992 311 539 311 539 c 2
 316.90234 527.417 311 518 303 518 c 0
 291 518 279.3809 528.5137 274 536 c 2
 205 632 l 1
 135 536 l 2xe0
169 24 m 0
 231 24 247 57 247 99 c 0xf0
 247 144 207 165 148 203 c 0
 96 236 53 285 53 340 c 0
 53 382 102 458 205 458 c 0
 253 458 281 443 296 441 c 0
 303.67383 439.97656 308 432 309 426 c 0
 314 402 320 376 320 352 c 0
 320 346 316 335 312 335 c 0
 308 335 290 342 288 352 c 0xe8
 270 415 221 423 196 423 c 0
 149 423 127 402 127 364 c 0
 127 320 184 289 221 265 c 0
 260 240 331 190 331 120 c 0xf0
 331 65 285 -11 172 -11 c 0
 118 -11 89 2 64 7 c 0
 53 9 55 12 53 15 c 0
 45 31 31 85 30 110 c 0
 30 116 42 121 50 121 c 0
 58 121 90 24 169 24 c 0
EndSplineSet
Validated: 1
EndChar

StartChar: uni0163
Encoding: 355 355 262
Width: 489
Flags: W
HStem: -274.6 49<165.97 239.545> -3 25<121.73 164.086 296.914 339.703> 4 3.4<249 269.041> 406 41<72.246 180.16 268.66 420.189>
VStem: 23 34<358.276 395.937> 193 75<46.4591 403.896> 259 50<-206.312 -123.1> 424 28<347.656 398.928>
LayerCount: 2
Fore
SplineSet
176 -129.6 m 0xbb
 169.43457 -132.22598 149.1318 -119.70352 161 -104.6 c 2
 249 7.4 l 1
 280 7.4 l 1
 241 -43.6 l 2
 234.25488 -52.42129 243.06641 -61.4418 248 -63.6 c 0
 280 -77.6 309 -106.6 309 -139.6 c 0
 309 -219.6 220 -274.6 184 -274.6 c 0
 170 -274.6 165.1133 -271.73086 160 -262.6 c 0
 152.71875 -249.598 152.60352 -239.1098 156 -224.6 c 0
 157.55469 -217.95742 164.43359 -212.974 171 -215.6 c 0
 186 -221.6 198 -225.6 220 -225.6 c 0
 246 -225.6 259 -206.6 259 -180.6 c 0
 259 -144.6 227 -129.6 192 -127.6 c 0
 185 -127.6 181 -127.6 176 -129.6 c 0xbb
377 406 m 0
 342 406 291 405 279 404 c 0
 270 403 268 387 268 374 c 2
 268 81 l 2
 268 66 270.21777 55.7871 281 46 c 0
 297.5391 30.9883 312 26 333 22 c 0
 344 19 343 -3 333 -3 c 0xdd
 294 -3 269.041 4 228 4 c 0xbd
 188.9043 4 165 -3 128 -3 c 0
 120 -3 117 19 128 22 c 0
 149 26 163.4609 30.98828 180 46 c 0
 190.7822 55.78711 193 66 193 81 c 2
 193 374 l 2xdd
 193 386 192 402 181 404 c 0
 163 407 150 406 107 406 c 0
 86 406 67 395 57 378 c 0
 53 370 35 350 25 350 c 0
 14 350 19 367 23 376 c 0
 36 402 36 438 40 467 c 0
 42 482 50 482 53 482 c 0
 57 482 68 468 72 461 c 0
 77 451 98 447 116 447 c 2
 387 447 l 2
 408 447 427 447 438 460 c 0
 446 468 458 472 462 472 c 0
 465 472 472 466 469 460 c 0
 459 441 455 396 452 366 c 0
 451.12793 357.2793 448 346 440 347 c 0
 432 348 426 364 424 370 c 0
 420 387 421 406 377 406 c 0
EndSplineSet
Validated: 37
EndChar

StartChar: umacron
Encoding: 363 363 268
Width: 563
Flags: W
HStem: -13 35<238.389 374.945> 425 25<35.0211 68.4721 167.691 200.01 380.363 415.874 499.32 542.199> 511 50<166.236 417.448>
VStem: 80 75<101.856 419.064> 431 44<89.461 410.762>
LayerCount: 2
Fore
SplineSet
187 561 m 2
 410 561 l 2
 417.45117 561 425.5234 554.01074 423 547 c 0
 416.72461 529.5674 410.5283 511 392 511 c 2
 177 511 l 2
 169.80859 511 163 517 163 523 c 0
 163 532 169.47168 561 187 561 c 2
80 204 m 2
 80 372 l 2
 80 415 64 418 41 425 c 0
 33 427 29.2188 450 39 450 c 0
 71 450 92.0605 448 126 448 c 0
 152.9209 448 156 450 195 450 c 0
 203 450 203 428 195 426 c 0
 166 422 156 404 155 365 c 0
 153 305 155 220 155 185 c 0
 155 98.0791 215 22 307 22 c 0
 391 22 431 70 431 193 c 2
 431 350 l 1
 432 411 419 417 386 425 c 0
 377 428 376.85254 451 387 451 c 2
 459 451 l 2
 490 451 508 452 540 452 c 0
 548.58008 452 545 431 540 430 c 0
 509.4326 423.88672 484 412 482 375 c 0
 480 353 475 279 475 217 c 0
 475 102.855 439 -13 294 -13 c 0
 155 -13 80 85.1396 80 204 c 2
EndSplineSet
Validated: 33
EndChar

StartChar: uogonek
Encoding: 371 371 276
Width: 563
Flags: W
HStem: -286.833 66<326.351 396.439> -13 31.167<249.324 368.114 375 383.453> 425 25<35.0211 68.4721 167.691 200.01 380.363 415.874 499.32 542.199>
VStem: 80 75<101.856 419.064> 237 74<-205.85 -108.317> 431 44<89.461 410.762>
LayerCount: 2
Fore
SplineSet
375 18.167 m 1
 401 18.167 l 1
 333 -38.833 311 -92.833 311 -151.833 c 0
 311 -195.833 337 -220.833 371 -220.833 c 0
 399.0176 -220.833 417 -207.833 426 -200.833 c 0
 430.13086 -197.62011 439 -200.833 438 -206.833 c 0
 436.02734 -218.6699 428.7002 -230.0166 422 -237.833 c 0
 416 -244.833 388 -286.833 338 -286.833 c 0
 280.3311 -286.833 237 -252.833 237 -178.833 c 0
 237 -125.833 288 -38.833 375 18.167 c 1
80 204 m 2
 80 372 l 2
 80 415 64 418 41 425 c 0
 33 427 29.2188 450 39 450 c 0
 71 450 92.0605 448 126 448 c 0
 152.9209 448 156 450 195 450 c 0
 203 450 203 428 195 426 c 0
 166 422 156 404 155 365 c 0
 153 305 155 220 155 185 c 0
 155 98.0791 215 22 307 22 c 0
 391 22 431 70 431 193 c 2
 431 350 l 1
 432 411 419 417 386 425 c 0
 377 428 376.85254 451 387 451 c 2
 459 451 l 2
 490 451 508 452 540 452 c 0
 548.58008 452 545 431 540 430 c 0
 509.4326 423.88672 484 412 482 375 c 0
 480 353 475 279 475 217 c 0
 475 102.855 439 -13 294 -13 c 0
 155 -13 80 85.1396 80 204 c 2
EndSplineSet
Validated: 37
EndChar

StartChar: zdotaccent
Encoding: 380 380 285
Width: 466
Flags: W
HStem: -3 42<162.888 381.386> -2 19<31.8216 38.9008> 418 33<101.291 300.976> 525 101<199.617 282.323>
VStem: 44 35<355.125 403.266> 190.5 101<534.117 616.823>
LayerCount: 2
Fore
SplineSet
190.5 575 m 0x3c
 190.5 604 212.5 626 240.5 626 c 0
 269.5 626 291.5 604 291.5 575 c 0
 291.5 547 269.5 525 240.5 525 c 0
 212.5 525 190.5 547 190.5 575 c 0x3c
324 39 m 0xbc
 357 41 390 53 410 99 c 0
 412 104 431.0469 111.1758 446 113 c 0
 449.98535 113.486328 452 109 451 104 c 0
 442 63 431 25 423 9 c 0
 420 3 420 -3 413 -3 c 0xbc
 301.459 -3 201 0 127 -2 c 0
 92 -3 68 -2 34 -2 c 0
 26.58984 -2 34 17 34 17 c 1x7c
 38 27 56 52 71 74 c 0
 165 203 218.658 273.809 305 407 c 0
 308.2998 412.09082 311 417 294 418 c 0
 251 419 171 421 130 418 c 0
 107 416 91 407 79 373 c 0
 76 365 56 348 46 348 c 0
 35 348 41 364 44 374 c 0
 49 391 59 433 68 453 c 0
 73 463 80 465 84 465 c 0
 87 465 94 461 101 455 c 0
 107 451 125.8926 450.20508 142 450 c 0
 248.853 448.64355 336 449 416 451 c 0
 421 451 427 442 424 439 c 0
 408 419 398 404 382 382 c 0
 286 254 238.393 188.429 155 59 c 0
 150.58887 52.1543 154 40 161 39 c 0
 201 34 259 34 324 39 c 0xbc
EndSplineSet
Validated: 33
EndChar

StartChar: zcaron
Encoding: 382 382 287
Width: 466
Flags: W
HStem: -3 42<162.888 381.386> -2 19<31.8216 38.9008> 418 33<101.291 300.976>
VStem: 44 35<355.125 403.266>
LayerCount: 2
Fore
SplineSet
164 708 m 2x30
 234 612 l 1
 303 708 l 2
 308.38086 715.48633 320 726 332 726 c 0
 340 726 345.9023 716.58301 340 705 c 2
 340 705 287 597.301 262 554 c 0
 251.5 535.8135 241 525 234 525 c 0
 227 525 216.5 535.8135 206 554 c 0
 184.5 591.2393 128 705 128 705 c 2
 122.09766 716.583 128 726 136 726 c 0
 148 726 158.168 715.998 164 708 c 2x30
324 39 m 0xb0
 357 41 390 53 410 99 c 0
 412 104 431.0469 111.1758 446 113 c 0
 449.98535 113.486328 452 109 451 104 c 0
 442 63 431 25 423 9 c 0
 420 3 420 -3 413 -3 c 0xb0
 301.459 -3 201 0 127 -2 c 0
 92 -3 68 -2 34 -2 c 0
 26.58984 -2 34 17 34 17 c 1x70
 38 27 56 52 71 74 c 0
 165 203 218.658 273.809 305 407 c 0
 308.2998 412.09082 311 417 294 418 c 0
 251 419 171 421 130 418 c 0
 107 416 91 407 79 373 c 0
 76 365 56 348 46 348 c 0
 35 348 41 364 44 374 c 0
 49 391 59 433 68 453 c 0
 73 463 80 465 84 465 c 0
 87 465 94 461 101 455 c 0
 107 451 125.8926 450.20508 142 450 c 0
 248.853 448.64355 336 449 416 451 c 0
 421 451 427 442 424 439 c 0
 408 419 398 404 382 382 c 0
 286 254 238.393 188.429 155 59 c 0
 150.58887 52.1543 154 40 161 39 c 0
 201 34 259 34 324 39 c 0xb0
EndSplineSet
Validated: 33
EndChar

StartChar: Uhorn
Encoding: 431 431 290
Width: 764
VWidth: 0
Flags: W
HStem: -14 50<312.955 481.109> 620 32<38.9062 81.4109 204.719 246.44 521.518 566.889>
VStem: 103 80<187.656 603.863> 588 56<326.96 604.519> 592 43<165.341 463.189> 724 58<657.332 724.5>
LayerCount: 2
Fore
SplineSet
709 697 m 0xf4
 694 707 687 713 687 731 c 0
 687 756 712.812 764.088 741.812 764.088 c 0
 773.003 764.088 782 736 782 713 c 0
 782 655.472 734.778 632.377 669.608 608.586 c 1
 654.967 595.757 646.356 576.624 644 546 c 0xf4
 642 515 635 342 635 254 c 0
 635 99 524 -14 380 -14 c 0
 188 -14 103 128 103 322 c 0
 103 381 103 498 103 540 c 0
 103 602 78 610 46 620 c 0
 35 624 29 652 42 652 c 0
 89 652 103 649 142 649 c 0
 181 649 185 652 241 652 c 0
 252 652 253 624 241 622 c 0
 199 616 185 586 183 530 c 0
 180 444 183 344 183 294 c 0
 183 162 271 36 403 36 c 0
 530 36 592 144 592 300 c 0xec
 592 344 589.848 470.993 588 510 c 0
 583.642 601.983 574 610 527 622 c 0
 515.015 625.06 516 654 529 654 c 0
 577 654 579 654 611 654 c 0
 653.25 654 662.884 655.763 701.147 655.979 c 1
 714.993 659.789 724 664.831 724 671 c 0
 724 686 719.524 689.983 709 697 c 0xf4
EndSplineSet
Validated: 33
EndChar

StartChar: uhorn
Encoding: 432 432 291
Width: 597
VWidth: 0
Flags: W
HStem: -14 51<138.488 275.183> 21 27<437.489 502.05> 373 24<16.8885 43.6427 267.199 313.994>
VStem: 69 70<71.1627 358.841> 350 70<75.7414 355.128> 503 58<428.618 494.5>
LayerCount: 2
Fore
SplineSet
503 441 m 4xbc
 503 456 498.524 459.983 488 467 c 0
 473 477 466 483 466 501 c 0
 466 526 491.812 534.088 520.812 534.088 c 0
 552.003 534.088 561 506 561 483 c 0
 561 425 513.137 401.62 447 378 c 0
 433 373 420 363 420 326 c 0
 420 240 420 175 420 114 c 0
 420 90 413 43 437 45 c 0
 447 46 485 46 495 48 c 0
 505 50 506 22 496 21 c 0x7c
 444 14 396 -2 367 -14 c 0
 362 -16 341 -23 340 -19 c 0
 339 -7 350 44 348 57 c 1
 296 6 233 -14 171 -14 c 0
 106 -14 69 27 69 105 c 0
 69 155 69 263 69 316 c 0
 69 345 50.9995 360.999 21 373 c 0
 13.0127 376.195 15 396 23 397 c 0
 77 399 92 405 131 414 c 1
 141 415 146 410 145 400 c 0
 141 369 139 353 139 323 c 0
 139 270 139 180 139 128 c 0
 139 80 180 37 223 37 c 0
 257 37 282 38 307 57 c 0
 322 68 350 91 350 132 c 0
 350 209 350 261 350 323 c 0
 350 364 280 370 273 373 c 0
 264 376 264 397 273 397 c 0
 374 402 382 409 418 419 c 0
 419.979 419.44 503 425 503 441 c 4xbc
EndSplineSet
Validated: 33
EndChar

StartChar: uni01D5
Encoding: 469 469 300
Width: 563
VWidth: 0
Flags: W
HStem: -13 35<238.389 374.945> 425 25<35.0211 68.4721 167.691 200.01 380.363 415.874 499.32 542.199> 513 100<152.202 230.798 329.202 407.798> 850 54<240.69 530.709>
VStem: 80 75<101.856 419.064> 141.5 100<523.702 602.298> 318.5 100<523.702 602.298> 431 44<89.4612 410.762>
LayerCount: 2
Fore
SplineSet
261.021484375 904 m 30xf3
 524.021484375 904 l 30
 531.47265625 904 539.376953125 897.068359375 537.021484375 890 c 28
 530.780273438 871.276367188 525.7578125 850 506.021484375 850 c 30
 251.021484375 850 l 30
 243.830078125 850 237.021484375 856 237.021484375 862 c 4
 237.021484375 871 242.15625 904 261.021484375 904 c 30xf3
EndSplineSet
Refer: 154 220 N 1 0 0 1 0 0 3
Validated: 1
EndChar

StartChar: uni01D7
Encoding: 471 471 302
Width: 563
VWidth: 0
Flags: W
HStem: -13 35<238.389 374.945> 425 25<35.0211 68.4721 167.691 200.01 380.363 415.874 499.32 542.199> 513 100<152.202 230.798 329.202 407.798> 909.269 72<401.415 510.136>
VStem: 80 75<101.856 419.064> 141.5 100<523.702 602.298> 318.5 100<523.702 602.298> 431 44<89.4612 410.762>
LayerCount: 2
Fore
SplineSet
298.094726562 860.268554688 m 0xf3
 289.094726562 858.268554688 276.094726562 855.268554688 264.094726562 858.268554688 c 0
 256.094726562 860.268554688 256.094726562 873.268554688 267.094726562 880.268554688 c 0
 336.094726562 924.268554688 368.094726562 944.268554688 431.094726562 976.268554688 c 0
 449.094726562 986.268554688 465.094726562 990.268554688 483.094726562 981.268554688 c 24
 504.094726562 971.268554688 517.094726562 957.268554688 518.094726562 935.268554688 c 24
 518.094726562 919.268554688 500.094726562 912.268554688 486.094726562 909.268554688 c 0
 425.094726562 894.268554688 351.094726562 875.268554688 298.094726562 860.268554688 c 0xf3
EndSplineSet
Refer: 154 220 N 1 0 0 1 0 0 3
Validated: 33
EndChar

StartChar: uni01DB
Encoding: 475 475 306
Width: 563
VWidth: 0
Flags: W
HStem: -13 35<238.389 374.945> 425 25<35.0211 68.4721 167.691 200.01 380.363 415.874 499.32 542.199> 513 100<152.202 230.798 329.202 407.798> 892.269 72<247.054 355.775>
VStem: 80 75<101.856 419.064> 141.5 100<523.702 602.298> 318.5 100<523.702 602.298> 431 44<89.4612 410.762>
LayerCount: 2
Fore
SplineSet
459.094726562 843.268554688 m 0xf3
 406.094726562 858.268554688 332.094726562 877.268554688 271.094726562 892.268554688 c 0
 257.094726562 895.268554688 239.094726562 902.268554688 239.094726562 918.268554688 c 24
 240.094726562 940.268554688 253.094726562 954.268554688 274.094726562 964.268554688 c 24
 292.094726562 973.268554688 308.094726562 969.268554688 326.094726562 959.268554688 c 0
 389.094726562 927.268554688 421.094726562 907.268554688 490.094726562 863.268554688 c 0
 501.094726562 856.268554688 501.094726562 843.268554688 493.094726562 841.268554688 c 0
 481.094726562 838.268554688 468.094726562 841.268554688 459.094726562 843.268554688 c 0xf3
EndSplineSet
Refer: 154 220 N 1 0 0 1 0 0 3
Validated: 33
EndChar

StartChar: uni01DE
Encoding: 478 478 308
Width: 555
VWidth: 0
Flags: W
HStem: -3 24<32.5977 66.9576 182.452 212.952 498.912 529.715> 139 27<198.819 333.7> 443 20<310.5 314> 513 100<165.202 243.798 342.202 420.798> 844 54<216.202 506.221>
VStem: 154.5 100<523.702 602.298> 331.5 100<523.702 602.298>
LayerCount: 2
Fore
SplineSet
236.534179688 898 m 30
 499.534179688 898 l 30
 506.985351562 898 514.890625 891.068359375 512.534179688 884 c 28
 506.29296875 865.276367188 501.270507812 844 481.534179688 844 c 30
 226.534179688 844 l 30
 219.342773438 844 212.534179688 850 212.534179688 856 c 4
 212.534179688 865 217.668945312 898 236.534179688 898 c 30
EndSplineSet
Refer: 134 196 N 1 0 0 1 0 0 3
Validated: 1
EndChar

StartChar: uni01E0
Encoding: 480 480 593
Width: 555
VWidth: 0
Flags: W
HStem: -3 24<32.5977 66.9577 182.452 212.952 498.912 529.715> 139 27<198.819 333.7> 443 20<310.5 314> 523 101<270.617 353.323> 870 54<216.507 506.526>
VStem: 261.5 101<532.117 614.823>
LayerCount: 2
Fore
SplineSet
236.838867188 924 m 30
 499.838867188 924 l 30
 507.290039062 924 515.1953125 917.068359375 512.838867188 910 c 28
 506.59765625 891.276367188 501.575195312 870 481.838867188 870 c 30
 226.838867188 870 l 30
 219.647460938 870 212.838867188 876 212.838867188 882 c 4
 212.838867188 891 217.973632812 924 236.838867188 924 c 30
EndSplineSet
Refer: 331 550 N 1 0 0 1 0 0 3
Validated: 1
EndChar

StartChar: uni01E2
Encoding: 482 482 995
Width: 644
VWidth: 0
Flags: W
HStem: -3 19<256.571 310.055> -3 26<0.254913 50.4259 139.25 199.09 420.731 577.555> 188 31<232.985 330 405.033 518.46> 395 38<315.522 330> 408 28<206.602 234.8 413.732 564.628> 723 54<393.668 683.687>
VStem: 330 75<30.2624 187.923 222.033 394.785>
LayerCount: 2
Fore
SplineSet
414 777 m 30x26
 677 777 l 30
 684.451171875 777 692.356445312 770.068359375 690 763 c 28
 683.758789062 744.276367188 678.736328125 723 659 723 c 30
 404 723 l 30
 396.80859375 723 390 729 390 735 c 4
 390 744 395.134765625 777 414 777 c 30x26
EndSplineSet
Refer: 994 198 N 1 0 0 1 0 0 3
Validated: 1
EndChar

StartChar: uni01E8
Encoding: 488 488 312
Width: 524
VWidth: 0
Flags: W
HStem: -4 24<30.6966 66.8555 198.959 232.437 293.469 335.03 457.662 502.938> 225 20<173.025 189.046> 418 32<296.566 324.6> 425 25<38.9238 69.6776 192.592 229.989 415.309 468.063> 700 21G<335.454 350.454>
VStem: 98 75<47.4944 224.993 245.004 407.713>
LayerCount: 2
Fore
SplineSet
352.954101562 769 m 4xcc
 378.954101562 784 399.954101562 792 448.954101562 818 c 4
 460.954101562 825 470.954101562 833 483.954101562 833 c 4
 498.954101562 833 503.954101562 820 491.954101562 810 c 4
 423.954101562 753 481.954101562 800 383.954101562 722 c 4
 363.954101562 706 357.954101562 700 342.954101562 700 c 4
 327.954101562 700 321.954101562 706 301.954101562 722 c 4
 203.954101562 800 261.954101562 753 193.954101562 810 c 4
 181.954101562 820 186.954101562 832 201.954101562 832 c 4
 214.954101562 832 241.954101562 821 253.954101562 814 c 4
 302.954101562 788 306.954101562 784 332.954101562 769 c 4
 343.954101562 762 341.954101562 762 352.954101562 769 c 4xcc
EndSplineSet
Refer: 61 75 N 1 0 0 1 0 0 3
Validated: 1
EndChar

StartChar: oogonek
Encoding: 491 491 315
Width: 485
VWidth: 0
Flags: W
HStem: -287 66<256.909 338.82> -14 30<199.012 301.096> 380 34<173.11 290.275>
VStem: 30 83<108.613 284.355> 164 78<-206.67 -104.011> 373 82<110.658 290.575>
LayerCount: 2
Fore
SplineSet
250 414 m 0
 358 414 455 321 455 213 c 0
 455 134.46 421.204 59.0746 353.611 18 c 1
 354 18 l 1
 286 -39 242 -66 242 -155 c 0
 242 -189 265 -221 299 -221 c 0
 334 -221 370 -182 379 -177 c 0
 384 -174 391 -175 391 -183 c 0
 391 -201 382 -218 377 -227 c 0
 362 -253 321 -287 271 -287 c 0
 210 -287 164 -234 164 -173 c 0
 164 -105.005 219.624 -55.7923 289.736 -7.55607 c 1
 271.357 -11.7517 251.445 -14 230 -14 c 0
 118 -14 30 86 30 186 c 0
 30 310 127 414 250 414 c 0
233 380 m 0
 196.953 380 165.206 364.353 146 340 c 0
 119.918 306.928 113 257.801 113 210 c 0
 113 111 171 16 251 16 c 0
 295.741 16 333.729 33.2734 354 72 c 0
 369.975 102.52 373 149.774 373 189 c 0
 373 284 318 380 233 380 c 0
EndSplineSet
Validated: 1
EndChar

StartChar: uni01EC
Encoding: 492 492 316
Width: 773
VWidth: 0
Flags: W
HStem: -287 71<404.464 481.623> -14 39<314.694 459.029> 625 39<292.149 474.251> 724.088 54<244.478 534.497>
VStem: 50 97<219.261 447.462> 303 85<-199.606 -97.6761> 626 97<207.202 448.756>
LayerCount: 2
Fore
SplineSet
264.809570312 778.087890625 m 30
 527.809570312 778.087890625 l 30
 535.260742188 778.087890625 543.166015625 771.15625 540.809570312 764.087890625 c 28
 534.568359375 745.364257812 529.545898438 724.087890625 509.809570312 724.087890625 c 30
 254.809570312 724.087890625 l 30
 247.618164062 724.087890625 240.809570312 730.087890625 240.809570312 736.087890625 c 4
 240.809570312 745.087890625 245.944335938 778.087890625 264.809570312 778.087890625 c 30
EndSplineSet
Refer: 314 490 N 1 0 0 1 0 0 3
Validated: 1
EndChar

StartChar: uni01F4
Encoding: 500 500 319
Width: 507
VWidth: 0
Flags: W
HStem: -12 36<204.672 351.615> 178 34<300.377 373.835 453.411 491.445> 422 32<207.383 359.691> 754 72<416.32 525.041>
VStem: 20 84<132.931 310.158> 381 62<52.1408 156.612> 381 75<45.6252 162.706>
LayerCount: 2
Fore
SplineSet
313 705 m 0xf8
 304 703 291 700 279 703 c 0
 271 705 271 718 282 725 c 0
 351 769 383 789 446 821 c 0
 464 831 480 835 498 826 c 24
 519 816 532 802 533 780 c 24
 533 764 515 757 501 754 c 0
 440 739 366 720 313 705 c 0xf8
EndSplineSet
Refer: 40 71 N 1 0 0 1 0 0 3
Validated: 33
EndChar

StartChar: uni01F8
Encoding: 504 504 321
Width: 631
VWidth: 0
Flags: W
HStem: -14 21<510.919 529.176> -3 24<62.3025 102.76 192.857 225.931> 425 24<52.9092 103.383 431.989 469.611 576.188 609.063> 754 72<246.708 355.429>
VStem: 129 46<86.0745 336.475> 507 40<109.998 403.448>
LayerCount: 2
Fore
SplineSet
458.749023438 705 m 0x3c
 405.749023438 720 331.749023438 739 270.749023438 754 c 0
 256.749023438 757 238.749023438 764 238.749023438 780 c 24
 239.749023438 802 252.749023438 816 273.749023438 826 c 24
 291.749023438 835 307.749023438 831 325.749023438 821 c 0
 388.749023438 789 420.749023438 769 489.749023438 725 c 0
 500.749023438 718 500.749023438 705 492.749023438 703 c 0
 480.749023438 700 467.749023438 703 458.749023438 705 c 0x3c
EndSplineSet
Refer: 28 78 N 1 0 0 1 0 0 3
Validated: 33
EndChar

StartChar: uni022E
Encoding: 558 558 339
Width: 605
VWidth: 0
Flags: W
HStem: -15 37<242.335 386.997> 424 32<229.322 364.877> 700 110<333.847 420.153>
VStem: 66 85<119.755 310.96> 322 110<711.847 798.153> 468 84<121.475 314.94>
LayerCount: 2
Fore
SplineSet
377 810 m 24
 407 810 432 785 432 755 c 24
 432 725 407 700 377 700 c 24
 347 700 322 725 322 755 c 24
 322 785 347 810 377 810 c 24
EndSplineSet
Refer: 46 79 N 1 0 0 1 0 0 3
Validated: 1
EndChar

StartChar: uni0230
Encoding: 560 560 341
Width: 605
VWidth: 0
Flags: W
HStem: -15 37<242.335 386.997> 424 32<229.322 364.877> 700 110<333.847 420.153> 870 54<230.594 520.613>
VStem: 66 85<119.755 310.96> 322 110<711.847 798.153> 468 84<121.475 314.94>
LayerCount: 2
Fore
SplineSet
250.92578125 924 m 30
 513.92578125 924 l 30
 521.376953125 924 529.282226562 917.068359375 526.92578125 910 c 28
 520.684570312 891.276367188 515.662109375 870 495.92578125 870 c 30
 240.92578125 870 l 30
 233.734375 870 226.92578125 876 226.92578125 882 c 4
 226.92578125 891 232.060546875 924 250.92578125 924 c 30
EndSplineSet
Refer: 339 558 N 1 0 0 1 0 0 3
Validated: 1
EndChar

StartChar: uni0232
Encoding: 562 562 343
Width: 494
VWidth: 0
Flags: W
HStem: -4 27<127.655 172.989 302.406 347.107> 426 24<23.6411 60.8134 166.547 201.245 302.585 337.089 417.265 457.175> 723 54<168.339 458.358>
VStem: 200 75<47.4598 248.634>
LayerCount: 2
Fore
SplineSet
188.670898438 777 m 30
 451.670898438 777 l 30
 459.122070312 777 467.02734375 770.068359375 464.670898438 763 c 28
 458.4296875 744.276367188 453.407226562 723 433.670898438 723 c 30
 178.670898438 723 l 30
 171.479492188 723 164.670898438 729 164.670898438 735 c 4
 164.670898438 744 169.805664062 777 188.670898438 777 c 30
EndSplineSet
Refer: 49 89 N 1 0 0 1 0 0 3
Validated: 1
EndChar

StartChar: uni02C9
Encoding: 713 713 976
Width: 0
VWidth: 0
Flags: W
HStem: 510 50<-306.764 -55.5522>
VStem: -310 260
LayerCount: 2
Fore
SplineSet
-286 560 m 30
 -63 560 l 30
 -55.548828125 560 -47.4761821072 553.010605258 -50 546 c 28
 -56.275390625 528.567382812 -62.4716796875 510 -81 510 c 26
 -296 510 l 26
 -303.19140625 510 -310 516 -310 522 c 0
 -310 531 -303.528320312 560 -286 560 c 30
EndSplineSet
Validated: 1
EndChar

StartChar: uni02F7
Encoding: 759 759 1096
Width: 360
VWidth: 0
Flags: W
HStem: -213 73<130.815 271.413> -197 73<90.8845 231.938>
VStem: 50 260
LayerCount: 2
Fore
SplineSet
50 -211 m 4x60
 71 -172 92 -124 137 -124 c 4x60
 183 -124 199 -140 240 -140 c 20
 266 -140 280 -125 297 -103 c 4
 302 -96 313 -115 310 -121 c 4
 296 -148 277 -213 228 -213 c 4xa0
 180 -213 174 -197 120 -197 c 4
 97 -197 81 -211 65 -229 c 4
 60 -234 47 -217 50 -211 c 4x60
EndSplineSet
Validated: 1
EndChar

StartChar: gravecomb
Encoding: 768 768 975
Width: 0
VWidth: 0
Flags: W
HStem: 457 215
VStem: -240 178
LayerCount: 2
Fore
SplineSet
-102 479 m 4
 -182 590 -240 625 -240 644 c 4
 -240 658 -223.177 671.798 -206 672 c 28
 -183.496 672.265 -166.085 662.947 -155 645 c 4
 -134 611 -62 485 -62 470 c 4
 -62 461 -65.7803 457 -75 457 c 4
 -84 457 -96.6094 471.521 -102 479 c 4
EndSplineSet
Validated: 33
EndChar

StartChar: uni0304
Encoding: 772 772 974
Width: 360
VWidth: 0
Flags: W
HStem: 492 60<53.8933 303.031>
VStem: 50 260
LayerCount: 2
Fore
SplineSet
74 552 m 26
 297 552 l 26
 304 552 312 545 310 538 c 24
 304 517 301 492 279 492 c 26
 64 492 l 26
 57 492 50 498 50 504 c 0
 50 513 53 552 74 552 c 26
EndSplineSet
Validated: 1
EndChar

StartChar: uni0305
Encoding: 773 773 977
Width: 400
VWidth: 0
Flags: W
HStem: 523 60<3.89328 393.031>
LayerCount: 2
Fore
SplineSet
24 583 m 26
 387 583 l 26
 394 583 402 576 400 569 c 24
 394 548 391 523 369 523 c 26
 14 523 l 26
 7 523 0 529 0 535 c 0
 0 544 3 583 24 583 c 26
EndSplineSet
Validated: 1
EndChar

StartChar: uni0307
Encoding: 775 775 122
Width: 238
VWidth: 0
Flags: W
HStem: 513 101<71.1171 153.823>
VStem: 62 101<522.117 604.823>
LayerCount: 2
Fore
SplineSet
62 563 m 0
 62 592 84 614 112 614 c 0
 141 614 163 592 163 563 c 0
 163 535 141 513 112 513 c 0
 84 513 62 535 62 563 c 0
EndSplineSet
Validated: 1
EndChar

StartChar: hookabovecomb
Encoding: 777 777 1140
Width: 0
VWidth: 0
HStem: 653 24<147.404 191.326>
VStem: 84 44<599.489 644.53> 197 59<578.813 652.378>
LayerCount: 2
Fore
SplineSet
97 654 m 0
 117 666 140 677 178 677 c 0
 217.222 677 256 656.222 256 617 c 0
 256 600 245 573 204 550 c 0
 186.042 539.926 191 531 203 523 c 0
 212 517 199 508 189 508 c 0
 176 508 155 526 155 540 c 0
 155 557.995 167.034 570.765 178 581 c 0
 193 595 197 606 197 622 c 0
 197 637.531 187.531 653 172 653 c 0
 150 653 142 640 128 602 c 0
 123.532 589.874 106 591 99 599 c 0
 89.8223 609.488 84 616.66 84 630 c 0
 84 640 88.4541 648.873 97 654 c 0
EndSplineSet
Validated: 1
EndChar

StartChar: uni030A
Encoding: 778 778 123
Width: 238
VWidth: 0
Flags: W
HStem: 480 28<84.4072 145.196> 619 28<76.7413 137.357>
VStem: 28 37<522.59 612.219> 158 38<517.834 603.573>
LayerCount: 2
Fore
SplineSet
115 647 m 0
 159 647 196 613 196 569 c 0
 196 525 153 480 109 480 c 0
 65 480 28 519 28 563 c 0
 28 607 71 647 115 647 c 0
65 568 m 0
 65 535 88 508 116 508 c 0
 144 508 158 534 158 562 c 0
 158 590 134 619 106 619 c 0
 78 619 65 596 65 568 c 0
EndSplineSet
Validated: 1
EndChar

StartChar: uni030B
Encoding: 779 779 124
Width: 382
VWidth: 0
Flags: W
HStem: 441 231
VStem: 45 303
LayerCount: 2
Fore
SplineSet
207 462 m 0
 202 454 193 445 181 441 c 0
 173 437 166 448 171 460 c 0
 202 551 206 549 250 645 c 0
 258 664 276 669 298 672 c 24
 318 674 336 673 348 657 c 24
 356 645 344 633 334 622 c 0
 292 574 238 505 207 462 c 0
81 462 m 0
 76 454 67 445 55 441 c 0
 47 437 40 448 45 460 c 0
 76 551 80 549 124 645 c 0
 132 664 150 669 172 672 c 24
 192 674 210 673 222 657 c 24
 230 645 218 633 208 622 c 0
 166 574 112 505 81 462 c 0
EndSplineSet
Validated: 33
EndChar

StartChar: uni030C
Encoding: 780 780 92
Width: 336
VWidth: 0
Flags: W
HStem: 443 224
VStem: 29 280
LayerCount: 2
Fore
SplineSet
172 539 m 0
 210 579 237 610 273 649 c 0
 279 656 289 664 301 667 c 0
 310 669 316 657 309 646 c 0
 268 576 269 579 214 491 c 0
 203 473 184 443 169 443 c 0
 154 443 135 473 124 491 c 0
 69 580 67 582 29 646 c 0
 22 657 28 669 37 667 c 0
 49 664 58 656 65 649 c 0
 92 619 127 580 163 539 c 0
 168 534 164 530 172 539 c 0
EndSplineSet
Validated: 1
EndChar

StartChar: uni030D
Encoding: 781 781 980
Width: 195
VWidth: 0
Flags: W
HStem: 426 224
VStem: 68 70<434.22 648.154>
LayerCount: 2
Fore
SplineSet
68 604 m 0
 68 631 74 650 103 650 c 0
 132 650 138 632 138 604 c 0
 138 582 133 504 121 456 c 0
 115 431 118 427 103 426 c 0
 88 425 91 432 85 458 c 0
 73 506 68 582 68 604 c 0
EndSplineSet
Validated: 33
EndChar

StartChar: uni030E
Encoding: 782 782 624
Width: 259
VWidth: 0
Flags: W
HStem: 426 224
VStem: 68 70<434.22 648.154> 161 70<434.22 648.154>
LayerCount: 2
Fore
SplineSet
161 604 m 0
 161 631 167 650 196 650 c 0
 225 650 231 632 231 604 c 0
 231 582 226 504 214 456 c 0
 208 431 211 427 196 426 c 0
 181 425 184 432 178 458 c 0
 166 506 161 582 161 604 c 0
68 604 m 0
 68 631 74 650 103 650 c 0
 132 650 138 632 138 604 c 0
 138 582 133 504 121 456 c 0
 115 431 118 427 103 426 c 0
 88 425 91 432 85 458 c 0
 73 506 68 582 68 604 c 0
EndSplineSet
Validated: 33
EndChar

StartChar: uni0314
Encoding: 788 788 127
Width: 216
VWidth: 0
Flags: W
HStem: 426 21<126.544 166.752> 568 78<97.4508 172.433>
VStem: 32 52<481.924 556.608>
LayerCount: 2
Fore
SplineSet
131 568 m 0
 111 568 84 540.09 84 518 c 0
 84 487.85 111 456 154 447 c 0
 175 443 172.02 426 148 426 c 0
 96.96 426 32 479 32 549 c 4
 32 605 83 646 131 646 c 0
 160 646 178 626 178 610 c 0
 178 588 160 568 131 568 c 0
EndSplineSet
Validated: 1
EndChar

StartChar: Pi
Encoding: 928 928 1065
Width: 842
VWidth: 0
Flags: W
HStem: -3 25<31.4709 83.5124 277.137 330.02 513.471 565.512 759.137 812.02> 608 41<224.991 618.999> 630 22<44.7561 100.73 753.434 798.405>
VStem: 136 89<57.6845 607.936> 619 88<57.6845 605.038>
LayerCount: 2
Fore
SplineSet
225 109 m 8xd8
 225.875 87.4268 228.077 71.582 244 57 c 24
 268.065 34.9609 289 28 320 22 c 0
 336 19 336 -3 320 -3 c 0
 263 -3 234.635 2 180 2 c 24
 125.755 2 95 -3 41 -3 c 0
 29 -3 24 19 41 22 c 0
 71 28 92.9345 34.961 117 57 c 24
 132.923 71.582 135 87 136 109 c 0
 141 285 140 382 136 557 c 0
 135 575 132.76 595.606 116 610 c 24
 95.8789 627.28 75 620 51 630 c 0
 41 634 42 652 51 652 c 0xb8
 111 652 129.677 649.247 180 649 c 24
 367.978 648.077 474.022 648.079 662 649 c 24xd8
 712.713 649.249 734 652 792 652 c 0
 804 652 801 634 792 630 c 0xb8
 768 620 751 624 730 606 c 4
 719 597 707.976 578.088 707 557 c 24
 698.923 382.467 700.365 283.594 707 109 c 24
 707.82 87.4238 710.077 71.582 726 57 c 24
 750.065 34.9609 771 28 802 22 c 0
 818 19 818 -3 802 -3 c 0
 745 -3 716.635 2 662 2 c 24
 607.755 2 577 -3 523 -3 c 0
 511 -3 506 19 523 22 c 0
 553 28 574.934 34.961 599 57 c 24
 614.923 71.582 617 87 618 109 c 0
 620 185 619 542 619 601 c 0
 619 608 617.354 607.94 614 608 c 24
 464.265 610.694 379.7 612.233 230 608 c 24
 225.289 607.867 225 605 225 597 c 0
 225 539 222 183 225 109 c 8xd8
EndSplineSet
Validated: 33
EndChar

StartChar: Upsilon
Encoding: 933 933 643
Width: 739
VWidth: 0
Flags: W
HStem: -5 29<214.692 287.247 443.521 516.308> 600 50<99.3112 216.617 522.404 669.264>
VStem: 325 80<52.5 440.676>
LayerCount: 2
Fore
SplineSet
592 650 m 0
 653 650 690 616 717 589 c 0
 720.53515625 585.46484375 728 577 728 573 c 0
 728 569 721.910278974 564.934640728 719 567 c 0
 688 589 646 600 605 600 c 0
 516 600 455.439792756 536.63264325 425 453 c 0
 408.58303312 407.894754202 405 326 405 288 c 0
 405 241 405 163 405 108 c 0
 405 63 434 33 484 24 c 0
 507 20 517 15 517 6 c 0
 517 -2 505 -5 488 -5 c 0
 434 -5 416.671875 0 371 0 c 24
 321.041992188 0 297 -5 243 -5 c 0
 226 -5 214 -2 214 6 c 0
 214 15 224 20 247 24 c 0
 297 33 325 60 325 108 c 0
 325 187 325 237 325 287 c 0
 325 327 321.889289173 391.85967227 300 452 c 0
 272.296368391 528.115102284 231 600 150 600 c 0
 101 600 55 573 30 549 c 0
 26.9699612698 546.091162819 19.677734375 548.811523438 20 553 c 16
 20 553 19.14453125 559.678710938 32 575 c 0
 45.408203125 590.979492188 106.650972105 650 170 650 c 0
 320 650 361 452 365 452 c 0
 369 452 442 650 592 650 c 0
EndSplineSet
Validated: 1
EndChar

StartChar: Psi
Encoding: 936 936 1132
Width: 744
VWidth: 0
Flags: W
HStem: -3 25<225.426 276.351 463.196 514.975> 567 50<8.062 71.5447 672.455 735.938> 630 22<238.711 270.531 469.062 501.36>
VStem: 329.955 80<57.7032 288.926 318.419 594.883>
LayerCount: 2
Fore
SplineSet
329.955 336 m 4
 329.955 557 l 4
 329.955 575 319.955 584 306.955 596 c 28
 285.955 614 268.955 620 244.955 630 c 4
 234.955 634 235.955 652 244.955 652 c 4
 304.955 652 317.955 649 364.955 649 c 28
 415.955 649 436.955 652 494.955 652 c 4
 506.955 652 503.955 634 494.955 630 c 4
 470.955 620 449.955 613 428.955 595 c 4
 417.955 586 409.955 574 409.955 557 c 4
 409.955 334 l 4
 409.955 319 410.06 315.903 420 317 c 4
 490.154 324.745 523.857 383.199 545 451 c 4
 574 544 621 617 673 617 c 4
 700 617 714 616 732 599 c 4
 740.459 591.011 745.298 585.384 744 575 c 28
 743.135 568.077 735.062 567 728 567 c 4
 672 567 643.254 513.869 630 481 c 4
 605 419 579.151 367.254 547 339 c 4
 514 310 467.004 294.975 421 289 c 4
 410.092 287.583 409.955 276 409.955 276 c 4
 409.955 109 l 4
 409.955 87 412.955 72 428.955 57 c 28
 452.955 35 473.955 28 504.955 22 c 4
 520.955 19 520.955 -3 504.955 -3 c 4
 447.955 -3 419.955 2 364.955 2 c 28
 313.955 2 288.955 -3 234.955 -3 c 4
 222.955 -3 217.955 19 234.955 22 c 4
 264.955 28 286.955 35 310.955 57 c 28
 326.955 72 329.955 87 329.955 109 c 4
 329.955 269 l 4
 329.955 269 331.165 287.758 323 289 c 4
 277 296 230 310 197 339 c 4
 164.849 367.254 139 419 114 481 c 4
 100.746 513.869 72 567 16 567 c 4
 8.9375 567 0.865234 568.077 0 575 c 28
 -1.29785 585.384 3.54102 591.011 12 599 c 4
 30 616 44 617 71 617 c 4
 123 617 170 544 199 451 c 4
 220.142 383.199 253.807 324.378 324 317 c 4
 328.973 316.477 329.955 321 329.955 336 c 4
EndSplineSet
Validated: 1
EndChar

StartChar: Iotadieresis
Encoding: 938 938 645
Width: 320
VWidth: 0
Flags: W
HStem: -3 24<54.3203 98.3583 234.049 277.734> 429 23<63.6897 93.4601 236.74 267.915> 724 110<42.8018 129.108 232.802 319.108>
VStem: 30.9551 110<735.847 822.153> 128 75<45.4878 409.42> 220.955 110<735.847 822.153>
LayerCount: 2
Fore
SplineSet
275.955078125 834 m 24xe4
 305.955078125 834 330.955078125 809 330.955078125 779 c 24
 330.955078125 749 305.955078125 724 275.955078125 724 c 24
 245.955078125 724 220.955078125 749 220.955078125 779 c 24
 220.955078125 809 245.955078125 834 275.955078125 834 c 24xe4
85.955078125 834 m 24
 115.955078125 834 140.955078125 809 140.955078125 779 c 24
 140.955078125 749 115.955078125 724 85.955078125 724 c 24
 55.955078125 724 30.955078125 749 30.955078125 779 c 24xf4
 30.955078125 809 55.955078125 834 85.955078125 834 c 24
EndSplineSet
Refer: 636 921 N 1 0 0 1 0 0 3
Validated: 1
EndChar

StartChar: Upsilondieresis
Encoding: 939 939 646
Width: 739
VWidth: 0
Flags: W
HStem: -5 29<214.692 287.247 443.521 516.308> 600 50<99.3112 216.617 522.404 669.264> 689 110<237.847 324.153 427.847 514.153>
VStem: 226 110<700.847 787.153> 325 80<52.5 440.676> 416 110<700.847 787.153>
LayerCount: 2
Fore
SplineSet
471 799 m 24xe4
 501 799 526 774 526 744 c 24
 526 714 501 689 471 689 c 24
 441 689 416 714 416 744 c 24
 416 774 441 799 471 799 c 24xe4
281 799 m 24
 311 799 336 774 336 744 c 24
 336 714 311 689 281 689 c 24
 251 689 226 714 226 744 c 24xf4
 226 774 251 799 281 799 c 24
EndSplineSet
Refer: 643 933 N 1 0 0 1 0 0 3
Validated: 1
EndChar

StartChar: uni0400
Encoding: 1024 1024 960
Width: 421
VWidth: 0
Flags: W
HStem: -3 24<11.2984 48.228> 3 36<164.786 334.559> 410 41<161.645 328.992> 429 21<22.3123 57.3167> 776.27 72<212.679 321.4>
VStem: 79 75<45.5227 217.677 253 406.614> 347 19<347.096 375.298>
LayerCount: 2
Fore
SplineSet
424.719726562 727.26953125 m 0x0e
 371.719726562 742.26953125 297.719726562 761.26953125 236.719726562 776.26953125 c 0
 222.719726562 779.26953125 204.719726562 786.26953125 204.719726562 802.26953125 c 24
 205.719726562 824.26953125 218.719726562 838.26953125 239.719726562 848.26953125 c 24
 257.719726562 857.26953125 273.719726562 853.26953125 291.719726562 843.26953125 c 0
 354.719726562 811.26953125 386.719726562 791.26953125 455.719726562 747.26953125 c 0
 466.719726562 740.26953125 466.719726562 727.26953125 458.719726562 725.26953125 c 0
 446.719726562 722.26953125 433.719726562 725.26953125 424.719726562 727.26953125 c 0x0e
EndSplineSet
Refer: 659 1045 N 1 0 0 1 0 0 3
Validated: 33
EndChar

StartChar: afii10051
Encoding: 1026 1026 1124
Width: 726
VWidth: 0
Flags: W
HStem: -3 25<164.471 217.863 367.017 424.46> 363 33<377.977 521.357> 604 38<94.5115 250.507 336.966 563.228>
VStem: 254 80<47.8826 340.722 369.655 600.451> 578 34<527.622 586.79> 589 94<25.3556 268.922>
LayerCount: 2
Fore
SplineSet
589 136 m 0xf4
 589 298 550 363 456 363 c 0
 406 363 355 347 346 341 c 0
 337 335 336 333 335 321 c 0
 332 262 334 109 334 109 c 0
 334 87 335.629 64.8908 353 46 c 24
 370.305 27.1816 383 28 414 22 c 0
 431 19 430 -3 414 -3 c 0
 357 -3 340.841 2 294 2 c 24
 247.159 2 228 -3 174 -3 c 0
 162 -3 157 19 174 22 c 0
 204 28 216.085 28.6047 233 47 c 24
 250.28 65.792 254 87 254 109 c 0
 254 280 254 378 254 557 c 0
 254 575 252 597 236 600 c 0
 210 605 207 604 145 604 c 0
 113 604 77 591 63 565 c 0
 57 554 37 527 22 527 c 0
 13 527 13 547 20 560 c 0
 38 598 45 629 51 671 c 0
 54 693 63 694 68 694 c 0
 73 694 87 673 93 662 c 0
 101 648 134.631 643.14 163 642 c 24
 300.563 636.472 378.508 637.899 516 645 c 24
 545.379 646.518 579 650 589 664 c 0xf4
 600 679 609 686 616 686 c 0
 621 686 630 679 628 669 c 0
 620 630 611 587 612 552 c 0
 612 541 608 525 597 527 c 0
 585 529 582 549 578 558 c 0xf8
 569 577 566 604 502 604 c 0
 450 604 368 602 350 600 c 0
 336 598 334 575 334 557 c 0
 334 557 332 508 335 428 c 0
 336 393 339.24 361.053 354 369 c 0
 380 383 420 396 471 396 c 0
 592 396 683 315 683 146 c 0
 683 -36 544 -180 470 -205 c 0
 398.066 -229.302 370 -215.237 370 -205 c 0
 370 -198 403 -195 443 -177 c 0
 568.116 -120.697 589 50 589 136 c 0xf4
EndSplineSet
Validated: 33
EndChar

StartChar: afii10052
Encoding: 1027 1027 1109
Width: 516
VWidth: 0
HStem: -3 27<25.9902 69.6345 248.758 294.23> 611 37<205.633 445.808> 626 25<28.9978 76.3297> 754.27 72<320.527 429.248>
VStem: 111 86<58.3772 594.421> 478 25<525.08 567.023>
LayerCount: 2
Fore
SplineSet
217.20703125 705.26953125 m 0x9c
 208.20703125 703.26953125 195.20703125 700.26953125 183.20703125 703.26953125 c 0
 175.20703125 705.26953125 175.20703125 718.26953125 186.20703125 725.26953125 c 0
 255.20703125 769.26953125 287.20703125 789.26953125 350.20703125 821.26953125 c 0
 368.20703125 831.26953125 384.20703125 835.26953125 402.20703125 826.26953125 c 24
 423.20703125 816.26953125 436.20703125 802.26953125 437.20703125 780.26953125 c 24
 437.20703125 764.26953125 419.20703125 757.26953125 405.20703125 754.26953125 c 0
 344.20703125 739.26953125 270.20703125 720.26953125 217.20703125 705.26953125 c 0x9c
EndSplineSet
Refer: 1068 1043 N 1 0 0 1 0 0 3
Validated: 1
EndChar

StartChar: afii10058
Encoding: 1033 1033 1119
Width: 890
VWidth: 0
Flags: W
HStem: -3 30<7.26682 54.7547 200.38 250.312 411.256 459.896> 2 32<599.4 686.142> 343 33<522.535 678.629>
VStem: 760 90<115.207 275.622>
LayerCount: 2
Fore
SplineSet
498 351 m 0xb0
 528 366 600 376 651 376 c 0
 772 376 850 316 850 200 c 0
 850 51 679 -4 612 -4 c 0
 592 -4 590 2 536 2 c 8x70
 489.159 2 463 -3 416 -3 c 8
 404.274 -3 408 25 418 27 c 0
 440 31 458.686 34.3406 471 54 c 24
 484.275 75.1943 479 98 475 118 c 0
 467 157 366 492 350 541 c 0
 342 565 341 565 333 542 c 0
 309 476 234.815 281.711 182 112 c 24
 175.973 92.6328 177 70 183 60 c 0
 199 34 225 30 243 26 c 0
 256 23 256 -3 243 -3 c 0xb0
 186 -3 164.348 2 114 2 c 24x70
 74.5615 2 51 -3 13 -3 c 0
 1 -3 4 24 13 27 c 0
 43 38 60.2117 40.2102 83 60 c 24
 106.357 80.2842 114.86 97.5459 127 126 c 24
 201.29 300.129 237 393 304 578 c 0
 307 587 311.106 596.012 314 608 c 24
 316.588 618.723 316 635 318 636 c 0
 330 640 339 646 350 651 c 0
 365 658 373 670 378 670 c 0
 383 670 385 665 388 656 c 0
 482.392 366 l 0
 482.392 366 483.007 343.503 498 351 c 0xb0
501.271 308 m 0
 554 146 l 0
 564.525 111.573 591 34 628 34 c 0
 703 34 760 99 760 185 c 4
 760 290 699 343 593 343 c 0
 575 343 513 332 504 326 c 0
 495 320 501.271 308 501.271 308 c 0
EndSplineSet
Validated: 33
EndChar

StartChar: afii10059
Encoding: 1034 1034 1118
Width: 980
VWidth: 0
Flags: W
HStem: -3 30<53.614 115.355 258.238 308.767 441.614 495.045 649.038 743.84> 330 40<221.96 266.326 498.497 530.954 622.436 775.114> 630 22<64.7112 102.667 261.387 302.36 452.711 487.679 653.928 688.36>
VStem: 140.955 81<57.7441 330.556 369.845 605.306> 530.955 80.045<56.7281 327.718 372.066 603.331> 846 90<113.208 267.045>
LayerCount: 2
Fore
SplineSet
566.955 2 m 24
 520.895 2.20312 502.955 -3 448.955 -3 c 0
 436.955 -3 431.955 24 448.955 27 c 0
 478.955 33 493.1 36.628 512 56 c 24
 527.155 71.5342 527.955 87 528.955 109 c 0
 530.955 185 530.955 264 530.955 323 c 0
 530.955 330 529.309 329.923 525.955 330 c 24
 409.376 332.685 343.489 334.217 226.955 330 c 24
 222.246 329.83 221.955 327 221.955 319 c 0
 221.955 261 222.955 183 225.955 109 c 8
 227.003 83.1533 234.271 66.8367 252 48 c 24
 267.784 31.2295 274.955 30 305.955 24 c 0
 321.955 21 321.955 -3 305.955 -3 c 0
 248.955 -3 232.186 2 184.955 2 c 24
 136.556 2 114.955 -3 60.9551 -3 c 0
 48.9551 -3 43.9551 24 60.9551 27 c 0
 90.9551 33 103.107 28.6848 120 46 c 24
 138.082 64.5342 140.955 87 140.955 109 c 0
 140.955 283 140.955 377 140.955 557 c 0
 140.955 575 136.181 591.211 122 606 c 24
 106.774 621.878 94.9551 620 70.9551 630 c 0
 60.9551 634 61.9551 652 70.9551 652 c 0
 130.955 652 140.479 649 184.955 649 c 24
 228.261 649 237.955 652 295.955 652 c 0
 307.955 652 304.955 634 295.955 630 c 0
 271.955 620 261 624 240 606 c 0
 229 597 226.7 576.865 225.955 557 c 16
 222.955 477 221.955 442 221.955 379 c 0
 221.955 371 229.467 370.193 235.955 370 c 24
 348.226 366.654 411.728 365.435 523.955 370 c 24
 529.369 370.221 530.955 373 530.955 382 c 0
 530.955 444 530.955 478 528.955 557 c 0
 527.955 575 523.68 589.734 510 604 c 24
 494.537 620.125 482.955 620 458.955 630 c 0
 448.955 634 449.955 652 458.955 652 c 0
 518.955 652 524.818 649 566.955 649 c 24
 611.82 649 623.955 652 681.955 652 c 0
 693.955 652 690.955 634 681.955 630 c 0
 657.955 620 653 622 632 604 c 0
 621 595 612.398 573.994 611.955 557 c 0
 610 482 612 470 611 408 c 0
 610.435 372.99 620 372 626 372 c 0
 651.298 372 686 376 737 376 c 0
 858 376 936 310 936 194 c 0
 936 112 884 54 836 30 c 0
 794.277 9.13855 742 -4 676 -4 c 0
 676 -4 609.547 1.81241 566.955 2 c 24
846 189 m 0
 846 266 799 299 772 314 c 0
 754 324 728 332 678 332 c 0
 660 332 631 334 622 328 c 0
 613 322 611.197 315.04 611 303 c 0
 610 242 610 160 613 108 c 0
 614.038 90.0022 618 68 630 56 c 0
 641 45 665 30 690 30 c 0
 768 30 846 103 846 189 c 0
EndSplineSet
Validated: 33
EndChar

StartChar: afii10060
Encoding: 1035 1035 1123
Width: 755
VWidth: 0
Flags: W
HStem: -3 25<164.471 217.863 367.017 424.46 490.471 541.274 692.703 740.46> 363 33<377.977 514.446> 604 38<94.5115 250.507 336.966 563.228>
VStem: 254 80<47.8826 340.722 369.655 600.451> 578 34<527.622 586.79> 580 80<53.7807 292.252>
LayerCount: 2
Fore
SplineSet
456 363 m 4xf4
 406 363 355 347 346 341 c 4
 337 335 336 333 335 321 c 4
 332 262 334 109 334 109 c 4
 334 87 335.629 64.8908 353 46 c 28
 370.305 27.1816 383 28 414 22 c 4
 431 19 430 -3 414 -3 c 4
 357 -3 340.841 2 294 2 c 28
 247.159 2 228 -3 174 -3 c 4
 162 -3 157 19 174 22 c 4
 204 28 216.085 28.6047 233 47 c 28
 250.28 65.792 254 87 254 109 c 4
 254 280 254 378 254 557 c 4
 254 575 252 597 236 600 c 4
 210 605 207 604 145 604 c 4
 113 604 77 591 63 565 c 4
 57 554 37 527 22 527 c 4
 13 527 13 547 20 560 c 4
 38 598 45 629 51 671 c 4
 54 693 63 694 68 694 c 4
 73 694 87 673 93 662 c 4
 101 648 134.631 643.14 163 642 c 28
 300.563 636.472 378.508 637.899 516 645 c 28
 545.379 646.518 579 650 589 664 c 4
 600 679 609 686 616 686 c 4
 621 686 630 679 628 669 c 4
 620 630 611 587 612 552 c 4
 612 541 608 525 597 527 c 4
 585 529 582 549 578 558 c 4xf8
 569 577 566 604 502 604 c 4
 450 604 368 602 350 600 c 4
 336 598 334 575 334 557 c 4
 334 557 332 508 335 428 c 4
 336 393 339.24 361.053 354 369 c 4
 380 383 420 396 471 396 c 4
 592 396 660 310 660 194 c 4
 660 84 660 278 660 109 c 4
 660 87 665.686 66.2764 682 46 c 28
 695.12 29.6934 699 28 730 22 c 4
 747 19 746 -3 730 -3 c 4
 673 -3 662.944 2 620 2 c 28
 573.159 2 554 -3 500 -3 c 4
 488 -3 483 19 500 22 c 4
 530 28 545.99 32.3265 565 53 c 28
 580.304 69.6436 580 87 580 109 c 4
 580 280 580 103 580 189 c 4
 580 266 550 363 456 363 c 4xf4
EndSplineSet
Validated: 37
EndChar

StartChar: afii10061
Encoding: 1036 1036 962
Width: 681
VWidth: 0
Flags: W
HStem: -5 29<31.6924 105.863 244.783 312.308 410.035 461.3 608.044 687.308> 323 29<211.012 235.312> 622 31<32.0745 108.441 226.967 296.926 408.311 468.925 576.716 672.827> 761.27 72<394.556 503.277>
VStem: 131 80<50.6023 322.99 352.005 605.863>
LayerCount: 2
Fore
SplineSet
291.236328125 712.26953125 m 0
 282.236328125 710.26953125 269.236328125 707.26953125 257.236328125 710.26953125 c 0
 249.236328125 712.26953125 249.236328125 725.26953125 260.236328125 732.26953125 c 0
 329.236328125 776.26953125 361.236328125 796.26953125 424.236328125 828.26953125 c 0
 442.236328125 838.26953125 458.236328125 842.26953125 476.236328125 833.26953125 c 24
 497.236328125 823.26953125 510.236328125 809.26953125 511.236328125 787.26953125 c 24
 511.236328125 771.26953125 493.236328125 764.26953125 479.236328125 761.26953125 c 0
 418.236328125 746.26953125 344.236328125 727.26953125 291.236328125 712.26953125 c 0
EndSplineSet
Refer: 660 1050 N 1 0 0 1 0 0 3
Validated: 1
EndChar

StartChar: afii10062
Encoding: 1038 1038 1127
Width: 622
VWidth: 0
HStem: -40 71<118.094 228.966> 622 30<214.741 270.489 390.101 448.277 568.845 636.955> 692 70<249.589 403.163>
LayerCount: 2
Fore
SplineSet
208.375976562 825 m 0
 220.375976562 803 256.375976562 762 326.375976562 762 c 0
 396.375976562 762 432.375976562 803 444.375976562 825 c 0
 449.375976562 834 456.375976562 846 466.375976562 846 c 0
 476.375976562 846 476.375976562 835 476.375976562 822 c 0
 476.375976562 758 406.375976562 692 326.375976562 692 c 0
 246.375976562 692 176.375976562 747 176.375976562 822 c 0
 176.375976562 835 176.375976562 846 186.375976562 846 c 0
 196.375976562 846 203.375976562 834 208.375976562 825 c 0
EndSplineSet
Refer: 1126 1059 N 1 0 0 1 0 0 3
Validated: 1
EndChar

StartChar: afii10018
Encoding: 1041 1041 1106
Width: 568
VWidth: 0
Flags: W
HStem: -4 41<216.807 350.629> 4 647<32 195.031> 343 33<218.998 340.825> 611 40<209.52 414.325>
VStem: 120 78<60.9414 331.718 359.753 595.421> 433 90<115.164 267.859> 433 38<520.921 591.567>
LayerCount: 2
Fore
SplineSet
361 611 m 0x1a
 314 613 257 611 229 611 c 0
 218 611 206 588 204 576 c 0
 200 501 195 488 198 408 c 0
 199 373 201 354 217 359 c 0
 241 367 273 376 324 376 c 0
 445 376 523 310 523 194 c 0
 523 84 459 51 423 30 c 0
 383 6 329 -4 263 -4 c 0xbc
 243 -4 187 4 143 4 c 0
 101 4 54 -2 26 -2 c 0
 18 -2 19 14 26 20 c 24
 48 39 71 34 92 54 c 24
 110 72 120 89 120 114 c 0
 120 268 120 366 120 522 c 0
 120 550 118 584 107 596 c 4
 87 617 84 619 45 630 c 4
 37 632 32 651 40 651 c 20
 82 651 98 651 135 651 c 28x4c
 245 651 383 651 418 651 c 0
 421 651 447 655 453 655 c 0
 460 655 463 645 463 641 c 0
 464 600 468 575 471 544 c 0
 473 527 463 519 457 519 c 0
 450 519 435 536 433 547 c 0
 429 570 422 609 361 611 c 0x1a
433 189 m 0
 433 266 386 303 359 318 c 0
 341 328 305 343 255 343 c 0
 237 343 218 338 209 332 c 0
 200 326 199 319 198 307 c 0
 195 248 198 161 200 108 c 0
 201 90 205 68 217 56 c 0
 228 45 252 37 277 37 c 0
 355 37 433 103 433 189 c 0
EndSplineSet
Validated: 33
EndChar

StartChar: afii10024
Encoding: 1046 1046 1136
Width: 960
VWidth: 0
Flags: W
HStem: -18 43<-8.37536 76.4323 879.522 964.33> -3 25<-12.0908 35.2744 335.193 385.467 570.487 620.762 920.681 968.046> 590 75<66.298 158.602 797.353 889.657> 630 22<346.711 378.553 577.402 609.244>
VStem: 437.955 80.045<57.6842 328.975 357.979 594.927>
LayerCount: 2
Fore
SplineSet
483 2 m 24x48
 428.348 2 396.955 -3 342.955 -3 c 0
 330.955 -3 325.955 19 342.955 22 c 0x48
 372.955 28 394.889 34.9611 418.955 57 c 24
 434.878 71.582 437.955 87 437.955 109 c 0
 437.955 310 l 0
 437.955 310 439.165 328.758 430 329 c 0
 412 327 402 324 371 312 c 0
 339 300 320.667 274.642 310 257 c 0
 284 214 250.562 152.777 210 76 c 0
 182 23 120 -18 63 -18 c 0
 38 -18 4 -9 -9 0 c 0
 -17 6 -16 25 -6 25 c 0
 103 26 129 99 149 138 c 0
 166.555 172.232 201.059 241.671 232.917 283 c 0
 267.165 327.431 302.903 349.783 320 356 c 0
 327 358 331.187 360.016 319 366.095 c 0
 303.62 373.768 290.014 382.2 280 391 c 0
 247.849 419.254 221 467 191 528 c 0
 175.359 559.803 147 590 122 590 c 0
 114.938 590 88.4092 574.236 69 582 c 24
 54.584 587.767 52 606.364 52 618 c 0
 52 645 84 665 111 665 c 0xa8
 149.819 665 196 613 224 550 c 0
 251.239 488.713 281.54 439.46 299 422 c 0
 324 397 361.807 365.378 432 358 c 0
 436.973 357.477 437.955 362 437.955 377 c 0
 437.955 557 l 0
 437.955 575 428.351 584.495 414.955 596 c 24
 394.034 613.967 376.955 620 352.955 630 c 0
 342.955 634 343.955 652 352.955 652 c 0
 412.955 652 432.269 649 483 649 c 24
 529.814 649 543 652 603 652 c 0
 612 652 613 634 603 630 c 0x18
 579 620 561.921 613.967 541 596 c 24
 527.604 584.495 518 575 518 557 c 0
 518 377 l 0
 518 362 518.982 357.477 523.955 358 c 0
 594.148 365.378 631.955 397 656.955 422 c 0
 674.415 439.46 704.717 488.713 731.955 550 c 0
 759.955 613 806.136 665 844.955 665 c 0
 871.955 665 903.955 645 903.955 618 c 0
 903.955 606.364 901.371 587.766 886.955 582 c 24
 867.546 574.236 841.018 590 833.955 590 c 0
 808.955 590 780.596 559.803 764.955 528 c 0
 734.955 467 708.106 419.254 675.955 391 c 0
 665.941 382.2 652.336 373.768 636.955 366.096 c 0
 624.769 360.017 628.955 358 635.955 356 c 0
 653.052 349.783 688.79 327.431 723.038 283 c 0
 754.896 241.671 789.4 172.232 806.955 138 c 0
 826.955 99 852.955 26 961.955 25 c 0
 971.955 25 972.955 6 964.955 0 c 0
 951.955 -9 917.955 -18 892.955 -18 c 0xa8
 835.955 -18 774 17 743.955 76 c 0
 704.551 153.378 669.955 214 643.955 257 c 0
 633.288 274.642 614.955 300 582.955 312 c 0
 551.955 324 543.955 327 525.955 329 c 0
 516.79 328.758 518 310 518 310 c 0
 518 109 l 0
 518 87 521.077 71.582 537 57 c 24
 561.065 34.9609 583 28 613 22 c 0
 630 19 625 -3 613 -3 c 0
 559 -3 533.737 2 483 2 c 24x48
EndSplineSet
Validated: 33
EndChar

StartChar: afii10025
Encoding: 1047 1047 1120
Width: 510
VWidth: 0
Flags: W
HStem: -14 31<162.102 282.093> 332 46<136.434 250.157> 339 33<178.812 297.64> 633 31<160.972 277.047>
VStem: 35 44<90.7682 172.905> 334 94<425.764 585.295> 370 98<105.825 280.916>
LayerCount: 2
Fore
SplineSet
251 339 m 0xba
 233 339 216 332 177 332 c 0
 163 332 136.773 334.226 136 352 c 24
 135.206 370.263 162 378 175 378 c 0xda
 215 378 214 372 256 372 c 0
 313 372 334 437 334 495 c 0
 334 552 318 632 215 633 c 0
 160 634 118 597 94 505 c 0
 91 490 73 480 68 480 c 0
 63 480 58 496 58 505 c 0
 58 540 62 563 68 597 c 0
 70 607 72 615 81 617 c 0
 93 620 114 629 133 638 c 0
 157 649 196 664 232 664 c 0
 332 664 428 617 428 508 c 0xbc
 428 463 411 427 396 412 c 0
 375 392 362 382 329 369 c 0
 324 367 323 361 329 359 c 0
 389 340 468 310 468 194 c 0
 467 42 322 -14 201 -14 c 0
 147 -14 112 0 80 15 c 0
 67.0359 21.0769 48.5495 34.1534 46 52 c 0
 42 80 36 122 35 158 c 0
 34 166 44 174 55 174 c 0
 59 174 67 159 79 130 c 0
 107 60 162.993 16.4761 218 17 c 0
 323 18 370 103 370 189 c 0
 370 266 333 339 251 339 c 0xba
EndSplineSet
Validated: 33
EndChar

StartChar: afii10028
Encoding: 1050 1050 660
Width: 681
VWidth: 0
Flags: W
HStem: -5 29<31.6924 105.863 244.783 312.308 410.035 461.3 608.044 687.308> 323 29<211.012 235.312> 622 31<32.0745 108.441 226.967 296.926 408.311 468.925 576.716 672.827>
VStem: 131 80<50.6023 322.99 352.005 605.863>
LayerCount: 2
Fore
SplineSet
439 620 m 0
 416 624 408 631 408 640 c 0
 408 648 420 651 437 651 c 0
 491 651 508 649 554 650 c 24
 590 651 592 655 646 655 c 0
 663 655 675 652 675 644 c 0
 675 635 665 628 642 624 c 0
 592 615 536 597 490 558 c 0
 418 497 371 450 302 374 c 24
 297 369 300 363 307 356 c 0
 408 244 445 205 545 95 c 0
 588 47 598 36 655 24 c 0
 678 19 688 15 688 6 c 0
 688 -2 676 -5 659 -5 c 0
 605 -5 585 -1 537 0 c 24
 499 1 493 -1 439 -1 c 0
 422 -1 410 2 410 10 c 0
 410 19 418 23 437 27 c 0
 476 36 467 53 450 72 c 0
 401 127 322 216 238 306 c 24
 230 314 220 323 215 323 c 0
 210 323 211 309 211 302 c 0
 211 239 213 190 216 110 c 0
 218 67 230 33 280 24 c 0
 303 20 313 15 313 6 c 0
 313 -2 301 -5 284 -5 c 0
 230 -5 224 2 186 2 c 24
 137 2 114 -5 60 -5 c 0
 43 -5 31 -2 31 6 c 0
 31 15 41 20 64 24 c 0
 114 33 131 51 131 101 c 0
 131 276 131 380 131 551 c 0
 131 597 114 613 64 622 c 0
 41 626 31 633 31 642 c 0
 31 650 43 653 60 653 c 0
 114 653 131 650 177 650 c 24
 213 650 215 653 269 653 c 0
 286 653 298 650 298 642 c 0
 298 633 288 626 265 622 c 0
 215 613 211 590 211 551 c 0
 211 481 211 426 211 364 c 0
 211 359 211 352 216 352 c 0
 223 352 230 355 238 362 c 0
 282 400 452 576 452 576 c 0
 468 591 489 611 439 620 c 0
EndSplineSet
Validated: 33
EndChar

StartChar: afii10029
Encoding: 1051 1051 1116
Width: 676
VWidth: 0
Flags: W
HStem: -3 25<6.80629 44.3999 209.235 250.884 411.091 451.952 632.964 672.937>
LayerCount: 2
Fore
SplineSet
182 112 m 28
 176 93 177 70 183 60 c 4
 199 34 225 25 243 21 c 4
 256 18 256 -3 243 -3 c 4
 186 -3 164 2 114 2 c 28
 74 2 51 -3 13 -3 c 4
 1 -3 4 19 13 22 c 4
 43 33 60 39 83 60 c 28
 106 81 115 98 127 126 c 28
 201 300 237 393 304 578 c 4
 307 587 311 596 314 608 c 28
 316 619 316 635 318 636 c 4
 330 640 339 646 350 651 c 4
 365 658 373 670 378 670 c 4
 383 670 385 665 388 656 c 4
 452 453 487 342 554 146 c 4
 566 110 578 87 604 57 c 4
 621 37 641 29 666 22 c 4
 675 19 682 -3 666 -3 c 12
 615 -3 590 2 536 2 c 12
 489 2 463 -3 416 -3 c 12
 406 -3 408 20 418 22 c 4
 440 26 458 33 471 54 c 28
 484 75 479 98 475 118 c 4
 467 157 366 492 350 541 c 4
 342 565 341 565 333 542 c 4
 309 476 235 282 182 112 c 28
EndSplineSet
Validated: 33
EndChar

StartChar: afii10037
Encoding: 1059 1059 1126
Width: 622
VWidth: 0
Flags: W
HStem: -40 71<118.094 228.966> 622 30<214.741 270.489 390.101 448.277 568.845 636.955>
LayerCount: 2
Fore
SplineSet
268 158 m 2
 120.376 522 l 10
 109.725 548.264 95.376 565 79.376 582 c 0
 61.376 601 43.376 610 11.376 620 c 0
 0.375977 624 -5.20117 652 7.37598 652 c 16
 54.376 652 81.7812 649 129.376 649 c 24
 182.429 649 209.376 652 265.376 652 c 0
 276.376 652 277.376 624 265.376 622 c 0
 223.376 616 201.376 608 201.376 579 c 0
 201.376 551 206.241 534.662 218.376 504 c 2
 311.376 269 l 2
 323.118 230.239 328.893 229.123 347.376 269 c 2
 474.376 543 l 10
 481.924 559.284 485.691 576.309 473 589 c 24
 449.739 612.261 429.376 614 395.376 622 c 0
 383.376 625 384.872 654 397.376 654 c 18
 519.376 654 l 18
 564.376 654 590.376 656 635.376 656 c 8
 646.296 656 642.376 630 635.376 628 c 8
 606.308 619.694 586.787 620.308 562 603 c 24
 539.496 587.286 535.456 583.146 519.376 547 c 2
 367.809 222 l 2
 280.037 33.7959 234 -40 184 -40 c 0
 157.928 -40 135.017 -40.512 111 -24 c 24
 93.3125 -11.8398 88 4.53601 88 26 c 0
 88 54 118 54 123 51 c 0
 145.784 37.3294 160.566 31 185 31 c 0
 230 31 254 54 276 106 c 0
 280.772 117.279 273.276 144.641 268 158 c 2
EndSplineSet
Validated: 33
EndChar

StartChar: afii10040
Encoding: 1062 1062 1112
Width: 812
VWidth: 0
Flags: W
HStem: -3 22<28.595 73.5804> 0 41<217.912 599.163> 627 25<30.9805 75.7959 253.579 297.529 522.98 567.612 747.579 791.529>
VStem: 120 86<51.2162 591.995> 616 87<56.993 590.5> 713 47<-204.596 -10.6549>
LayerCount: 2
Fore
SplineSet
647 0 m 12x7c
 459.02 0 352.978 0.921459 165 0 c 24x7c
 114.287 -0.249023 93 -3 35 -3 c 0
 23 -3 26 15 35 19 c 0xbc
 59 29 79 26 100 44 c 0
 111 53 120 71.7197 120 92 c 0
 120 262 120 366 120 540 c 0
 120 561.592 115.515 576.016 101 592 c 24
 82.7891 612.056 72 621 41 627 c 0
 25 630 25 652 41 652 c 0
 98 652 116.601 647 165 647 c 24
 213.01 647 234 652 288 652 c 0
 300 652 305 630 288 627 c 0
 258 621 246.211 612.055 228 592 c 24
 213.485 576.016 210 562 209 540 c 0
 207 464 206 158 206 99 c 0
 206 67 227 41 258 41 c 0
 390 41 435.98 41 558 41 c 0
 593 41 616 77 616 106 c 0
 616 164 616 465.94 616 540 c 0
 616 561.59 608.307 575.955 593 592 c 24
 574.3 611.601 564 621 533 627 c 0
 517 630 517 652 533 652 c 0
 590 652 609.821 647 659 647 c 24
 707.01 647 728 652 782 652 c 0
 794 652 799 630 782 627 c 0
 752 621 740.211 612.055 722 592 c 24
 707.485 576.016 703 562.02 703 540 c 0
 703 370 703 270.03 703 92 c 4
 703 73.9697 711.604 62.7972 726 52 c 28
 740.453 41.1602 743 42 771 41 c 4
 781.764 40.6152 779 30.04 779 22 c 20
 779 -3 764 -80 760 -174 c 4
 759.301 -190.435 750.45 -205 734 -205 c 12
 715.337 -205 712.546 -182.275 713 -162 c 4
 716 -28 715.98 0 647 0 c 12x7c
EndSplineSet
Validated: 33
EndChar

StartChar: afii10041
Encoding: 1063 1063 1125
Width: 670
VWidth: 0
Flags: W
HStem: -3 25<365.471 417.512 602.137 655.02> 287 50<267.468 425.244> 630 22<10.7561 42.5984 241.107 273.405 378.756 410.628 609.107 641.405>
VStem: 102 80<406.571 594.927> 470 80<57.6842 329.136 358.237 594.931>
LayerCount: 2
Fore
SplineSet
464 329 m 0
 442 311 375 288 315 287 c 0
 248 286 175 305 140 343 c 0
 110 375 102 404 102 450 c 4
 102 492 102 507 102 557 c 4
 102 575 92.3958 584.495 79 596 c 24
 58.0791 613.967 41 620 17 630 c 0
 7 634 8 652 17 652 c 0
 77 652 90.1855 649 137 649 c 24
 187.714 649 209 652 267 652 c 0
 279 652 276 634 267 630 c 0
 243 620 222 613 201 595 c 0
 190 586 182 574 182 557 c 0
 182 507 182 498 182 466 c 0
 182 380 289 337 366 337 c 0
 405 337 449 350 461 358 c 0
 468 363 469 371 469 382 c 0
 469 557 l 0
 469 575 460.181 584.545 447 596 c 24
 426.185 614.09 409 620 385 630 c 0
 375 634 376 652 385 652 c 0
 445 652 458.186 649 505 649 c 24
 555.714 649 577 652 635 652 c 0
 647 652 644 634 635 630 c 0
 611 620 590 613 569 595 c 0
 558 586 550 574 550 557 c 0
 550 378 550 281 550 109 c 0
 550 87 553.077 71.582 569 57 c 24
 593.065 34.9609 614 28 645 22 c 0
 661 19 661 -3 645 -3 c 0
 588 -3 559.635 2 505 2 c 24
 454.263 2 429 -3 375 -3 c 0
 363 -3 358 19 375 22 c 0
 405 28 426.934 34.961 451 57 c 24
 466.923 71.582 470 87 470 109 c 0
 470 109 470 307 470 313 c 0
 470 329 468 332 464 329 c 0
EndSplineSet
Validated: 33
EndChar

StartChar: afii10042
Encoding: 1064 1064 1113
Width: 1020
VWidth: 0
Flags: W
HStem: -3 22<37.595 73.3369 944.767 980.244> 0 41<211.912 453.883 559.223 796.163> 627 25<24.9805 69.7959 244.667 285.529 373.98 417.874 596.815 643.529 721.98 765.874 944.815 991.529>
VStem: 114 86<51.2162 591.995> 465 85<52.0151 590.484> 813 85<56.993 590.484>
LayerCount: 2
Fore
SplineSet
612 41 m 4x7c
 755 41 l 4x7c
 790 41 813 77 813 106 c 4
 813 164 813 465.94 813 540 c 4
 813 561.59 805.11 575.77 790 592 c 28
 771.997 611.336 763 621 732 627 c 4
 716 630 716 652 732 652 c 4
 789 652 806.38 647 854 647 c 28
 903.958 647 928 652 982 652 c 4
 994 652 999 630 982 627 c 4
 952 621 936.998 612.713 917 592 c 28
 902.003 576.467 898 562.02 898 540 c 4
 898 370 898 270.03 898 92 c 4
 898 73.9697 907.778 58.6214 923 44 c 28
 938.976 28.6553 950 29 974 19 c 4
 984 15 983 -3 974 -3 c 4xbc
 914 -3 900.814 -0.172323 854 0 c 28
 582.952 0.998047 430.048 1.00388 159 0 c 28x7c
 114.135 -0.166016 102 -3 44 -3 c 4
 32 -3 35 15 44 19 c 4xbc
 68 29 73 26 94 44 c 4
 105 53 114 71.7197 114 92 c 4
 114 262 114 366 114 540 c 4
 114 561.592 109.515 576.016 95 592 c 28
 76.7891 612.056 66 621 35 627 c 4
 19 630 19 652 35 652 c 4
 92 652 110.601 647 159 647 c 28
 204.672 647 222 652 276 652 c 4
 288 652 293 630 276 627 c 4
 246 621 238.511 610.9 222 592 c 28
 207.513 575.416 200 562.022 200 540 c 4
 200 458 200 158 200 99 c 4
 200 67 221 41 252 41 c 4
 252 41 395 41 398 41 c 4
 460 41 465 77 465 106 c 4
 465 164 465 465.94 465 540 c 4
 465 561.59 457.11 575.77 442 592 c 28
 423.997 611.336 415 621 384 627 c 4
 368 630 368 652 384 652 c 4
 441 652 458.38 647 506 647 c 28
 555.958 647 580 652 634 652 c 4
 646 652 651 630 634 627 c 4
 604 621 588.998 612.713 569 592 c 28
 554.003 576.467 550 562.02 550 540 c 4
 550 370 550 270.03 550 92 c 4
 550 73.9697 556 41 612 41 c 4x7c
EndSplineSet
Validated: 33
EndChar

StartChar: afii10043
Encoding: 1065 1065 1114
Width: 1020
VWidth: 0
Flags: W
HStem: -3 22<37.595 73.3369> 0 41<211.912 461.883 568.223 810.257> 627 25<34.9805 75.437 244.667 285.529 381.98 425.874 605.815 652.529 733.98 777.874 960.815 1007.53>
VStem: 114 86<51.2162 591.995> 473 86<52.0151 590.484> 825 86<53.9199 590.484> 917 47<-204.596 -10.6549>
LayerCount: 2
Fore
SplineSet
851 0 m 8x7e
 581.12 0 428.878 1.00326 159 0 c 24x7e
 114.135 -0.166992 102 -3 44 -3 c 0
 32 -3 35 15 44 19 c 0xbe
 68 29 73 26 94 44 c 0
 105 53 114 71.7197 114 92 c 0
 114 262 114 366 114 540 c 0
 114 561.592 108.417 575.083 95 592 c 24
 80.209 610.649 76 621 45 627 c 0
 29 630 29 652 45 652 c 0
 102 652 114.497 647 159 647 c 24
 204.672 647 222 652 276 652 c 0
 288 652 293 630 276 627 c 0
 246 621 238.511 610.9 222 592 c 24
 207.513 575.416 200 562.022 200 540 c 0
 200 458 200 158 200 99 c 0
 200 67 221 41 252 41 c 0
 252 41 403 41 406 41 c 4
 468 41 473 77 473 106 c 4
 473 164 473 465.94 473 540 c 4
 473 561.59 465.11 575.77 450 592 c 28
 431.997 611.336 423 621 392 627 c 4
 376 630 376 652 392 652 c 4
 449 652 466.38 647 514 647 c 28
 564.348 647 589 652 643 652 c 4
 655 652 660 630 643 627 c 4
 613 621 597.998 612.713 578 592 c 28
 563.003 576.467 559 562.02 559 540 c 4
 559 370 559 270.03 559 92 c 4
 559 73.9697 565 41 621 41 c 4
 771 41 l 0
 806 41 825 77 825 106 c 0
 825 164 825 465.94 825 540 c 0
 825 561.59 817.11 575.77 802 592 c 24
 783.997 611.336 775 621 744 627 c 0
 728 630 728 652 744 652 c 0
 801 652 818.38 647 866 647 c 24
 917.517 647 944 652 998 652 c 0
 1010 652 1015 630 998 627 c 0
 968 621 952.998 612.713 933 592 c 24
 918.003 576.467 914 562.02 914 540 c 0
 914 370 914 270.03 911 92 c 0
 911 73.9697 919.927 63.2147 934 52 c 24
 946.947 41.6826 947 42 975 41 c 0
 985.764 40.6152 983 30.04 983 22 c 16
 983 -3 968 -80 964 -174 c 0
 963.301 -190.436 954.45 -205 938 -205 c 8
 919.337 -205 916.546 -182.275 917 -162 c 0
 920 -28 919.98 0 851 0 c 8x7e
EndSplineSet
Validated: 33
EndChar

StartChar: afii10044
Encoding: 1066 1066 1128
Width: 680
VWidth: 0
Flags: W
HStem: -4 31<346.697 474.774> 343 33<330.998 452.825> 611 39<75.6609 218.762> 630 21<337.59 399.175>
VStem: 19 38<520.921 591.625> 232 78<60.9414 331.718 359.753 595.34> 545 90<102.223 262.66>
LayerCount: 2
Fore
SplineSet
129 611 m 4xee
 67.9672 611 61 570 57 547 c 4
 55 536 40 519 33 519 c 4
 27 519 17 527 19 544 c 4
 22 575 26 600 27 641 c 4
 27 645 30 655 37 655 c 4
 43 655 69 651 72 651 c 4xde
 107 651 211.689 650 301 650 c 28xee
 338.442 650 355 651 397 651 c 12
 405.419 651 400.163 631.166 392 630 c 4xde
 357 625 346 625 335 618 c 4
 325.72 612.094 318 600 316 576 c 4
 309.763 501.153 307 488 310 408 c 4
 311 373 313 354 329 359 c 4
 353 367 385 376 436 376 c 4
 557 376 635 310 635 194 c 4
 635 84 571 51 535 30 c 4
 495 6 441 -4 375 -4 c 4
 355 -4 299 4 255 4 c 4
 213 4 166 -2 138 -2 c 4
 130 -2 131.458 14.4492 138 20 c 28
 160.078 38.7334 183.526 33.5264 204 54 c 28
 222.26 72.2598 232 89 232 114 c 4
 232 268 232 366 232 522 c 4
 232 550 227.628 582.196 219 596 c 4
 214 604 204.706 611 193 611 c 4
 171 611 171 611 129 611 c 4xee
545 179 m 4
 546.763 255.979 498 303 471 318 c 4
 453 328 417 343 367 343 c 4
 349 343 330 338 321 332 c 4
 312 326 311 319 310 307 c 4
 307 248 310 161 312 108 c 4
 313 90 317 68 329 56 c 4
 340 45 364 27 389 27 c 4
 467 27 542 48 545 179 c 4
EndSplineSet
Validated: 33
EndChar

StartChar: afii10045
Encoding: 1067 1067 1130
Width: 850
VWidth: 0
Flags: W
HStem: -4 31<237.697 365.774 534.582 597.066 752.689 815.205> 343 33<221.998 343.825> 630 21<38.1222 80.299 228.59 290.175 543.711 574.582 775.103 806.36>
VStem: 123 78<60.9414 331.718 359.753 606.792> 436 90<102.223 262.66> 634.955 80<57.7032 594.883>
LayerCount: 2
Fore
SplineSet
539.955 -3 m 0
 527.955 -3 522.955 19 539.955 22 c 0
 569.955 28 591.955 35 615.955 57 c 24
 631.955 72 634.955 87 634.955 109 c 0
 634.955 277 634.955 380 634.955 557 c 0
 634.955 575 624.955 584 611.955 596 c 24
 590.955 614 573.955 620 549.955 630 c 0
 539.955 634 540.955 652 549.955 652 c 0
 609.955 652 622.955 649 669.955 649 c 24
 720.955 649 741.955 652 799.955 652 c 0
 811.955 652 808.955 634 799.955 630 c 0
 775.955 620 754.955 613 733.955 595 c 0
 722.955 586 714.955 574 714.955 557 c 0
 714.955 378 714.955 281 714.955 109 c 0
 714.955 87 717.955 72 733.955 57 c 24
 757.955 35 778.955 28 809.955 22 c 0
 825.955 19 825.955 -3 809.955 -3 c 0
 752.955 -3 724.955 2 669.955 2 c 24
 618.955 2 593.955 -3 539.955 -3 c 0
172 647 m 24
 217.267 647 246 651 288 651 c 8
 296.419 651 291.163 631.166 283 630 c 0
 248 625 237 625 226 618 c 0
 216.72 612.094 209 600 207 576 c 0
 200.763 501.152 198 488 201 408 c 0
 202 373 204 354 220 359 c 0
 244 367 276 376 327 376 c 0
 448 376 526 310 526 194 c 0
 526 84 462 51 426 30 c 0
 386 6 332 -4 266 -4 c 0
 246 -4 190 4 146 4 c 0
 104 4 57 -2 29 -2 c 0
 21 -2 22.458 14.4492 29 20 c 24
 51.0781 38.7334 74.5264 33.5264 95 54 c 24
 113.26 72.2598 123 89 123 114 c 0
 123 268 123 366 123 522 c 0
 123 550 127.156 572.245 110 596 c 24
 93.25 619.192 84 619 45 630 c 0
 37 632 31.5811 651 40 651 c 16
 82 651 120.496 647 172 647 c 24
436 179 m 0
 437.763 255.979 389 303 362 318 c 0
 344 328 308 343 258 343 c 0
 240 343 221 338 212 332 c 0
 203 326 202 319 201 307 c 0
 198 248 201 161 203 108 c 0
 204 90 208 68 220 56 c 0
 231 45 255 27 280 27 c 0
 358 27 433 48 436 179 c 0
EndSplineSet
Validated: 33
EndChar

StartChar: afii10046
Encoding: 1068 1068 1129
Width: 566
VWidth: 0
Flags: W
HStem: -4 31<237.697 365.774> 343 33<221.998 343.825> 630 21<38.1222 80.299 228.59 290.175>
VStem: 123 78<60.9414 331.718 359.753 606.792> 436 90<102.223 262.66>
LayerCount: 2
Fore
SplineSet
172 647 m 28
 217.267 647 246 651 288 651 c 12
 296.419 651 291.163 631.166 283 630 c 4
 248 625 237 625 226 618 c 4
 216.72 612.094 209 600 207 576 c 4
 200.763 501.152 198 488 201 408 c 4
 202 373 204 354 220 359 c 4
 244 367 276 376 327 376 c 4
 448 376 526 310 526 194 c 4
 526 84 462 51 426 30 c 4
 386 6 332 -4 266 -4 c 4
 246 -4 190 4 146 4 c 4
 104 4 57 -2 29 -2 c 4
 21 -2 22.458 14.4492 29 20 c 28
 51.0781 38.7334 74.5264 33.5264 95 54 c 28
 113.26 72.2598 123 89 123 114 c 4
 123 268 123 366 123 522 c 4
 123 550 127.156 572.245 110 596 c 28
 93.25 619.192 84 619 45 630 c 4
 37 632 31.5811 651 40 651 c 20
 82 651 120.496 647 172 647 c 28
436 179 m 4
 437.763 255.979 389 303 362 318 c 4
 344 328 308 343 258 343 c 4
 240 343 221 338 212 332 c 4
 203 326 202 319 201 307 c 4
 198 248 201 161 203 108 c 4
 204 90 208 68 220 56 c 4
 231 45 255 27 280 27 c 4
 358 27 433 48 436 179 c 4
EndSplineSet
Validated: 33
EndChar

StartChar: afii10047
Encoding: 1069 1069 1121
Width: 642
VWidth: 0
Flags: W
HStem: -15 30<191.731 353.361> 320 49<183.234 441.875> 320 27<374.843 498.532> 632 32<188.005 353.887>
VStem: 46 33<108.529 166.492> 56 28<471.876 533.075> 499 97<218.135 320.454>
LayerCount: 2
Fore
SplineSet
499 357 m 0xba
 490 496 418 632 276 632 c 0
 184 632 145 591 135 581 c 0
 123 570 92 534 84 502 c 0
 81 489 78 472 67 471 c 0
 57 470 56 485 56 494 c 0
 57 526 65 574 71 603 c 0
 74 617 76 633 84 633 c 0xb6
 101 634 141 647 160 651 c 0
 203 660 259 664 291 664 c 8
 464.256 664 596 514.256 596 341 c 16
 596 163 470.846 -15 287 -15 c 16
 227 -15 155 -9 118 5 c 0
 93 14 70 26 62 51 c 0
 55 74 46 117 46 143 c 0
 46 154 50 167 58 168 c 0
 64 169 75 155 79 143 c 0
 87 121 100 95 121 76 c 0
 156 44 198 15 279 15 c 0
 427 15 492 163 499 311 c 0
 500 319 496.443 319.819 492 320 c 24xba
 408.609 323.396 361.397 323.236 278 320 c 24
 230.574 318.159 182 314 157 307 c 4
 151 305 146 312 146 318 c 4
 146 321 205 369 227 369 c 0xda
 351 369 431 350 491 347 c 0
 496 347 500 349 499 357 c 0xba
EndSplineSet
Validated: 33
EndChar

StartChar: uni0436
Encoding: 1078 1078 1186
Width: 649
VWidth: 0
Flags: W
HStem: -10 42<568.569 653.874> -3 27<229.997 286.668 371.328 426.003> 205 22<265.684 295.996 359.004 389.104> 347 70<46.1844 125.457 541.247 612.816> 378 27<235.997 281.7 373.052 418.003>
VStem: 296 63<31.7673 204.996 226.998 370.332>
LayerCount: 2
Fore
SplineSet
295 329 m 0xb4
 294 359 278 372 258 378 c 0
 247 382 235 386 235 396 c 0
 235 406 253 405 258 405 c 0
 297 405 293 400 328 400 c 0
 363 400 357 405 396 405 c 0
 401 405 419 406 419 396 c 0
 419 386 407 382 396 378 c 0x2c
 376 372 360 358 360 328 c 0
 359 277 359 251 359 231 c 0
 359 224 365 227 370 227 c 0
 391 227 415 238 427 255 c 0
 456 296 492 344 508 363 c 0
 537 399 571 417 591 417 c 8
 615.544921875 417 635 388 635 372 c 0
 635 357 621 325 600 325 c 0
 585 325 575 347 562 347 c 0
 544 347 539 343 529 330 c 0
 517 314 478 260 459 233 c 0
 454 226 453 219 458 212 c 2
 548 74 l 2
 562 53 589 36 609 32 c 0
 637 27 654 22 654 12 c 0
 654 2 635 -10 587 -10 c 0xb4
 562 -10 521 -4 490 43 c 2
 404 174 l 2
 390 196 380 205 369 205 c 0
 364 205 359 199 359 199 c 0
 360 162 360 107 361 62 c 0
 361 34 384 30 404 24 c 0
 415 20 427 16 427 6 c 0
 427 -4 409 -3 404 -3 c 0
 365 -3 365 2 330 2 c 0
 295 2 291 -3 252 -3 c 0
 247 -3 229 -4 229 6 c 0
 229 16 241 20 252 24 c 0x64
 272 30 295 31 295 60 c 0
 296 105 295 162 296 199 c 0
 296 199 291 205 286 205 c 0
 275 205 264 196 250 174 c 2
 164 43 l 2
 133 -4 92 -10 67 -10 c 0
 19 -10 0 2 0 12 c 0
 0 22 17 27 45 32 c 0
 65 36 92 53 106 74 c 2
 196 212 l 2
 201 219 200 226 195 233 c 0
 176 260 142 314 130 330 c 0
 120 343 115 347 97 347 c 0
 84 347 74 325 59 325 c 0
 38 325 24 357 24 372 c 0
 24 388 43.455078125 417 68 417 c 16
 88 417 134 400 156 363 c 0
 168.6953125 341.649414062 198 296 227 255 c 0
 239 238 264 227 285 227 c 0
 290 227 296 224 296 231 c 0
 296 251 296 278 295 329 c 0xb4
EndSplineSet
Validated: 33
EndChar

StartChar: afii10074
Encoding: 1080 1080 1179
Width: 524
VWidth: 0
Flags: W
HStem: -3 27<32.9975 86.377 178.437 233.003 292.997 345.682 439.178 493.003> 376 27<36.9975 87.4012 176.599 227.003 299.997 348.691 437.888 490.003>
VStem: 97 70<31.5885 103.156 130.902 370.47> 357 70<31.8574 269.096 296.844 369.352>
LayerCount: 2
Fore
SplineSet
357 337 m 2
 357 364 342 370 322 376 c 0
 311 380 299 384 299 394 c 0
 299 404 317 403 322 403 c 0
 361 403 359 398 394 398 c 0
 429 398 429 403 468 403 c 0
 473 403 491 404 491 394 c 0
 491 384 479 380 468 376 c 0
 448 370 427 364 427 337 c 2
 427 63 l 2
 427 36 451 30 471 24 c 0
 482 20 494 16 494 6 c 0
 494 -4 476 -3 471 -3 c 0
 432 -3 428 2 393 2 c 0
 358 2 354 -3 315 -3 c 0
 310 -3 292 -4 292 6 c 0
 292 16 304 20 315 24 c 0
 335 30 357 36 357 63 c 2
 357 264 l 2
 357 269 355.12109375 271.12109375 353 269 c 2
 170 86 l 2
 167.140625 83.203125 167 78 167 73 c 2
 167 63 l 2
 167 34.98 191 30 211 24 c 0
 222 20 234 16 234 6 c 0
 234 -4 216 -3 211 -3 c 0
 172 -3 168 2 133 2 c 0
 98 2 94 -3 55 -3 c 0
 50 -3 32 -4 32 6 c 0
 32 16 44 20 55 24 c 0
 75 30 97 34.98 97 63 c 2
 97 337 l 2
 97 364 79 370 59 376 c 0
 48 380 36 384 36 394 c 0
 36 404 54 403 59 403 c 0
 98 403 98 398 133 398 c 0
 168 398 166 403 205 403 c 0
 210 403 228 404 228 394 c 0
 228 384 216 380 205 376 c 0
 185 370 167 364 167 337 c 2
 167 137 l 2
 167 132 174.926757812 128.83203125 177 131 c 2
 352 314 l 2
 355.495117188 317.575195312 357 321 357 327 c 2
 357 337 l 2
EndSplineSet
Validated: 1
EndChar

StartChar: afii10079
Encoding: 1085 1085 1169
Width: 524
VWidth: 0
Flags: W
HStem: -3 27<32.9975 86.377 178.437 233.003 292.997 345.682 439.178 493.003> 191 37<167 357> 376 27<36.9975 87.4012 176.599 227.003 299.997 348.691 437.888 490.003>
VStem: 97 70<31.5885 191 228 370.47> 357 70<31.8574 191 228 369.352>
LayerCount: 2
Fore
SplineSet
357 337 m 0
 357 364 342 370 322 376 c 0
 311 380 299 384 299 394 c 0
 299 404 317 403 322 403 c 0
 361 403 359 398 394 398 c 0
 429 398 429 403 468 403 c 0
 473 403 491 404 491 394 c 0
 491 384 479 380 468 376 c 0
 448 370 427 364 427 337 c 0
 427 221 427 151 427 63 c 0
 427 36 451 30 471 24 c 0
 482 20 494 16 494 6 c 0
 494 -4 476 -3 471 -3 c 0
 432 -3 428 2 393 2 c 0
 358 2 354 -3 315 -3 c 0
 310 -3 292 -4 292 6 c 0
 292 16 304 20 315 24 c 0
 335 30 357 36 357 63 c 0
 357 115 357 144 357 186 c 0
 357 191 356 191 353 191 c 0
 283 191 240 191 170 191 c 8
 167.030273438 191 167 189 167 184 c 0
 167 142 167 114 167 63 c 0
 167 34.98 191 30 211 24 c 0
 222 20 234 16 234 6 c 0
 234 -4 216 -3 211 -3 c 0
 172 -3 168 2 133 2 c 0
 98 2 94 -3 55 -3 c 0
 50 -3 32 -4 32 6 c 0
 32 16 44 20 55 24 c 0
 75 30 97 34.98 97 63 c 0
 97 185 97 224 97 337 c 0
 97 364 79 370 59 376 c 0
 48 380 36 384 36 394 c 0
 36 404 54 403 59 403 c 0
 98 403 98 398 133 398 c 0
 168 398 166 403 205 403 c 0
 210 403 228 404 228 394 c 0
 228 384 216 380 205 376 c 0
 185 370 167 364 167 337 c 0
 167 280 167 278 167 234 c 0
 167 229 174 228 177 228 c 0
 244 228 285 228 352 228 c 0
 354 228 357 230 357 236 c 0
 357 280 357 281 357 337 c 0
EndSplineSet
Validated: 1
EndChar

StartChar: afii10081
Encoding: 1087 1087 1178
Width: 517
VWidth: 0
Flags: W
HStem: -3 27<30.9975 80.8174 170.216 223.003 289.997 342.784 432.183 482.003> 361 39<161.276 351.799> 369 34<30.2031 76.3416 439.214 486.797>
VStem: 89 71<30.3958 360.75> 353 71<30.3958 358.436>
LayerCount: 2
Fore
SplineSet
337 361 m 4xd8
 289 361 184 361 177 361 c 4xd8
 160 361 160 334 160 323 c 4
 160 150 160 163 160 62 c 4
 160 35 181 30 201 24 c 4
 212 20 224 16 224 6 c 4
 224 -4 206 -3 201 -3 c 4
 162 -3 162 2 127 2 c 4
 92 2 92 -3 53 -3 c 4
 48 -3 30 -4 30 6 c 4
 30 16 42 20 53 24 c 4
 73 30 89 35 89 62 c 4
 89 291 89 110 89 300 c 4
 89 339 80 362 47 369 c 4
 41 370 30 378 30 388 c 4
 30 396 48 403 52 403 c 4xb8
 77 403 83 400 106 400 c 4
 109 400 340 397 407 400 c 4xd8
 430 400 440 403 465 403 c 4
 469 403 487 396 487 388 c 4
 487 378 476 370 470 369 c 4xb8
 437 362 424 339 424 300 c 4
 424 110 424 291 424 62 c 4
 424 35 440 30 460 24 c 4
 471 20 483 16 483 6 c 4
 483 -4 465 -3 460 -3 c 4
 421 -3 421 2 386 2 c 4
 351 2 351 -3 312 -3 c 4
 307 -3 289 -4 289 6 c 4
 289 16 301 20 312 24 c 4
 332 30 353 35 353 62 c 4
 353 163 353 150 353 323 c 4
 353 334 353 361 337 361 c 4xd8
EndSplineSet
Validated: 33
EndChar

StartChar: afii10085
Encoding: 1091 1091 673
Width: 427
VWidth: 0
Flags: W
HStem: -285 91<29.2657 111.012> 378 27<147.954 185.003 265.997 302.178 391.149 434.003>
VStem: 20 103<-272.968 -216.33>
LayerCount: 2
Fore
SplineSet
20 378 m 0
 9 382 -3 386 -3 396 c 0
 -3 406 15 405 20 405 c 0
 59 405 55 400 90 400 c 0
 125 400 124 405 163 405 c 0
 168 405 186 406 186 396 c 0
 186 386 174 382 163 378 c 0
 143 372 135.026 336.746 145 312 c 18
 224 116 l 2
 230 102 234 103 239 117 c 2
 306 295 l 10
 317.668 325.999 308 372 288 378 c 0
 277 382 265 386 265 396 c 0
 265 406 283 405 288 405 c 0
 303 405 321 400 356 400 c 0
 391 400 393 405 412 405 c 0
 417 405 435 406 435 396 c 0
 435 386 423 382 412 378 c 0
 392 372 366.476 343.104 353 311 c 26
 217 -13 l 2
 213 -22 164 -148 123 -244 c 0
 111 -271 92 -285 63 -285 c 8
 39.5576 -285 20 -265 20 -243 c 8
 20 -217.575 43.9737 -194 63 -194 c 0
 76 -194 93 -228 106 -206 c 0
 127 -170 153 -93 182 -16 c 0
 187 -3 186 22 181 36 c 2
 65 329 l 10
 55.4492 353.124 40 372 20 378 c 0
EndSplineSet
Validated: 33
EndChar

StartChar: afii10088
Encoding: 1094 1094 1182
Width: 504
VWidth: 0
Flags: W
HStem: -169 21G<444.668 457.5> -3 27<30.9975 80.8174> 0 39<161.276 351.799> 376 27<30.9975 80.8174 170.216 223.003 289.997 342.784 432.183 482.003>
VStem: 89 71<39.0593 369.604> 353 71<40.1816 369.604> 433 41<-168.983 -8.52734>
LayerCount: 2
Fore
SplineSet
490 42 m 0xbe
 500.66229728 43.5231853257 504.1796875 35.9501953125 501 28 c 0
 493 8 478 -44 474 -138 c 0
 473.30078125 -154.434570312 461 -169 454 -169 c 0
 435.336914062 -169 431.6328125 -146.234375 433 -126 c 0
 438 -52 430 0 392 0 c 4
 293 0 109 0 106 0 c 0xbe
 83 0 92 -3 53 -3 c 0
 48 -3 30 -4 30 6 c 0
 30 16 42 20 53 24 c 0xde
 73 30 89 35 89 62 c 0
 89 251 89 109 89 338 c 0
 89 365 73 370 53 376 c 0
 42 380 30 384 30 394 c 0
 30 404 48 403 53 403 c 0
 92 403 92 398 127 398 c 0
 162 398 162 403 201 403 c 0
 206 403 224 404 224 394 c 0
 224 384 212 380 201 376 c 0
 181 370 160 365 160 338 c 0
 160 237 160 250 160 77 c 0
 160 66 160 39 177 39 c 0
 184 39 289 39 337 39 c 0
 353 39 353 66 353 77 c 0
 353 250 353 237 353 338 c 0
 353 365 332 370 312 376 c 0
 301 380 289 384 289 394 c 0
 289 404 307 403 312 403 c 0
 351 403 351 398 386 398 c 0
 421 398 421 403 460 403 c 0
 465 403 483 404 483 394 c 0
 483 384 471 380 460 376 c 0
 440 370 424 365 424 338 c 0
 424 109 424 241 424 52 c 0
 424 37 462 38 490 42 c 0xbe
EndSplineSet
Validated: 33
EndChar

StartChar: afii10090
Encoding: 1096 1096 1183
Width: 704
VWidth: 0
Flags: W
HStem: -3 27<30.9975 80.8174 623.183 673.003> 0 39<160.276 317.799 390.201 542.724> 376 27<30.9975 80.8174 169.216 222.003 255.997 308.784 397.183 447.003 480.997 533.784 623.183 673.003>
VStem: 89 70<39.0593 369.604> 319 70<39 369.604> 544 71<39.0593 369.604>
LayerCount: 2
Fore
SplineSet
106 0 m 4x7c
 83 0 92 -3 53 -3 c 4
 48 -3 30 -4 30 6 c 4
 30 16 42 20 53 24 c 4xbc
 73 30 89 35 89 62 c 4
 89 251 89 109 89 338 c 4
 89 365 73 370 53 376 c 4
 42 380 30 384 30 394 c 4
 30 404 48 403 53 403 c 4
 92 403 92 398 127 398 c 4
 162 398 161 403 200 403 c 4
 205 403 223 404 223 394 c 4
 223 384 211 380 200 376 c 4
 180 370 159 365 159 338 c 4
 159 237 159 250 159 77 c 4
 159 66 159 39 176 39 c 4
 183 39 255 39 303 39 c 4
 319 39 319 66 319 77 c 4
 319 250 319 237 319 338 c 4
 319 365 298 370 278 376 c 4
 267 380 255 384 255 394 c 4
 255 404 273 403 278 403 c 4
 317 403 317 398 352 398 c 4
 387 398 386 403 425 403 c 4
 430 403 448 404 448 394 c 4
 448 384 436 380 425 376 c 4
 405 370 389 365 389 338 c 4
 389 109 389 266 389 77 c 4
 389 66 389 39 405 39 c 4
 447 39 520 39 527 39 c 4x7c
 544 39 544 66 544 77 c 4
 544 250 544 237 544 338 c 4
 544 365 523 370 503 376 c 4
 492 380 480 384 480 394 c 4
 480 404 498 403 503 403 c 4
 542 403 542 398 577 398 c 4
 612 398 612 403 651 403 c 4
 656 403 674 404 674 394 c 4
 674 384 662 380 651 376 c 4
 631 370 615 365 615 338 c 4
 615 109 615 251 615 62 c 4
 615 35 631 30 651 24 c 4
 662 20 674 16 674 6 c 4
 674 -4 656 -3 651 -3 c 4xbc
 612 -3 621 0 598 0 c 4
 595 0 109 0 106 0 c 4x7c
EndSplineSet
Validated: 1
EndChar

StartChar: afii10091
Encoding: 1097 1097 1184
Width: 704
VWidth: 0
Flags: W
HStem: -169 21G<636.668 649.5> -3 27<30.9975 80.8174> 0 39<160.276 317.799 390.201 542.724> 376 27<30.9975 80.8174 169.216 222.003 255.997 308.784 397.183 447.003 480.997 533.784 623.183 673.003>
VStem: 89 70<39.0593 369.604> 319 70<39 369.604> 544 71<40.1816 369.604> 625 41<-168.983 -2.37672>
LayerCount: 2
Fore
SplineSet
598 0 m 4xbf
 595 0 109 0 106 0 c 0xbf
 83 0 92 -3 53 -3 c 0
 48 -3 30 -4 30 6 c 0
 30 16 42 20 53 24 c 0xdf
 73 30 89 35 89 62 c 0
 89 251 89 109 89 338 c 0
 89 365 73 370 53 376 c 0
 42 380 30 384 30 394 c 0
 30 404 48 403 53 403 c 0
 92 403 92 398 127 398 c 0
 162 398 161 403 200 403 c 0
 205 403 223 404 223 394 c 0
 223 384 211 380 200 376 c 0
 180 370 159 365 159 338 c 0
 159 237 159 250 159 77 c 0
 159 66 159 39 176 39 c 0
 183 39 255 39 303 39 c 0
 319 39 319 66 319 77 c 0
 319 250 319 237 319 338 c 0
 319 365 298 370 278 376 c 0
 267 380 255 384 255 394 c 0
 255 404 273 403 278 403 c 0
 317 403 317 398 352 398 c 0
 387 398 386 403 425 403 c 0
 430 403 448 404 448 394 c 0
 448 384 436 380 425 376 c 0
 405 370 389 365 389 338 c 0
 389 109 389 266 389 77 c 0
 389 66 389 39 405 39 c 0
 447 39 520 39 527 39 c 0
 544 39 544 66 544 77 c 0
 544 250 544 237 544 338 c 0
 544 365 523 370 503 376 c 0
 492 380 480 384 480 394 c 0
 480 404 498 403 503 403 c 0
 542 403 542 398 577 398 c 0
 612 398 612 403 651 403 c 0
 656 403 674 404 674 394 c 0
 674 384 662 380 651 376 c 0
 631 370 615 365 615 338 c 0
 615 109 615 242 615 53 c 0
 615 37 654 38 682 42 c 0
 692.662109375 43.5234375 696.1796875 35.9501953125 693 28 c 0
 685 8 670 -44 666 -138 c 0
 665.30078125 -154.434570312 653 -169 646 -169 c 0
 627.336914062 -169 623.6328125 -146.234375 625 -126 c 0
 630 -52 621 0 598 0 c 4xbf
EndSplineSet
Validated: 33
EndChar

StartChar: uni04D0
Encoding: 1232 1232 684
Width: 555
VWidth: 0
Flags: W
HStem: -3 24<32.5977 66.9577 182.452 212.952 498.912 529.715> 139 27<198.819 333.7> 443 20<310.5 314> 730 70<301.126 454.7>
LayerCount: 2
Fore
SplineSet
259.913085938 863 m 0
 271.913085938 841 307.913085938 800 377.913085938 800 c 0
 447.913085938 800 483.913085938 841 495.913085938 863 c 0
 500.913085938 872 507.913085938 884 517.913085938 884 c 0
 527.913085938 884 527.913085938 873 527.913085938 860 c 0
 527.913085938 796 457.913085938 730 377.913085938 730 c 0
 297.913085938 730 227.913085938 785 227.913085938 860 c 0
 227.913085938 873 227.913085938 884 237.913085938 884 c 0
 247.913085938 884 254.913085938 872 259.913085938 863 c 0
EndSplineSet
Refer: 657 1040 N 1 0 0 1 0 0 3
Validated: 1
EndChar

StartChar: uni04E6
Encoding: 1254 1254 690
Width: 605
VWidth: 0
Flags: W
HStem: -15 37<242.335 386.997> 424 32<229.322 364.877> 724.088 110<252.73 339.037 442.73 529.037>
VStem: 66 85<119.755 310.96> 240.884 110<735.935 822.241> 430.884 110<735.935 822.241> 468 84<121.475 314.94>
LayerCount: 2
Fore
SplineSet
485.883789062 834.087890625 m 24xfc
 515.883789062 834.087890625 540.883789062 809.087890625 540.883789062 779.087890625 c 24
 540.883789062 749.087890625 515.883789062 724.087890625 485.883789062 724.087890625 c 24
 455.883789062 724.087890625 430.883789062 749.087890625 430.883789062 779.087890625 c 24
 430.883789062 809.087890625 455.883789062 834.087890625 485.883789062 834.087890625 c 24xfc
295.883789062 834.087890625 m 24
 325.883789062 834.087890625 350.883789062 809.087890625 350.883789062 779.087890625 c 24
 350.883789062 749.087890625 325.883789062 724.087890625 295.883789062 724.087890625 c 24
 265.883789062 724.087890625 240.883789062 749.087890625 240.883789062 779.087890625 c 24
 240.883789062 809.087890625 265.883789062 834.087890625 295.883789062 834.087890625 c 24
EndSplineSet
Refer: 663 1054 N 1 0 0 1 0 0 3
Validated: 1
EndChar

StartChar: uni1D43
Encoding: 7491 7491 713
Width: 270
VWidth: 0
Flags: W
HStem: 268 40<82.77 146.96 215.036 257.006> 491 33<95.2391 169.811>
VStem: 25 55<310.316 371.53 441.099 475.49> 160 56<317.082 387.993 406.688 487.507>
LayerCount: 2
Fore
SplineSet
80 342 m 4
 80 319 99 308 112 308 c 4
 129 308 142 319 152 327 c 4
 157 331 159 335 159 350 c 14
 160 379 l 22
 160 391 156 393 145 390 c 4
 95 376 80 356 80 342 c 4
219 268 m 4
 182 268 169 299 164 299 c 4
 155 299 137 268 84 268 c 4
 57 268 25 304 25 327 c 4
 25 352 31 368 63 380 c 14
 142 408 l 22
 159 414 160 416 160 432 c 6
 160 455 l 30
 160 475 147 491 123 491 c 4
 107 491 85 486 80 478 c 4
 77 472 77 460 78 453 c 4
 79 445 48 438 33 434 c 4
 29 433 26 437 29 444 c 4
 35 459 38 469 54 482 c 4
 74 499 120 524 154 524 c 4
 185 524 217 499 216 471 c 14
 213 347 l 30
 213 330 215 308 234 308 c 4
 246 308 251 310 255 316 c 4
 260 323 270 307 268 301 c 4
 267 298 243 268 219 268 c 4
EndSplineSet
Validated: 33
EndChar

StartChar: uni1D5B
Encoding: 7515 7515 724
Width: 287
VWidth: 0
Flags: W
HStem: 495 24<1.66329 36.571 102.281 123.337 173.663 198.822 246.126 284.337>
VStem: 1 284
LayerCount: 2
Fore
SplineSet
188 495 m 4
 181 497 173 504 173 510 c 4
 173 516 185 519 188 519 c 4
 198 519 211 519 234 519 c 4
 257 519 258 519 270 519 c 4
 273 519 285 516 285 510 c 4
 285 504 277 497 270 495 c 4
 257 491 238.139 481.98 230 464 c 26
 144 274 l 2
 141.596 268.688 137.237 269.102 135 274 c 2
 45 471 l 10
 38.8994 484.354 29 491 16 495 c 4
 9 497 1 504 1 510 c 4
 1 516 13 519 16 519 c 4
 41 519 38 519 61 519 c 4
 84 519 84 519 109 519 c 4
 112 519 124 516 124 510 c 4
 124 504 116 497 109 495 c 4
 96 491 101.228 474.591 106 463 c 18
 148 361 l 2
 151.254 353.099 151.692 352.125 155 360 c 2
 197 460 l 10
 202.458 472.994 201 491 188 495 c 4
EndSplineSet
Validated: 33
EndChar

StartChar: uni1D9C
Encoding: 7580 7580 732
Width: 239
VWidth: 0
Flags: W
HStem: 271 42<94.7864 199.086> 495 29<95.6323 180.66>
VStem: 12 54<341.025 461.515>
LayerCount: 2
Fore
SplineSet
12 389 m 8
 12 464.012 73.9883 524 149 524 c 16
 177 524 207 517 227 495 c 0
 235 485 224.983 472.271 215 464 c 24
 208.066 458.256 195 461 192 466 c 0
 179 487 166 495 134 495 c 8
 91.8516 495 66 453.148 66 411 c 16
 66 353 97.415 313 147 313 c 16
 174 313 191 320 208 340 c 0
 214 347 233 333 231 326 c 0
 225 305 183 271 123 271 c 8
 59.8184 271 12 327 12 389 c 8
EndSplineSet
Validated: 33
EndChar

StartChar: uni1DA0
Encoding: 7584 7584 733
Width: 222
VWidth: 0
Flags: W
HStem: 273 24<15.6633 51.2012 117.871 154.337> 481 38<112.05 195.312> 481 27<21.2927 55.3986> 666 32<137.658 221.292>
VStem: 56 56<299.052 480 519.188 622.742>
LayerCount: 2
Fore
SplineSet
112 560 m 0xb8
 112 549 112 542 112 532 c 0
 112 521 120 519 128 519 c 10
 197 519 l 18
 203 519 197 481 191 481 c 10
 138 481 l 17xd8
 108 481 112 474 112 465 c 0
 112 422 112 395 112 323 c 0
 113 307 127 301 140 297 c 0
 147 295 155 288 155 282 c 0
 155 276 143 273 140 273 c 0
 115 273 112 273 89 273 c 0
 66 273 55 273 30 273 c 0
 27 273 15 276 15 282 c 0
 15 288 23 295 30 297 c 0
 43 301 56 307 56 323 c 0
 56 398 56 438 56 480 c 1
 48 480 39 480 25 481 c 0
 21 482 16 507 21 508 c 0
 41 513 43 514 56 520 c 1
 56 659 143 698 200 698 c 0
 229 698 243.162 694.663 265 680 c 24
 274.528 673.603 274 662 270 651 c 0
 267 642 250 630 242 630 c 0
 222 630 233 666 178 666 c 0
 137.988 666 112 641 112 560 c 0xb8
EndSplineSet
Validated: 33
EndChar

StartChar: uni1DBB
Encoding: 7611 7611 734
Width: 240
VWidth: 0
Flags: W
HStem: 273 24<81.8666 184.046> 488 30<54.6208 142>
VStem: 18 24<447.836 472.957>
LayerCount: 2
Fore
SplineSet
69 518 m 24
 128.613 515.38 175 518 222 519 c 0
 225 519 228 514 226 512 c 0
 217 502 215.719 494.206 207 482 c 0
 157 412 130 374 82 306 c 0
 79 301 86 297 90 297 c 0
 113 297 119 297 160 297 c 0
 180 297 191 317 211 343 c 0
 213 346 222 358 230 358 c 0
 236 358 235 346 235 344 c 0
 235 339 220 292 217 282 c 0
 216 279 212 273 208 273 c 0
 189 273 142 273 71 273 c 0
 53 273 30 273 19 273 c 0
 16 273 10 280 10 283 c 0
 10 286 11 294 20 305 c 0
 64 363 101 412 148 482 c 0
 150 485 152 488 142 488 c 0
 117 488 103 488 82 488 c 0
 70 488 55 476 42 460 c 0
 39 456 31 446 25 446 c 0
 19 446 15 456 18 461 c 0
 23 472 27 501 29 515 c 0
 29.8485 520.94 31 527 40 527 c 0
 45 527 57.169 518.52 69 518 c 24
EndSplineSet
Validated: 33
EndChar

StartChar: uni1E00
Encoding: 7680 7680 353
Width: 555
VWidth: 0
Flags: W
HStem: -3 24<32.5977 66.9577 182.452 212.952 498.912 529.715> 139 27<198.819 333.7> 443 20<310.5 314> 700 22<329.231 387.418> 841 23<324.626 384.121>
VStem: 266.913 38<737.768 829.107> 406.913 38<734.305 826.104>
LayerCount: 2
Fore
SplineSet
359.913085938 864 m 16
 407.913085938 864 444.913085938 835 444.913085938 787 c 8
 444.913085938 737 401.913085938 700 351.913085938 700 c 8
 306.913085938 700 266.913085938 729 266.913085938 779 c 8
 266.913085938 828 310.913085938 864 359.913085938 864 c 16
304.913085938 782 m 8
 304.913085938 750 328.913085938 722 360.913085938 722 c 24
 389.913085938 722 406.913085938 754 406.913085938 782 c 8
 406.913085938 813 383.913085938 841 352.913085938 841 c 24
 322.913085938 841 304.913085938 811 304.913085938 782 c 8
EndSplineSet
Refer: 31 65 N 1 0 0 1 0 0 3
Validated: 1
EndChar

StartChar: uni1E08
Encoding: 7688 7688 361
Width: 429
VWidth: 0
Flags: W
HStem: -286.6 49<176.47 250.045> -14 9.40039<259.5 290.5> 427 31<184.191 329.172> 776.27 72<418.32 527.041>
VStem: 12 83<132.261 317.163> 269.5 50<-218.312 -135.1>
LayerCount: 2
Fore
SplineSet
315 727.26953125 m 0
 306 725.26953125 293 722.26953125 281 725.26953125 c 0
 273 727.26953125 273 740.26953125 284 747.26953125 c 0
 353 791.26953125 385 811.26953125 448 843.26953125 c 0
 466 853.26953125 482 857.26953125 500 848.26953125 c 24
 521 838.26953125 534 824.26953125 535 802.26953125 c 24
 535 786.26953125 517 779.26953125 503 776.26953125 c 0
 442 761.26953125 368 742.26953125 315 727.26953125 c 0
EndSplineSet
Refer: 136 199 N 1 0 0 1 0 0 3
Validated: 37
EndChar

StartChar: uni1E0A
Encoding: 7690 7690 363
Width: 519
VWidth: 0
Flags: W
HStem: -3 36<172.032 337.854> 0 24<18.1875 49.5789> 422 31<142.997 312.128> 700 110<298.847 385.153>
VStem: 83 75<45.4952 399.614> 287 110<711.847 798.153> 421 85<131.07 322.825>
LayerCount: 2
Fore
SplineSet
342 810 m 24x3e
 372 810 397 785 397 755 c 24
 397 725 372 700 342 700 c 24
 312 700 287 725 287 755 c 24
 287 785 312 810 342 810 c 24x3e
EndSplineSet
Refer: 43 68 N 1 0 0 1 0 0 3
Validated: 1
EndChar

StartChar: uni1E12
Encoding: 7698 7698 371
Width: 519
VWidth: 0
Flags: W
HStem: -3 36<172.032 337.854> 0 24<18.1875 49.5789> 422 31<142.997 312.128> 700 21G<193.5 207.5>
VStem: 83 75<45.4952 399.614> 421 85<131.07 322.825>
LayerCount: 2
Fore
SplineSet
352 763 m 0x3c
 341 770 343 770 332 763 c 0
 306 748 302 744 253 718 c 0
 241 711 214 700 201 700 c 0
 186 700 181 712 193 722 c 0
 261 779 203 732 301 810 c 0
 321 826 327 832 342 832 c 0
 357 832 363 826 383 810 c 0
 481 732 423 779 491 722 c 0
 503 712 498 699 483 699 c 0
 470 699 460 707 448 714 c 0
 399 740 378 748 352 763 c 0x3c
EndSplineSet
Refer: 43 68 N 1 0 0 1 0 0 3
Validated: 1
EndChar

StartChar: uni1E28
Encoding: 7720 7720 393
Width: 862
VWidth: 0
Flags: W
HStem: -276.566 53<68.7045 165.825> -3 25<36.426 87.3514 279.196 330.967 527.426 578.351 768.196 819.967> 307 40<220.961 634.954> 630 22<49.7112 81.5314 285.062 317.36 540.711 572.531 774.062 806.36>
VStem: 140.955 80<59.1101 307.36 346.86 593.237> 175.954 53<-218.237 -139.898> 634.955 80<57.7032 307.275 346.552 591.937>
LayerCount: 2
Fore
SplineSet
220.955 356 m 0xfa
 220.955 348 228.955 347 234.955 347 c 0
 387.955 344 474.955 342 627.955 347 c 0
 632.955 347 634.955 350 634.955 359 c 0
 634.955 421 633.955 478 631.955 557 c 0
 630.955 575 621.955 584 608.955 596 c 0
 587.955 614 570.955 620 546.955 630 c 0
 536.955 634 537.955 652 546.955 652 c 0
 606.955 652 621.955 649 669.955 649 c 0
 720.955 649 741.955 652 799.955 652 c 0
 811.955 652 808.955 634 799.955 630 c 0
 775.955 620 754.955 613 733.955 595 c 0
 722.955 586 714.955 574 714.955 557 c 0
 714.955 380 714.955 284 714.955 109 c 0
 714.955 87 717.955 72 733.955 57 c 0
 757.955 35 778.955 28 809.955 22 c 0
 825.937 18.9067 825.955 -3 809.955 -3 c 0
 752.955 -3 724.955 2 669.955 2 c 0
 617.955 2 590.955 -3 536.955 -3 c 0
 524.955 -3 519.955 19 536.955 22 c 0
 566.955 28 588.955 35 612.955 57 c 0
 628.955 72 630.955 87 631.955 109 c 0
 633.955 185 634.955 241 634.955 300 c 0
 634.955 307 632.955 307 629.955 307 c 0
 471.955 310 383.955 311 225.955 307 c 0
 220.955 307 220.955 304 220.955 296 c 0xfa
 220.955 238 222.955 183 225.955 109 c 0
 226.955 87 228.955 72 244.955 57 c 0
 268.955 35 289.955 28 320.955 22 c 0
 336.937 18.9067 336.955 -3 320.955 -3 c 0
 266.167 -3 240.02 1.61941 191.008 1.97799 c 1
 152.954 -55.5664 l 2
 147.954 -62.5664 157.954 -69.5664 162.954 -71.5664 c 0
 190.954 -83.5664 228.954 -113.566 228.954 -160.566 c 0
 228.954 -228.566 144.954 -276.566 99.9541 -276.566 c 0
 79.9541 -276.566 70.9541 -276.566 61.9541 -263.566 c 0
 51.9541 -250.566 54.9541 -238.566 59.9541 -222.566 c 0
 61.9541 -215.566 67.9541 -208.566 73.9541 -211.566 c 0
 96.9541 -221.566 120.954 -223.566 133.954 -223.566 c 0
 150.954 -223.566 175.954 -213.566 175.954 -184.566 c 0xf6
 175.954 -160.566 163.954 -134.566 128.954 -132.566 c 0
 121.954 -132.566 112.954 -131.566 101.954 -133.566 c 0
 94.9541 -134.566 82.9541 -130.566 78.9541 -123.566 c 0
 75.9541 -118.566 78.9541 -106.566 82.9541 -101.566 c 2
 159.39 1.62174 l 1
 119.851 0.456535 90.8533 -3 45.9551 -3 c 0
 33.9551 -3 28.9551 19 45.9551 22 c 0
 75.9551 28 97.9551 35 121.955 57 c 0
 137.955 72 140.955 87 140.955 109 c 0
 140.955 283 140.955 377 140.955 557 c 0
 140.955 575 130.955 584 117.955 596 c 0
 96.9551 614 79.9551 620 55.9551 630 c 0
 45.9551 634 46.9551 652 55.9551 652 c 0
 115.955 652 134.955 649 184.955 649 c 0
 233.955 649 252.955 652 310.955 652 c 0
 322.955 652 319.955 634 310.955 630 c 0
 286.955 620 265.955 613 244.955 595 c 0
 233.955 586 226.955 574 225.955 557 c 0
 222.955 477 220.955 419 220.955 356 c 0xfa
EndSplineSet
Validated: 33
EndChar

StartChar: uni1E29
Encoding: 7721 7721 394
Width: 487
VWidth: 0
Flags: W
HStem: -270.767 50<49.5167 126.361> -3 25<21.542 69.4288 166.891 211.225 298.542 343.431 435.433 480.225> 362 52<226.693 320.965>
VStem: 83 70<35.567 335.349 351.291 626.703> 138 42<-214.621 -143.783> 357 70<35.5812 324.754>
LayerCount: 2
Fore
SplineSet
180 -160.767 m 0xec
 180 -207.267 120 -270.767 75 -270.767 c 0
 55 -270.767 48.5001 -263.267 43.5 -256.767 c 0
 39.1886 -251.162 37 -237.267 37 -224.767 c 0
 37 -216.967 48.292 -212.767 55 -212.767 c 0
 61 -212.767 90 -220.767 103 -220.767 c 0
 120 -220.767 138 -213.767 138 -184.767 c 0xec
 138 -160.767 121.5 -135.267 86.5 -133.267 c 0
 79.5 -133.267 70 -133.767 59 -135.767 c 0
 52 -136.767 45 -127.267 41 -120.267 c 0
 38 -115.267 40 -108.767 44 -103.767 c 2
 121.867 2 l 1
 120.605 2 119.317 2 118 2 c 0
 82.4561 2 66 -3 27 -3 c 0
 18 -3 18 17 27 22 c 0
 34 26 58 23 70 35 c 0
 81.5986 46.5986 83 59 83 75 c 0
 83 345 83 375 83 566 c 0
 83 602 72 632 38 639 c 0
 28.4424 640.968 27.502 661.765 37 664 c 0
 87.9994 676.003 121 692 153 704 c 0
 158 706 160 702 162 698 c 1
 162 686 153 669 153 562 c 0
 153 499 153 439 153 388 c 0xf4
 153 376 156 357 161 351 c 1
 192 374 249 414 312 414 c 0
 377 414 427 372 427 294 c 2
 427 85 l 2
 427 56 426 44 435 35 c 1
 444 24 468 25.9998 475 22 c 0
 483.466 17.1628 484 -3 475 -3 c 0
 436 -3 424.429 2 392 2 c 0
 357.625 2 343 -3 304 -3 c 0
 295 -3 295 17 304 22 c 0
 311 26 332 23 344 35 c 0
 356.389 47.3887 357 60.4805 357 78 c 2
 357 272 l 2
 357 322.754 306 362 263 362 c 0
 238 362 199 355 180 340 c 0xec
 158.881 323.327 153 309 153 268 c 0
 153 189 153 140 153 78 c 0xf4
 153 62 155.055 47.05 166 35 c 0
 175.045 25.0413 199 25.9998 206 22 c 0
 214.466 17.1628 215 -3 206 -3 c 0
 182.249 -3 167.539 -1.14565 151.902 0.304479 c 1
 109 -61.7666 l 2
 104 -68.7666 114 -75.7666 119 -77.7666 c 0
 147 -89.7666 180 -113.767 180 -160.767 c 0xec
EndSplineSet
Validated: 33
EndChar

StartChar: uni1E2C
Encoding: 7724 7724 397
Width: 320
VWidth: 0
Flags: W
HStem: -3 24<54.3203 98.3583 234.049 277.734> 429 23<63.6897 93.4601 236.74 267.915> 737 63<103.686 288.626> 745 63<72.8061 260.72>
VStem: 20.9531 320 128 75<45.4878 409.42>
LayerCount: 2
Fore
SplineSet
20.953125 731 m 0xd8
 46.357421875 767.280273438 92.953125 808 107.953125 808 c 0xd8
 132.953125 808 239.953125 800 264.953125 800 c 0
 279.953125 800 304.953125 815 321.953125 837 c 0
 326.953125 844 344.801757812 824.497070312 340.953125 819 c 4
 323.510742188 794.08984375 273.953125 737 258.953125 737 c 0xe8
 233.953125 737 121.953125 745 96.953125 745 c 0
 81.953125 745 57.953125 731 41.953125 713 c 0
 36.953125 708 17.103515625 725.502929688 20.953125 731 c 0xd8
EndSplineSet
Refer: 33 73 N 1 0 0 1 0 0 3
Validated: 1
EndChar

StartChar: uni1E30
Encoding: 7728 7728 401
Width: 524
VWidth: 0
Flags: W
HStem: -4 24<30.6966 66.8555 198.959 232.437 293.469 335.03 457.662 502.938> 225 20<173.025 189.046> 418 32<296.566 324.6> 425 25<38.9238 69.6776 192.592 229.989 415.309 468.063> 754 72<359.274 467.995>
VStem: 98 75<47.4944 224.993 245.004 407.713>
LayerCount: 2
Fore
SplineSet
255.954101562 705 m 0xcc
 246.954101562 703 233.954101562 700 221.954101562 703 c 0
 213.954101562 705 213.954101562 718 224.954101562 725 c 0
 293.954101562 769 325.954101562 789 388.954101562 821 c 0
 406.954101562 831 422.954101562 835 440.954101562 826 c 24
 461.954101562 816 474.954101562 802 475.954101562 780 c 24
 475.954101562 764 457.954101562 757 443.954101562 754 c 0
 382.954101562 739 308.954101562 720 255.954101562 705 c 0xcc
EndSplineSet
Refer: 61 75 N 1 0 0 1 0 0 3
Validated: 33
EndChar

StartChar: uni1E32
Encoding: 7730 7730 403
Width: 524
VWidth: 0
Flags: W
HStem: -4 24<30.6966 66.8555 198.959 232.437 293.469 335.03 457.662 502.938> 225 20<173.025 189.046> 418 32<296.566 324.6> 425 25<38.9238 69.6776 192.592 229.989 415.309 468.063> 700 110<299.802 386.108>
VStem: 98 75<47.4944 224.993 245.004 407.713> 287.955 110<711.847 798.153>
LayerCount: 2
Fore
SplineSet
342.955078125 810 m 24xce
 372.955078125 810 397.955078125 785 397.955078125 755 c 24
 397.955078125 725 372.955078125 700 342.955078125 700 c 24
 312.955078125 700 287.955078125 725 287.955078125 755 c 24
 287.955078125 785 312.955078125 810 342.955078125 810 c 24xce
EndSplineSet
Refer: 61 75 N 1 0 0 1 0 0 3
Validated: 1
EndChar

StartChar: uni1E34
Encoding: 7732 7732 405
Width: 524
VWidth: 0
Flags: W
HStem: -4 24<30.6966 66.8555 198.959 232.437 293.469 335.03 457.662 502.938> 225 20<173.025 189.046> 418 32<296.566 324.6> 425 25<38.9238 69.6776 192.592 229.989 415.309 468.063> 723 54<196.622 486.641>
VStem: 98 75<47.4944 224.993 245.004 407.713>
LayerCount: 2
Fore
SplineSet
216.954101562 777 m 30xcc
 479.954101562 777 l 30
 487.405273438 777 495.310546875 770.068359375 492.954101562 763 c 28
 486.712890625 744.276367188 481.690429688 723 461.954101562 723 c 30
 206.954101562 723 l 30
 199.762695312 723 192.954101562 729 192.954101562 735 c 4
 192.954101562 744 198.088867188 777 216.954101562 777 c 30xcc
EndSplineSet
Refer: 61 75 N 1 0 0 1 0 0 3
Validated: 1
EndChar

StartChar: uni1E36
Encoding: 7734 7734 407
Width: 444
VWidth: 0
Flags: W
HStem: -1 22<19.3836 56.1625> 2 30<175.271 350.335> 428 24<31.3807 69.0295 192.197 246.501> 700 110<143.226 229.532>
VStem: 89 75<40.2419 405.613> 131.379 110<711.847 798.153>
LayerCount: 2
Fore
SplineSet
186.37890625 810 m 24x34
 216.37890625 810 241.37890625 785 241.37890625 755 c 24
 241.37890625 725 216.37890625 700 186.37890625 700 c 24
 156.37890625 700 131.37890625 725 131.37890625 755 c 24
 131.37890625 785 156.37890625 810 186.37890625 810 c 24x34
EndSplineSet
Refer: 36 76 N 1 0 0 1 0 0 3
Validated: 1
EndChar

StartChar: uni1E3A
Encoding: 7738 7738 411
Width: 444
VWidth: 0
Flags: W
HStem: -1 22<19.3836 56.1625> 2 30<175.271 350.335> 428 24<31.3807 69.0295 192.197 246.501> 723 54<40.0472 330.066>
VStem: 89 75<40.2419 405.613>
LayerCount: 2
Fore
SplineSet
60.37890625 777 m 30x38
 323.37890625 777 l 30
 330.830078125 777 338.735351562 770.068359375 336.37890625 763 c 28
 330.137695312 744.276367188 325.115234375 723 305.37890625 723 c 30
 50.37890625 723 l 30
 43.1875 723 36.37890625 729 36.37890625 735 c 4
 36.37890625 744 41.513671875 777 60.37890625 777 c 30x38
EndSplineSet
Refer: 36 76 N 1 0 0 1 0 0 3
Validated: 1
EndChar

StartChar: uni1E3E
Encoding: 7742 7742 415
Width: 720
VWidth: 0
Flags: W
HStem: -3 25<50.4305 95.0426 181.751 217.873 482.645 513.031 649.934 686.673> 431 24<68.6118 111.979 618.831 663.924> 754 72<465.2 573.921>
LayerCount: 2
Fore
SplineSet
361.879882812 705 m 0
 352.879882812 703 339.879882812 700 327.879882812 703 c 0
 319.879882812 705 319.879882812 718 330.879882812 725 c 0
 399.879882812 769 431.879882812 789 494.879882812 821 c 0
 512.879882812 831 528.879882812 835 546.879882812 826 c 24
 567.879882812 816 580.879882812 802 581.879882812 780 c 24
 581.879882812 764 563.879882812 757 549.879882812 754 c 0
 488.879882812 739 414.879882812 720 361.879882812 705 c 0
EndSplineSet
Refer: 27 77 N 1 0 0 1 0 0 3
Validated: 33
EndChar

StartChar: uni1E42
Encoding: 7746 7746 419
Width: 720
VWidth: 0
Flags: W
HStem: -3 25<50.4305 95.0426 181.751 217.873 482.645 513.031 649.934 686.673> 431 24<68.6118 111.979 618.831 663.924> 700 110<405.727 492.033>
VStem: 393.88 110<711.847 798.153>
LayerCount: 2
Fore
SplineSet
448.879882812 810 m 24
 478.879882812 810 503.879882812 785 503.879882812 755 c 24
 503.879882812 725 478.879882812 700 448.879882812 700 c 24
 418.879882812 700 393.879882812 725 393.879882812 755 c 24
 393.879882812 785 418.879882812 810 448.879882812 810 c 24
EndSplineSet
Refer: 27 77 N 1 0 0 1 0 0 3
Validated: 1
EndChar

StartChar: uni1E44
Encoding: 7748 7748 421
Width: 631
VWidth: 0
Flags: W
HStem: -14 21<510.919 529.176> -3 24<62.3025 102.76 192.857 225.931> 425 24<52.9092 103.383 431.989 469.611 576.188 609.063> 700 110<373.596 459.902>
VStem: 129 46<86.0745 336.475> 361.749 110<711.847 798.153> 507 40<109.998 403.448>
LayerCount: 2
Fore
SplineSet
416.749023438 810 m 24x3e
 446.749023438 810 471.749023438 785 471.749023438 755 c 24
 471.749023438 725 446.749023438 700 416.749023438 700 c 24
 386.749023438 700 361.749023438 725 361.749023438 755 c 24
 361.749023438 785 386.749023438 810 416.749023438 810 c 24x3e
EndSplineSet
Refer: 28 78 N 1 0 0 1 0 0 3
Validated: 1
EndChar

StartChar: uni1E48
Encoding: 7752 7752 425
Width: 631
VWidth: 0
Flags: W
HStem: -14 21<510.919 529.176> -3 24<62.3025 102.76 192.857 225.931> 425 24<52.9092 103.383 431.989 469.611 576.188 609.063> 723 54<243.417 533.436>
VStem: 129 46<86.0745 336.475> 507 40<109.998 403.448>
LayerCount: 2
Fore
SplineSet
263.749023438 777 m 30x3c
 526.749023438 777 l 30
 534.200195312 777 542.10546875 770.068359375 539.749023438 763 c 28
 533.5078125 744.276367188 528.485351562 723 508.749023438 723 c 30
 253.749023438 723 l 30
 246.557617188 723 239.749023438 729 239.749023438 735 c 4
 239.749023438 744 244.883789062 777 263.749023438 777 c 30x3c
EndSplineSet
Refer: 28 78 N 1 0 0 1 0 0 3
Validated: 1
EndChar

StartChar: uni1E4A
Encoding: 7754 7754 427
Width: 631
VWidth: 0
Flags: W
HStem: -14 21<510.919 529.176> -3 24<62.3025 102.76 192.857 225.931> 425 24<52.9092 103.383 431.989 469.611 576.188 609.063> 700 21G<241.249 255.249>
VStem: 129 46<86.0745 336.475> 507 40<109.998 403.448>
LayerCount: 2
Fore
SplineSet
399.749023438 763 m 0x3c
 388.749023438 770 390.749023438 770 379.749023438 763 c 0
 353.749023438 748 349.749023438 744 300.749023438 718 c 0
 288.749023438 711 261.749023438 700 248.749023438 700 c 0
 233.749023438 700 228.749023438 712 240.749023438 722 c 0
 308.749023438 779 250.749023438 732 348.749023438 810 c 0
 368.749023438 826 374.749023438 832 389.749023438 832 c 0
 404.749023438 832 410.749023438 826 430.749023438 810 c 0
 528.749023438 732 470.749023438 779 538.749023438 722 c 0
 550.749023438 712 545.749023438 699 530.749023438 699 c 0
 517.749023438 699 507.749023438 707 495.749023438 714 c 0
 446.749023438 740 425.749023438 748 399.749023438 763 c 0x3c
EndSplineSet
Refer: 28 78 N 1 0 0 1 0 0 3
Validated: 1
EndChar

StartChar: uni1E4E
Encoding: 7758 7758 431
Width: 605
VWidth: 0
Flags: W
HStem: -15 37<242.335 386.997> 424 32<229.322 364.877> 515 66<261.585 396.262> 528 67<233.463 368.915> 880.486 110<382.928 469.234 572.928 659.234>
VStem: 66 85<119.755 310.96> 182 266 371.081 110<892.333 978.64> 468 84<121.475 314.94> 561.081 110<892.333 978.64>
LayerCount: 2
Fore
SplineSet
616.081054688 990.486328125 m 24xcc40
 646.081054688 990.486328125 671.081054688 965.486328125 671.081054688 935.486328125 c 24
 671.081054688 905.486328125 646.081054688 880.486328125 616.081054688 880.486328125 c 24
 586.081054688 880.486328125 561.081054688 905.486328125 561.081054688 935.486328125 c 24
 561.081054688 965.486328125 586.081054688 990.486328125 616.081054688 990.486328125 c 24xcc40
426.081054688 990.486328125 m 24
 456.081054688 990.486328125 481.081054688 965.486328125 481.081054688 935.486328125 c 24
 481.081054688 905.486328125 456.081054688 880.486328125 426.081054688 880.486328125 c 24
 396.081054688 880.486328125 371.081054688 905.486328125 371.081054688 935.486328125 c 24xcd40
 371.081054688 965.486328125 396.081054688 990.486328125 426.081054688 990.486328125 c 24
EndSplineSet
Refer: 149 213 N 1 0 0 1 0 0 3
Validated: 1
EndChar

StartChar: uni1E52
Encoding: 7762 7762 435
Width: 605
VWidth: 0
Flags: W
HStem: -15 37<242.335 386.997> 424 32<229.322 364.877> 516 60<176.737 425.875> 912.269 72<502.82 611.541>
VStem: 66 85<119.755 310.96> 172.844 260 468 84<121.475 314.94>
LayerCount: 2
Fore
SplineSet
399.5 863.268554688 m 0
 390.5 861.268554688 377.5 858.268554688 365.5 861.268554688 c 0
 357.5 863.268554688 357.5 876.268554688 368.5 883.268554688 c 0
 437.5 927.268554688 469.5 947.268554688 532.5 979.268554688 c 0
 550.5 989.268554688 566.5 993.268554688 584.5 984.268554688 c 24
 605.5 974.268554688 618.5 960.268554688 619.5 938.268554688 c 24
 619.5 922.268554688 601.5 915.268554688 587.5 912.268554688 c 0
 526.5 897.268554688 452.5 878.268554688 399.5 863.268554688 c 0
EndSplineSet
Refer: 241 332 N 1 0 0 1 0 0 3
Validated: 33
EndChar

StartChar: uni1E56
Encoding: 7766 7766 439
Width: 468
VWidth: 0
Flags: W
HStem: -3 28<47.0864 89.2581 215.97 257.384> 184 16<221.885 287.262> 424 29<193.049 306.797> 700 110<242.479 328.785>
VStem: 114 75<42.0916 400.614> 230.632 110<711.847 798.153> 356 82<245.048 387.146>
LayerCount: 2
Fore
SplineSet
285.631835938 810 m 24
 315.631835938 810 340.631835938 785 340.631835938 755 c 24
 340.631835938 725 315.631835938 700 285.631835938 700 c 24
 255.631835938 700 230.631835938 725 230.631835938 755 c 24
 230.631835938 785 255.631835938 810 285.631835938 810 c 24
EndSplineSet
Refer: 26 80 N 1 0 0 1 0 0 3
Validated: 1
EndChar

StartChar: uni1E58
Encoding: 7768 7768 441
Width: 547
VWidth: 0
Flags: W
HStem: -14 35<429.98 499.568> -4 25<14.438 48.7442 199.518 228.809> 424 29<25.5276 65.644 166.038 261.371> 700 110<239.513 325.819>
VStem: 82 75<44.9388 203.042 233.012 401.614> 227.666 110<711.847 798.153> 294 84<269.317 397.487>
LayerCount: 2
Fore
SplineSet
282.666015625 810 m 24x3c
 312.666015625 810 337.666015625 785 337.666015625 755 c 24
 337.666015625 725 312.666015625 700 282.666015625 700 c 24
 252.666015625 700 227.666015625 725 227.666015625 755 c 24
 227.666015625 785 252.666015625 810 282.666015625 810 c 24x3c
EndSplineSet
Refer: 29 82 N 1 0 0 1 0 0 3
Validated: 1
EndChar

StartChar: uni1E5E
Encoding: 7774 7774 447
Width: 547
VWidth: 0
Flags: W
HStem: -14 35<429.98 499.568> -4 25<14.438 48.7442 199.518 228.809> 424 29<25.5276 65.644 166.038 261.371> 723 54<136.334 426.353>
VStem: 82 75<44.9388 203.042 233.012 401.614> 294 84<269.317 397.487>
LayerCount: 2
Fore
SplineSet
156.666015625 777 m 30x3c
 419.666015625 777 l 30
 427.1171875 777 435.022460938 770.068359375 432.666015625 763 c 28
 426.424804688 744.276367188 421.40234375 723 401.666015625 723 c 30
 146.666015625 723 l 30
 139.474609375 723 132.666015625 729 132.666015625 735 c 4
 132.666015625 744 137.80078125 777 156.666015625 777 c 30x3c
EndSplineSet
Refer: 29 82 N 1 0 0 1 0 0 3
Validated: 1
EndChar

StartChar: uni1E60
Encoding: 7776 7776 449
Width: 373
VWidth: 0
Flags: W
HStem: -11 35<115.496 225.454> 423 35<143.458 252.654> 700 110<204.916 291.223>
VStem: 53 74<318.853 396.396> 193.069 110<711.847 798.153> 247 84<53.416 148.023> 288 32<337.527 385.485>
LayerCount: 2
Fore
SplineSet
248.069335938 810 m 24xf8
 278.069335938 810 303.069335938 785 303.069335938 755 c 24
 303.069335938 725 278.069335938 700 248.069335938 700 c 24
 218.069335938 700 193.069335938 725 193.069335938 755 c 24
 193.069335938 785 218.069335938 810 248.069335938 810 c 24xf8
EndSplineSet
Refer: 45 83 N 1 0 0 1 0 0 3
Validated: 1
EndChar

StartChar: uni1E62
Encoding: 7778 7778 451
Width: 373
VWidth: 0
Flags: W
HStem: -177 110<183.916 270.223> -11 35<115.496 225.454> 423 35<143.458 252.654>
VStem: 53 74<318.853 396.396> 172.069 110<-165.153 -78.8467> 247 84<53.416 148.023> 288 32<337.527 385.485>
LayerCount: 2
Fore
SplineSet
227.069335938 -67 m 24xf8
 257.069335938 -67 282.069335938 -92 282.069335938 -122 c 24
 282.069335938 -152 257.069335938 -177 227.069335938 -177 c 24
 197.069335938 -177 172.069335938 -152 172.069335938 -122 c 24
 172.069335938 -92 197.069335938 -67 227.069335938 -67 c 24xf8
EndSplineSet
Refer: 45 83 N 1 0 0 1 0 0 3
Validated: 1
EndChar

StartChar: uni1E66
Encoding: 7782 7782 455
Width: 373
VWidth: 0
Flags: W
HStem: -11 35<115.496 225.454> 423 35<143.458 252.654> 518 224 893 110<345.916 432.223>
VStem: 53 74<318.853 396.396> 65 280 247 84<53.416 148.023> 288 32<337.527 385.485> 334.069 110<904.847 991.153>
LayerCount: 2
Fore
SplineSet
389.069335938 1003 m 24xf080
 419.069335938 1003 444.069335938 978 444.069335938 948 c 24
 444.069335938 918 419.069335938 893 389.069335938 893 c 24
 359.069335938 893 334.069335938 918 334.069335938 948 c 24
 334.069335938 978 359.069335938 1003 389.069335938 1003 c 24xf080
EndSplineSet
Refer: 259 352 N 1 0 0 1 0 0 3
Validated: 1
EndChar

StartChar: uni1E68
Encoding: 7784 7784 457
Width: 373
VWidth: 0
Flags: W
HStem: -177 110<183.916 270.223> -11 35<115.496 225.454> 423 35<143.458 252.654> 700 110<204.916 291.223>
VStem: 53 74<318.853 396.396> 172.069 110<-165.153 -78.8467> 193.069 110<711.847 798.153> 247 84<53.416 148.023> 288 32<337.527 385.485>
LayerCount: 2
Fore
SplineSet
248.069335938 810 m 24xfa
 278.069335938 810 303.069335938 785 303.069335938 755 c 24
 303.069335938 725 278.069335938 700 248.069335938 700 c 24
 218.069335938 700 193.069335938 725 193.069335938 755 c 24
 193.069335938 785 218.069335938 810 248.069335938 810 c 24xfa
EndSplineSet
Refer: 451 7778 N 1 0 0 1 0 0 3
Validated: 1
EndChar

StartChar: uni1E6C
Encoding: 7788 7788 461
Width: 489
VWidth: 0
Flags: W
HStem: -178 110<295.163 381.47> -3 25<121.73 164.086 296.914 339.703> 406 41<72.246 180.16 268.66 420.189>
VStem: 23 34<358.276 395.937> 193 75<46.4591 403.896> 283.316 110<-166.153 -79.8467> 424 28<347.656 398.928>
LayerCount: 2
Fore
SplineSet
338.31640625 -68 m 24
 368.31640625 -68 393.31640625 -93 393.31640625 -123 c 24
 393.31640625 -153 368.31640625 -178 338.31640625 -178 c 24
 308.31640625 -178 283.31640625 -153 283.31640625 -123 c 24
 283.31640625 -93 308.31640625 -68 338.31640625 -68 c 24
EndSplineSet
Refer: 34 84 N 1 0 0 1 0 0 3
Validated: 1
EndChar

StartChar: uni1E72
Encoding: 7794 7794 467
Width: 563
VWidth: 0
Flags: W
HStem: -13 35<238.389 374.945> 425 25<35.0211 68.4721 167.691 200.01 380.363 415.874 499.32 542.199> 700 110<245.222 331.528 435.222 521.528>
VStem: 80 75<101.856 419.064> 233.375 110<711.847 798.153> 423.375 110<711.847 798.153> 431 44<89.461 410.762>
LayerCount: 2
Fore
SplineSet
478.375 810 m 24xfc
 508.375 810 533.375 785 533.375 755 c 24
 533.375 725 508.375 700 478.375 700 c 24
 448.375 700 423.375 725 423.375 755 c 24
 423.375 785 448.375 810 478.375 810 c 24xfc
288.375 810 m 24
 318.375 810 343.375 785 343.375 755 c 24
 343.375 725 318.375 700 288.375 700 c 24
 258.375 700 233.375 725 233.375 755 c 24
 233.375 785 258.375 810 288.375 810 c 24
EndSplineSet
Refer: 48 85 N 1 0 0 1 0 0 3
Validated: 1
EndChar

StartChar: uni1E78
Encoding: 7800 7800 473
Width: 563
VWidth: 0
Flags: W
HStem: -13 35<238.389 374.945> 425 25<35.0211 68.4721 167.691 200.01 380.363 415.874 499.32 542.199> 532.908 73<490.782 631.38> 548.908 73<450.851 591.905> 899.755 72<408.776 517.497>
VStem: 80 75<101.856 419.064> 409.967 260 431 44<89.461 410.762>
LayerCount: 2
Fore
SplineSet
305.456054688 850.754882812 m 0xcc
 296.456054688 848.754882812 283.456054688 845.754882812 271.456054688 848.754882812 c 0
 263.456054688 850.754882812 263.456054688 863.754882812 274.456054688 870.754882812 c 0
 343.456054688 914.754882812 375.456054688 934.754882812 438.456054688 966.754882812 c 0
 456.456054688 976.754882812 472.456054688 980.754882812 490.456054688 971.754882812 c 24
 511.456054688 961.754882812 524.456054688 947.754882812 525.456054688 925.754882812 c 24
 525.456054688 909.754882812 507.456054688 902.754882812 493.456054688 899.754882812 c 0
 432.456054688 884.754882812 358.456054688 865.754882812 305.456054688 850.754882812 c 0xcc
EndSplineSet
Refer: 265 360 N 1 0 0 1 0 0 3
Validated: 33
EndChar

StartChar: uni1E7E
Encoding: 7806 7806 479
Width: 537
VWidth: 0
Flags: W
HStem: 432 20<189.955 227.359 349.151 374.832 477.195 515.433> 700 110<283.222 369.528>
VStem: 271.375 110<711.847 798.153>
LayerCount: 2
Fore
SplineSet
326.375 810 m 24
 356.375 810 381.375 785 381.375 755 c 24
 381.375 725 356.375 700 326.375 700 c 24
 296.375 700 271.375 725 271.375 755 c 24
 271.375 785 296.375 810 326.375 810 c 24
EndSplineSet
Refer: 37 86 N 1 0 0 1 0 0 3
Validated: 1
EndChar

StartChar: uni1E88
Encoding: 7816 7816 489
Width: 719
VWidth: 0
Flags: W
HStem: 425 23<9.83059 40.5764 151.975 197.041 218.111 254.615 471.288 519.559 540.984 576.861 656.654 698.004> 701 110<453.597 539.903>
VStem: 441.75 110<712.847 799.153>
LayerCount: 2
Fore
SplineSet
496.75 811 m 24
 526.75 811 551.75 786 551.75 756 c 24
 551.75 726 526.75 701 496.75 701 c 24
 466.75 701 441.75 726 441.75 756 c 24
 441.75 786 466.75 811 496.75 811 c 24
EndSplineSet
Refer: 38 87 N 1 0 0 1 0 0 3
Validated: 1
EndChar

StartChar: uni1E8C
Encoding: 7820 7820 493
Width: 543
VWidth: 0
Flags: W
HStem: -3 25<29.7561 76.4045 163.306 204.768 279.048 328.52 461.198 502.169> 424 25<44.5154 100.871 206.767 243.127 335.674 361.286> 700 110<233.107 319.414 423.107 509.414>
VStem: 221.261 110<711.847 798.153> 411.261 110<711.847 798.153>
LayerCount: 2
Fore
SplineSet
466.260742188 810 m 24
 496.260742188 810 521.260742188 785 521.260742188 755 c 24
 521.260742188 725 496.260742188 700 466.260742188 700 c 24
 436.260742188 700 411.260742188 725 411.260742188 755 c 24
 411.260742188 785 436.260742188 810 466.260742188 810 c 24
276.260742188 810 m 24
 306.260742188 810 331.260742188 785 331.260742188 755 c 24
 331.260742188 725 306.260742188 700 276.260742188 700 c 24
 246.260742188 700 221.260742188 725 221.260742188 755 c 24
 221.260742188 785 246.260742188 810 276.260742188 810 c 24
EndSplineSet
Refer: 63 88 N 1 0 0 1 0 0 3
Validated: 1
EndChar

StartChar: uni1EA4
Encoding: 7844 7844 510
Width: 555
VWidth: 0
Flags: W
HStem: -3 24<32.5977 66.9576 182.452 212.952 498.912 529.715> 139 27<198.819 333.7> 443 20<310.5 314> 502 201 944.269 72<483.233 591.954>
VStem: 182 212
LayerCount: 2
Fore
SplineSet
379.913085938 895.268554688 m 0
 370.913085938 893.268554688 357.913085938 890.268554688 345.913085938 893.268554688 c 0
 337.913085938 895.268554688 337.913085938 908.268554688 348.913085938 915.268554688 c 0
 417.913085938 959.268554688 449.913085938 979.268554688 512.913085938 1011.26855469 c 0
 530.913085938 1021.26855469 546.913085938 1025.26855469 564.913085938 1016.26855469 c 24
 585.913085938 1006.26855469 598.913085938 992.268554688 599.913085938 970.268554688 c 24
 599.913085938 954.268554688 581.913085938 947.268554688 567.913085938 944.268554688 c 0
 506.913085938 929.268554688 432.913085938 910.268554688 379.913085938 895.268554688 c 0
EndSplineSet
Refer: 132 194 N 1 0 0 1 0 0 3
Validated: 33
EndChar

StartChar: uni1EAA
Encoding: 7850 7850 514
Width: 555
VWidth: 0
Flags: W
HStem: -3 24<32.5977 66.9576 182.452 212.952 498.912 529.715> 139 27<198.819 333.7> 443 20<310.5 314> 502 201 935.977 63<285.635 470.575> 943.977 63<254.755 442.669>
VStem: 182 212
LayerCount: 2
Fore
SplineSet
202.90234375 929.9765625 m 0xf6
 228.305664062 966.256835938 274.90234375 1006.9765625 289.90234375 1006.9765625 c 0xf6
 314.90234375 1006.9765625 421.90234375 998.9765625 446.90234375 998.9765625 c 0
 461.90234375 998.9765625 486.90234375 1013.9765625 503.90234375 1035.9765625 c 0
 508.90234375 1042.9765625 526.750976562 1023.47363281 522.90234375 1017.9765625 c 4
 505.459960938 993.067382812 455.90234375 935.9765625 440.90234375 935.9765625 c 0xfa
 415.90234375 935.9765625 303.90234375 943.9765625 278.90234375 943.9765625 c 0
 263.90234375 943.9765625 239.90234375 929.9765625 223.90234375 911.9765625 c 0
 218.90234375 906.9765625 199.052734375 924.48046875 202.90234375 929.9765625 c 0xf6
EndSplineSet
Refer: 132 194 N 1 0 0 1 0 0 3
Validated: 1
EndChar

StartChar: uni1EAC
Encoding: 7852 7852 516
Width: 555
VWidth: 0
Flags: W
HStem: -3 24<32.5977 66.9577 182.452 212.952 498.912 529.715> 139 27<198.819 333.7> 443 20<310.5 314> 700 110<319.76 406.066>
VStem: 307.913 110<711.847 798.153>
LayerCount: 2
Fore
SplineSet
372.913085938 934 m 0
 361.913085938 941 363.913085938 941 352.913085938 934 c 0
 326.913085938 919 322.913085938 915 273.913085938 889 c 0
 261.913085938 882 234.913085938 871 221.913085938 871 c 0
 206.913085938 871 201.913085938 883 213.913085938 893 c 0
 281.913085938 950 223.913085938 903 321.913085938 981 c 0
 341.913085938 997 347.913085938 1003 362.913085938 1003 c 0
 377.913085938 1003 383.913085938 997 403.913085938 981 c 0
 501.913085938 903 443.913085938 950 511.913085938 893 c 0
 523.913085938 883 518.913085938 870 503.913085938 870 c 0
 490.913085938 870 480.913085938 878 468.913085938 885 c 0
 419.913085938 911 398.913085938 919 372.913085938 934 c 0
EndSplineSet
Refer: 508 7840 N 1 0 0 1 0 0 3
Validated: 1
EndChar

StartChar: uni1EB8
Encoding: 7864 7864 526
Width: 421
VWidth: 0
Flags: W
HStem: -3 24<11.2984 48.228> 3 36<164.786 334.559> 410 41<161.645 328.992> 429 21<22.3123 57.3167> 700 110<228.789 315.096>
VStem: 79 75<45.5227 217.677 253 406.614> 216.942 110<711.847 798.153> 347 19<347.096 375.298>
LayerCount: 2
Fore
SplineSet
271.942382812 810 m 24x0f
 301.942382812 810 326.942382812 785 326.942382812 755 c 24
 326.942382812 725 301.942382812 700 271.942382812 700 c 24
 241.942382812 700 216.942382812 725 216.942382812 755 c 24
 216.942382812 785 241.942382812 810 271.942382812 810 c 24x0f
EndSplineSet
Refer: 35 69 N 1 0 0 1 0 0 3
Validated: 1
EndChar

StartChar: uni1EC0
Encoding: 7872 7872 532
Width: 421
VWidth: 0
Flags: W
HStem: -3 24<11.2984 48.2279> 3 36<164.786 334.559> 410 41<161.645 328.992> 429 21<22.3123 57.3167> 504 201 944.269 72<42.9014 151.623>
VStem: 79 75<45.5227 217.677 253 406.614> 100 212 347 19<347.096 375.298>
LayerCount: 2
Fore
SplineSet
254.942382812 895.268554688 m 0x0c80
 201.942382812 910.268554688 127.942382812 929.268554688 66.9423828125 944.268554688 c 0
 52.9423828125 947.268554688 34.9423828125 954.268554688 34.9423828125 970.268554688 c 24
 35.9423828125 992.268554688 48.9423828125 1006.26855469 69.9423828125 1016.26855469 c 24
 87.9423828125 1025.26855469 103.942382812 1021.26855469 121.942382812 1011.26855469 c 0
 184.942382812 979.268554688 216.942382812 959.268554688 285.942382812 915.268554688 c 0
 296.942382812 908.268554688 296.942382812 895.268554688 288.942382812 893.268554688 c 0
 276.942382812 890.268554688 263.942382812 893.268554688 254.942382812 895.268554688 c 0x0c80
EndSplineSet
Refer: 139 202 N 1 0 0 1 0 0 3
Validated: 33
EndChar

StartChar: uni1EC4
Encoding: 7876 7876 534
Width: 421
VWidth: 0
Flags: W
HStem: -3 24<11.2984 48.2279> 3 36<164.786 334.559> 410 41<161.645 328.992> 429 21<22.3123 57.3167> 504 201 935.977 63<194.664 379.604> 943.977 63<163.784 351.698>
VStem: 79 75<45.5227 217.677 253 406.614> 100 212 347 19<347.096 375.298>
LayerCount: 2
Fore
SplineSet
111.930664062 929.9765625 m 0x0a40
 137.334960938 966.256835938 183.930664062 1006.9765625 198.930664062 1006.9765625 c 0x0a40
 223.930664062 1006.9765625 330.930664062 998.9765625 355.930664062 998.9765625 c 0
 370.930664062 998.9765625 395.930664062 1013.9765625 412.930664062 1035.9765625 c 0
 417.930664062 1042.9765625 435.779296875 1023.47363281 431.930664062 1017.9765625 c 4
 414.48828125 993.067382812 364.930664062 935.9765625 349.930664062 935.9765625 c 0x0c40
 324.930664062 935.9765625 212.930664062 943.9765625 187.930664062 943.9765625 c 0
 172.930664062 943.9765625 148.930664062 929.9765625 132.930664062 911.9765625 c 0
 127.930664062 906.9765625 108.08203125 924.48046875 111.930664062 929.9765625 c 0x0a40
EndSplineSet
Refer: 139 202 N 1 0 0 1 0 0 3
Validated: 1
EndChar

StartChar: uni1EC6
Encoding: 7878 7878 536
Width: 421
VWidth: 0
Flags: W
HStem: -3 24<11.2984 48.228> 3 36<164.786 334.559> 410 41<161.645 328.992> 429 21<22.3123 57.3167> 700 110<228.789 315.096>
VStem: 79 75<45.5227 217.677 253 406.614> 216.942 110<711.847 798.153> 347 19<347.096 375.298>
LayerCount: 2
Fore
SplineSet
281.942382812 934 m 0x0f
 270.942382812 941 272.942382812 941 261.942382812 934 c 0
 235.942382812 919 231.942382812 915 182.942382812 889 c 0
 170.942382812 882 143.942382812 871 130.942382812 871 c 0
 115.942382812 871 110.942382812 883 122.942382812 893 c 0
 190.942382812 950 132.942382812 903 230.942382812 981 c 0
 250.942382812 997 256.942382812 1003 271.942382812 1003 c 0
 286.942382812 1003 292.942382812 997 312.942382812 981 c 0
 410.942382812 903 352.942382812 950 420.942382812 893 c 0
 432.942382812 883 427.942382812 870 412.942382812 870 c 0
 399.942382812 870 389.942382812 878 377.942382812 885 c 0
 328.942382812 911 307.942382812 919 281.942382812 934 c 0x0f
EndSplineSet
Refer: 526 7864 N 1 0 0 1 0 0 3
Validated: 1
EndChar

StartChar: uni1ED0
Encoding: 7888 7888 542
Width: 605
VWidth: 0
Flags: W
HStem: -15 37<242.335 386.997> 424 32<229.322 364.877> 504 201 944.269 72<497.32 606.041>
VStem: 66 85<119.755 310.96> 196 212 468 84<121.475 314.94>
LayerCount: 2
Fore
SplineSet
394 895.268554688 m 0
 385 893.268554688 372 890.268554688 360 893.268554688 c 0
 352 895.268554688 352 908.268554688 363 915.268554688 c 0
 432 959.268554688 464 979.268554688 527 1011.26855469 c 0
 545 1021.26855469 561 1025.26855469 579 1016.26855469 c 24
 600 1006.26855469 613 992.268554688 614 970.268554688 c 24
 614 954.268554688 596 947.268554688 582 944.268554688 c 0
 521 929.268554688 447 910.268554688 394 895.268554688 c 0
EndSplineSet
Refer: 148 212 N 1 0 0 1 0 0 3
Validated: 33
EndChar

StartChar: uni1ED6
Encoding: 7894 7894 546
Width: 605
VWidth: 0
Flags: W
HStem: -15 37<242.335 386.997> 424 32<229.322 364.877> 504 201 935.977 63<299.722 484.662> 943.977 63<268.842 456.756>
VStem: 66 85<119.755 310.96> 196 212 468 84<121.475 314.94>
LayerCount: 2
Fore
SplineSet
216.989257812 929.9765625 m 0xef
 242.392578125 966.256835938 288.989257812 1006.9765625 303.989257812 1006.9765625 c 0xef
 328.989257812 1006.9765625 435.989257812 998.9765625 460.989257812 998.9765625 c 0
 475.989257812 998.9765625 500.989257812 1013.9765625 517.989257812 1035.9765625 c 0
 522.989257812 1042.9765625 540.837890625 1023.47363281 536.989257812 1017.9765625 c 4
 519.546875 993.067382812 469.989257812 935.9765625 454.989257812 935.9765625 c 0xf7
 429.989257812 935.9765625 317.989257812 943.9765625 292.989257812 943.9765625 c 0
 277.989257812 943.9765625 253.989257812 929.9765625 237.989257812 911.9765625 c 0
 232.989257812 906.9765625 213.139648438 924.48046875 216.989257812 929.9765625 c 0xef
EndSplineSet
Refer: 148 212 N 1 0 0 1 0 0 3
Validated: 1
EndChar

StartChar: uni1ED8
Encoding: 7896 7896 548
Width: 605
VWidth: 0
Flags: W
HStem: -15 37<242.335 386.997> 424 32<229.322 364.877> 700 110<333.847 420.153>
VStem: 66 85<119.755 310.96> 322 110<711.847 798.153> 468 84<121.475 314.94>
LayerCount: 2
Fore
SplineSet
387 934 m 0
 376 941 378 941 367 934 c 0
 341 919 337 915 288 889 c 0
 276 882 249 871 236 871 c 0
 221 871 216 883 228 893 c 0
 296 950 238 903 336 981 c 0
 356 997 362 1003 377 1003 c 0
 392 1003 398 997 418 981 c 0
 516 903 458 950 526 893 c 0
 538 883 533 870 518 870 c 0
 505 870 495 878 483 885 c 0
 434 911 413 919 387 934 c 0
EndSplineSet
Refer: 540 7884 N 1 0 0 1 0 0 3
Validated: 1
EndChar

StartChar: uni1EE0
Encoding: 7904 7904 554
Width: 783
VWidth: 0
Flags: W
HStem: -14 39<314.694 492.027> 625 39<291.968 474.205> 768.064 63<367.013 551.953> 776.064 63<336.133 524.047>
VStem: 50 97<219.261 447.814> 626 97<206.698 451.269> 706 56<605.697 675.5>
LayerCount: 2
Fore
SplineSet
284.280273438 762.064453125 m 0xd8
 309.68359375 798.344726562 356.280273438 839.064453125 371.280273438 839.064453125 c 0xd8
 396.280273438 839.064453125 503.280273438 831.064453125 528.280273438 831.064453125 c 0
 543.280273438 831.064453125 568.280273438 846.064453125 585.280273438 868.064453125 c 0
 590.280273438 875.064453125 608.12890625 855.561523438 604.280273438 850.064453125 c 4
 586.837890625 825.154296875 537.280273438 768.064453125 522.280273438 768.064453125 c 0xe8
 497.280273438 768.064453125 385.280273438 776.064453125 360.280273438 776.064453125 c 0
 345.280273438 776.064453125 321.280273438 762.064453125 305.280273438 744.064453125 c 0
 300.280273438 739.064453125 280.430664062 756.567382812 284.280273438 762.064453125 c 0xd8
EndSplineSet
Refer: 288 416 N 1 0 0 1 0 0 3
Validated: 1
EndChar

StartChar: uni1EE2
Encoding: 7906 7906 556
Width: 783
VWidth: 0
Flags: W
HStem: -184 110<338.847 425.153> -14 39<314.694 492.027> 625 39<291.968 474.205>
VStem: 50 97<219.261 447.814> 327 110<-172.153 -85.8467> 626 97<206.698 451.269> 706 56<605.697 675.5>
LayerCount: 2
Fore
SplineSet
382 -74 m 24xf8
 412 -74 437 -99 437 -129 c 24
 437 -159 412 -184 382 -184 c 24
 352 -184 327 -159 327 -129 c 24
 327 -99 352 -74 382 -74 c 24xf8
EndSplineSet
Refer: 288 416 N 1 0 0 1 0 0 3
Validated: 1
EndChar

StartChar: uni1EE4
Encoding: 7908 7908 558
Width: 563
VWidth: 0
Flags: W
HStem: -13 35<238.389 374.945> 425 25<35.0211 68.4721 167.691 200.01 380.363 415.874 499.32 542.199> 700 110<340.222 426.528>
VStem: 80 75<101.856 419.064> 328.375 110<711.847 798.153> 431 44<89.461 410.762>
LayerCount: 2
Fore
SplineSet
383.375 810 m 24xf8
 413.375 810 438.375 785 438.375 755 c 24
 438.375 725 413.375 700 383.375 700 c 24
 353.375 700 328.375 725 328.375 755 c 24
 328.375 785 353.375 810 383.375 810 c 24xf8
EndSplineSet
Refer: 48 85 N 1 0 0 1 0 0 3
Validated: 1
EndChar

StartChar: uni1EF8
Encoding: 7928 7928 564
Width: 494
VWidth: 0
Flags: W
HStem: -4 27<127.655 172.989 302.406 347.107> 426 24<23.6411 60.8134 166.547 201.245 302.585 337.089 417.265 457.175> 737 63<237.404 422.344> 745 63<206.524 394.438>
VStem: 200 75<47.4598 248.634>
LayerCount: 2
Fore
SplineSet
154.670898438 731 m 0xd8
 180.075195312 767.280273438 226.670898438 808 241.670898438 808 c 0xd8
 266.670898438 808 373.670898438 800 398.670898438 800 c 0
 413.670898438 800 438.670898438 815 455.670898438 837 c 0
 460.670898438 844 478.51953125 824.497070312 474.670898438 819 c 4
 457.228515625 794.08984375 407.670898438 737 392.670898438 737 c 0xe8
 367.670898438 737 255.670898438 745 230.670898438 745 c 0
 215.670898438 745 191.670898438 731 175.670898438 713 c 0
 170.670898438 708 150.822265625 725.502929688 154.670898438 731 c 0xd8
EndSplineSet
Refer: 49 89 N 1 0 0 1 0 0 3
Validated: 1
EndChar

StartChar: uni1FB9
Encoding: 8121 8121 737
Width: 555
VWidth: 0
Flags: W
HStem: -3 24<32.5977 66.9577 182.452 212.952 498.912 529.715> 139 27<198.819 333.7> 443 20<310.5 314> 730 54<231.507 521.526>
LayerCount: 2
Fore
SplineSet
251.838867188 784 m 30
 514.838867188 784 l 30
 522.290039062 784 530.1953125 777.068359375 527.838867188 770 c 28
 521.59765625 751.276367188 516.575195312 730 496.838867188 730 c 30
 241.838867188 730 l 30
 234.647460938 730 227.838867188 736 227.838867188 742 c 4
 227.838867188 751 232.973632812 784 251.838867188 784 c 30
EndSplineSet
Refer: 631 913 N 1 0 0 1 0 0 3
Validated: 1
EndChar

StartChar: uni1FD9
Encoding: 8153 8153 747
Width: 320
VWidth: 0
Flags: W
HStem: -3 24<54.3203 98.3583 234.049 277.734> 429 23<63.6897 93.4601 236.74 267.915> 724 54<35.0472 325.066>
VStem: 31.3789 300 128 75<45.4878 409.42>
LayerCount: 2
Fore
SplineSet
55.37890625 778 m 30xf0
 318.37890625 778 l 30
 325.830078125 778 333.735351562 771.068359375 331.37890625 764 c 28
 325.137695312 745.276367188 320.115234375 724 300.37890625 724 c 30
 45.37890625 724 l 30
 38.1875 724 31.37890625 730 31.37890625 736 c 4
 31.37890625 745 36.513671875 778 55.37890625 778 c 30xf0
EndSplineSet
Refer: 636 921 N 1 0 0 1 0 0 3
Validated: 1
EndChar

StartChar: uni1FE8
Encoding: 8168 8168 751
Width: 739
VWidth: 0
Flags: W
HStem: -5 29<214.692 287.247 443.521 516.308> 600 50<99.3112 216.617 522.404 669.264> 724 70<538.884 692.458>
VStem: 325 80<52.5 440.676>
LayerCount: 2
Fore
SplineSet
497.670898438 857 m 0
 509.670898438 835 545.670898438 794 615.670898438 794 c 0
 685.670898438 794 721.670898438 835 733.670898438 857 c 0
 738.670898438 866 745.670898438 878 755.670898438 878 c 0
 765.670898438 878 765.670898438 867 765.670898438 854 c 0
 765.670898438 790 695.670898438 724 615.670898438 724 c 0
 535.670898438 724 465.670898438 779 465.670898438 854 c 0
 465.670898438 867 465.670898438 878 475.670898438 878 c 0
 485.670898438 878 492.670898438 866 497.670898438 857 c 0
EndSplineSet
Refer: 643 933 N 1 0 0 1 0 0 3
Validated: 1
EndChar

StartChar: guilsinglright
Encoding: 8250 8250 118
Width: 464
VWidth: 0
Flags: W
LayerCount: 2
Fore
SplineSet
257 217 m 0
 213 251 161 291 105 376 c 0
 98 387 98 402 107 400 c 0
 119 397 128 388 135 382 c 0
 204 316 259 279 361 218 c 0
 369 213 359 188 346 182 c 0
 287 155 210 104 141 37 c 0
 134 31 125 22 113 19 c 0
 104 17 98 29 105 40 c 0
 161 125 213 169 257 203 c 0
 265 209 265 211 257 217 c 0
EndSplineSet
Validated: 33
EndChar

StartChar: uni2078
Encoding: 8312 8312 802
Width: 300
VWidth: 0
Flags: W
HStem: 431 16<123.111 175.989> 772 13<123.939 172.142>
VStem: 32 60<463.924 564.22> 45 52<671.281 756.628> 197 52<671.17 759.348> 202 60<474.65 558.814>
LayerCount: 2
Fore
SplineSet
167 636 m 4xd8
 193 657 197 682.679 197 716 c 20
 197 745 179 772 150 772 c 12
 122.373 772 97 752 97 725 c 12
 97 683.018 119 669 159 637 c 4
 162 636 165 634 167 636 c 4xd8
180 624 m 4
 223 597 262 575 262 531 c 12
 262 469.78 197 431 141 431 c 12
 87.0928 431 32 462.093 32 516 c 20xe4
 32 565 87 589 116 605 c 4
 122 608 119 608 115 612 c 4
 81 640 45 665.753 45 714 c 20
 45 759 101.919 785 152 785 c 20
 198 785 249 760.112 249 713 c 20
 249 686 226 670 213 659 c 4
 202 650 196 645 183 636 c 4
 173 629 173 628 180 624 c 4
122 595 m 4
 98 576 92 560 92 525 c 12
 92 487.323 111.323 447 149 447 c 20
 183 447 202 476.484 202 508 c 20
 202 542 173 571 140 593 c 4
 133 598 129 600 122 595 c 4
EndSplineSet
Validated: 1
EndChar

StartChar: uni2091
Encoding: 8337 8337 824
Width: 232
VWidth: 0
Flags: W
HStem: -179 42<93.7972 194.267> -31 29<80.5237 170.101> 51 27<95.1412 166.329>
VStem: 9 55<-107.281 -30.75> 171 54<1.8087 49.2921>
LayerCount: 2
Fore
SplineSet
9 -58 m 0
 9 35 71 78 144 78 c 0
 184 79 225 53 225 14 c 0
 225 0 224 -20 214 -25 c 0
 205 -29 185.393 -28.6084 167 -29 c 18
 73 -31 l 2
 63 -31 63 -41 64 -57 c 0
 65 -88 94 -136 144 -137 c 0
 166 -137 180 -128 200 -112 c 0
 207 -106 225 -122 222 -128 c 0
 204 -156 175 -179 126 -179 c 0
 68 -179 9 -130 9 -58 c 0
75 7 m 0
 71.4963 -1.75923 76.7812 -2 81 -2 c 18
 118 -2 l 10
 135.658 -2 150 -1 163 3 c 8
 171.029 5.4707 171 18 171 23 c 0
 171 45 154 51 134 51 c 0
 98 51 85 32 75 7 c 0
EndSplineSet
Validated: 33
EndChar

StartChar: uni2093
Encoding: 8339 8339 826
Width: 266
VWidth: -323
Flags: W
HStem: -144 20<133.092 162.007 230.488 262.908> 77 25<14.4032 48.4291 203.493 256.641>
VStem: 2 261
LayerCount: 2
Fore
SplineSet
52 60 m 2
 48.89453125 64.5390625 42 73 29 77 c 0
 22 79 14 85 14 92 c 0
 14 98 26 102 29 102 c 0
 54 102 48 102 80 102 c 0
 96 102 98 103 113 103 c 0
 116 103 128 97 128 91 c 0
 128 84 121.758789062 78.7041015625 115 76 c 0
 110 74 113.032226562 62.2841796875 116 57 c 2
 132.400390625 27.7998046875 l 2
 142.063476562 12.19140625 140.208007812 19.5869140625 146 27 c 2
 171 62 l 2
 172.584960938 64.21875 175 76 171 77 c 0
 163.936523438 78.765625 156 85 156 91 c 0
 156 97 168 102 171 102 c 0
 177 102 194 102 204 102 c 0
 227 102 234 102 243 102 c 0
 246 102 258 100 258 94 c 0
 258 88 250 80 243 78 c 0
 230 74 207.8515625 74.2763671875 197 58 c 18
 157 -2 l 2
 155.591796875 -3.736328125 159 -11 161 -13 c 2
 221 -103 l 2
 226.55859375 -111.337890625 235 -120 248 -124 c 0
 255 -126 263 -128 263 -135 c 0
 263 -141 251 -144 248 -144 c 0
 223 -144 227 -144 195 -144 c 0
 179 -144 163 -144 148 -144 c 0
 145 -144 133 -141 133 -135 c 0
 133 -129 141 -124 148 -122 c 0
 161 -118 168.3515625 -112.407226562 160 -100 c 2
 125 -48 l 2
 123 -45 118 -53 117 -55 c 2
 78 -108 l 2
 75.037109375 -112.026367188 74 -118 87 -122 c 0
 94 -124 102 -129 102 -135 c 0
 102 -141 90 -144 87 -144 c 0
 80 -144 70 -144 60 -144 c 0
 37 -144 28 -144 18 -144 c 0
 6 -144 2 -142 2 -136 c 0
 2 -129 10.79296875 -125.029296875 18 -124 c 0
 32 -122 50.47265625 -101.024414062 56 -94 c 2
 104 -33 l 2
 109.161132812 -26.1181640625 107.3828125 -20.7490234375 104 -16 c 2
 52 60 l 2
EndSplineSet
Validated: 1
EndChar

StartChar: uni2101
Encoding: 8449 8449 829
Width: 553
VWidth: 0
Flags: W
HStem: -4 30<388.36 461.984> 230 33<425.152 487.019> 400 40<65.77 129.96 198.036 240.006> 623 33<78.2391 152.811>
VStem: 8 55<442.316 503.53 573.099 607.49> 143 56<449.082 519.993 538.688 619.507> 353 27<37.0352 58.4376> 363 57<170.413 228.507> 468 61<29.6144 91.8016> 490 32<200.032 225.097>
LayerCount: 2
Fore
SplineSet
63 474 m 0xfc
 63 451 82 440 95 440 c 0
 112 440 125 451 135 459 c 0
 140 463 142 467 142 482 c 10
 143 511 l 18
 143 523 139 525 128 522 c 0
 78 508 63 488 63 474 c 0xfc
202 400 m 0
 165 400 152 431 147 431 c 0
 138 431 120 400 67 400 c 0
 40 400 8 436 8 459 c 0
 8 484 14 500 46 512 c 10
 125 540 l 18
 142 546 143 548 143 564 c 2
 143 587 l 26
 143 607 130 623 106 623 c 0
 90 623 68 618 63 610 c 0
 60 604 60 592 61 585 c 0
 62 577 31 570 16 566 c 0
 12 565 9 569 12 576 c 0
 18 591 21 601 37 614 c 0
 57 631 103 656 137 656 c 4
 168 656 200 631 199 603 c 10
 196 479 l 26
 196 462 198 440 217 440 c 0
 229 440 234 442 238 448 c 0
 243 455 253 439 251 433 c 0
 250 430 226 400 202 400 c 0
453 230 m 0
 427 230 420 212 420 199 c 0
 420 183 454.3515625 160.544921875 472 144 c 0
 488 129 529 103 529 70 c 0
 529 28 495 -4 420 -4 c 0xfd80
 407 -4 365 9 361 17 c 0
 357 26 353 40 353 54 c 0
 353 60 379 62 380 55 c 0
 385 35 410 26 430 26 c 0
 460 26 468.418945312 46.0087890625 468 56 c 4xfe80
 467.162109375 75.982421875 448 92 427 107 c 0
 397 128 363 153 363 191 c 0
 363 234 402 264 456 263 c 0
 481.99609375 262.518554688 507 242 513 236 c 1
 521 227 522 214 522 197 c 0
 522 190 491.166992188 199.02734375 490 206 c 0xfd40
 486.534179688 226.711914062 461 230 453 230 c 0
EndSplineSet
Refer: 1135 8260 N 1 0 0 1 256 0 2
Validated: 1
EndChar

StartChar: uni2106
Encoding: 8454 8454 831
Width: 725
VWidth: 0
Flags: W
HStem: -1 38<486.191 569.424> 20 24<650.08 701.796> 218 27<547.019 585.474> 401 42<111.786 216.086> 625 29<112.632 197.66>
VStem: 29 54<471.025 591.515> 420 56<44.2147 213.815> 594 54<54.694 212.457>
LayerCount: 2
Fore
SplineSet
29 519 m 8x3f
 29 594.01171875 90.98828125 654 166 654 c 16
 194 654 224 647 244 625 c 0
 252 615 241.983398438 602.271484375 232 594 c 24
 225.06640625 588.255859375 212 591 209 596 c 0
 196 617 183 625 151 625 c 8
 108.8515625 625 83 583.1484375 83 541 c 16
 83 483 114.415039062 443 164 443 c 16
 191 443 208 450 225 470 c 0
 231 477 250 463 248 456 c 0
 242 435 200 401 140 401 c 12
 76.818359375 401 29 457 29 519 c 8x3f
639 259 m 0
 645 260 659 250 656 245 c 0
 653 241 648 213 648 203 c 0
 648 151 648 121 648 84 c 0
 648 59 648 41 659 42 c 0
 666 43 691 43 697 44 c 0
 700 45 702 40 702 36 c 0
 702 32 701 20 698 20 c 0x7f
 664 16 635 6 616 -1 c 0
 613 -2 599 -6 598 -4 c 0
 597 3 602 33 601 41 c 1
 567 10 534 -1 494 -1 c 0
 452 -1 420 23 420 70 c 0
 420 100 420 152 420 184 c 0
 420 201 409 211 389 218 c 0
 387 219 384 227 384 231 c 0
 384 236 387 245 390 245 c 1
 425 246 441 251 466 256 c 5
 472 257 481 253 480 247 c 0
 477 228 476 211 476 193 c 0
 476 161 476 123 476 92 c 0
 476 63 492 37 520 37 c 0xbf
 542 37 549 38 565 49 c 0
 575 56 594 69 594 94 c 0
 594 140 594 151 594 188 c 0
 594 213 558 216 553 218 c 0
 550 219 547 227 547 231 c 0
 547 235 550 245 553 245 c 0
 619 248 616 253 639 259 c 0
EndSplineSet
Refer: 1135 8260 N 1 0 0 1 256 0 2
Validated: 1
EndChar

StartChar: uni2213
Encoding: 8723 8723 1074
Width: 600
VWidth: 0
Flags: W
HStem: 228 60<56.9693 270 330 546.107> 551 60<56.9693 546.107>
VStem: 270 60<24.8831 227.989 288 514.107>
LayerCount: 2
Fore
SplineSet
536 611 m 14
 543 611 550 605 550 599 c 4
 550 590 547 551 526 551 c 22
 63 551 l 14
 56 551 48 558 50 565 c 28
 56 586 59 611 81 611 c 22
 536 611 l 14
270 222 m 6
 270 229 269 228 266 228 c 6
 63 228 l 14
 56 228 48 235 50 242 c 28
 56 263 59 288 81 288 c 22
 266 288 l 6
 269 288 270 289 270 292 c 6
 270 494 l 14
 270 515 309 518 318 518 c 4
 324 518 330 511 330 504 c 22
 330 293 l 6
 330 290 331 288 334 288 c 6
 536 288 l 14
 543 288 550 282 550 276 c 4
 550 267 547 228 526 228 c 22
 337 228 l 6
 331 228 330 226 330 220 c 6
 330 49 l 14
 330 27 290 18 284 18 c 4
 277 18 270 24 270 31 c 22
 270 222 l 6
EndSplineSet
Validated: 1
EndChar

StartChar: uni226A
Encoding: 8810 8810 882
Width: 836
VWidth: 0
Flags: W
LayerCount: 2
Fore
SplineSet
399 229 m 6
 779 55 l 14
 798 46 803 16 803 7 c 4
 803 1 796 -8 789 -5 c 30
 360 195 l 30
 343 203 319 216 319 222 c 4
 319 231 332 259 352 268 c 30
 789 468 l 30
 796 471 804 461 802 454 c 28
 796 433 791 417 771 408 c 22
 398 234 l 6
 395 233 396 230 399 229 c 6
103 229 m 6
 483 55 l 14
 502 46 507 16 507 7 c 4
 507 1 500 -8 493 -5 c 30
 64 195 l 30
 47 203 23 216 23 222 c 4
 23 231 36 259 56 268 c 30
 493 468 l 30
 500 471 508 461 506 454 c 28
 500 433 495 417 475 408 c 22
 102 234 l 6
 99 233 100 230 103 229 c 6
EndSplineSet
Validated: 1
EndChar

StartChar: openbullet
Encoding: 9702 9702 1172
Width: 310
VWidth: 0
Flags: W
HStem: 250 35<107.331 202.669> 435 35<107.331 202.669>
VStem: 45 35<312.331 407.669> 230 35<312.331 407.669>
LayerCount: 2
Fore
SplineSet
155 435 m 24
 113.633789062 435 80 401.366210938 80 360 c 24
 80 318.633789062 113.633789062 285 155 285 c 24
 196.366210938 285 230 318.633789062 230 360 c 24
 230 401.366210938 196.366210938 435 155 435 c 24
155 470 m 24
 215.669921875 470 265 420.669921875 265 360 c 24
 265 299.330078125 215.669921875 250 155 250 c 24
 94.330078125 250 45 299.330078125 45 360 c 24
 45 420.669921875 94.330078125 470 155 470 c 24
EndSplineSet
Validated: 1
EndChar

StartChar: Adieresis.deu
Encoding: 65536 -1 984
Width: 555
VWidth: 0
Flags: W
HStem: -3 24<32.5977 66.9577 182.452 212.952 498.912 529.715> 139 27<198.819 333.7> 443 20<310.5 314> 610 100<177.617 256.213 475.617 554.213>
VStem: 166.915 100<620.702 699.298> 464.915 100<620.702 699.298>
LayerCount: 2
Fore
SplineSet
514.915 710 m 4
 539.915 710 564.915 685 564.915 660 c 4
 564.915 635 539.915 610 514.915 610 c 4
 489.915 610 464.915 635 464.915 660 c 4
 464.915 685 489.915 710 514.915 710 c 4
216.915 710 m 0
 241.915 710 266.915 685 266.915 660 c 0
 266.915 635 241.915 610 216.915 610 c 0
 191.915 610 166.915 635 166.915 660 c 0
 166.915 685 191.915 710 216.915 710 c 0
EndSplineSet
Refer: 31 65 N 1 0 0 1 0 0 3
Validated: 1
EndChar

StartChar: Odieresis.deu
Encoding: 65537 -1 985
Width: 605
VWidth: 0
Flags: W
HStem: -15 37<242.335 386.997> 424 32<229.322 364.877> 610 100<70.7018 149.298 624.702 703.298>
VStem: 60 100<620.702 699.298> 66 85<119.755 310.96> 468 84<121.475 314.94> 614 100<620.702 699.298>
LayerCount: 2
Fore
SplineSet
664 710 m 4xe6
 689 710 714 685 714 660 c 4
 714 635 689 610 664 610 c 4
 639 610 614 635 614 660 c 4
 614 685 639 710 664 710 c 4xe6
110 710 m 0
 135 710 160 685 160 660 c 0
 160 635 135 610 110 610 c 0
 85 610 60 635 60 660 c 0xf6
 60 685 85 710 110 710 c 0
EndSplineSet
Refer: 46 79 N 1 0 0 1 0 0 3
Validated: 1
EndChar

StartChar: five.taboldstyle
Encoding: 65560 -1 1081
Width: 475
VWidth: 0
Flags: W
HStem: -189 29<115.529 197.375> 325 90<215.007 308.016>
VStem: 292 80<-74.5118 63.7829>
LayerCount: 2
Fore
SplineSet
318 415 m 28
 325 416 330 408 330 401 c 4
 330 376 306 330 279 325 c 4
 228 315 193 315 164 312 c 4
 150 311 141 287 140 271 c 4
 139 262 156 251 166 246 c 4
 228 215 282 177 310 150 c 4
 337 124 372 69 372 17 c 4
 372 -80 312 -131 276 -151 c 4
 241 -170 169 -189 149 -189 c 4
 134 -189 115 -186 115 -177 c 4
 115 -167 136 -162 148 -160 c 4
 172 -156 222 -141 249 -115 c 4
 272 -93 292 -61 292 0 c 4
 292 65 213 136 155 167 c 4
 106 193 103 208 103 218 c 4
 105 273 123 324 131 344 c 4
 139 364 152 373 172 380 c 4
 219 396 260 407 318 415 c 28
EndSplineSet
Validated: 33
Substitution2: "'pnum' Proportionalziffern lookup 8 subtable" five
Substitution2: "'lnum' Lining Figures lookup 5 subtable" five.tablining
EndChar

StartChar: ogonek.cap
Encoding: 65551 -1 1061
Width: 436
VWidth: 0
Flags: W
HStem: -287 71<202.439 279.623>
VStem: 101 85<-199.668 -98.1401>
LayerCount: 2
Fore
SplineSet
272 18 m 9
 298 18 l 17
 230 -39 186 -80 186 -155 c 0
 186 -190 217 -216 252 -216 c 16
 287 -216 325 -181 334 -176 c 8
 339 -173 346 -174 346 -182 c 8
 346 -195 339 -205 334 -214 c 0
 319 -240 265 -287 215 -287 c 8
 152 -287 101 -237 101 -174 c 16
 101 -94 150 -56 272 18 c 9
EndSplineSet
Validated: 1
EndChar

StartChar: one.lnum
Encoding: 65540 -1 1042
Width: 362
VWidth: 0
Flags: W
HStem: -3 25<31.4709 85.0981 271.344 325.02> 534 40<53.0308 114.284>
VStem: 140 78<57.6769 511.641>
LayerCount: 2
Fore
SplineSet
67 534 m 0
 59 535 53.238 544.481 53 554 c 24
 52.7676 563.3 59 573 66 574 c 0
 124 578 169 611 205 636 c 0
 211 640 223 635 222 628 c 0
 219 608 218 584.734 218 557 c 0
 218 382 218 282 218 109 c 0
 218 87.4082 220.927 71.4161 237 57 c 24
 261.821 34.7373 284 28 315 22 c 0
 331 19 331 -3 315 -3 c 0
 258 -3 232.687 2 180 2 c 24
 125.755 2 95 -3 41 -3 c 0
 29 -3 24 19 41 22 c 0
 71 28 95.4189 34.5196 121 57 c 24
 137.219 71.2529 140 86.9775 140 109 c 0
 140 285 140 295 140 468 c 0
 140 510 92 532 67 534 c 0
EndSplineSet
Validated: 1
Substitution2: "'tnum' Tabular Numbers lookup 7 subtable" one.tablining
Substitution2: "'onum' Minuskelziffern lookup 6 subtable" one
EndChar
